<mxfile host="app.diagrams.net" modified="2024-05-03T16:49:36.382Z" agent="Mozilla/5.0 (X11; Ubuntu; Linux x86_64; rv:125.0) Gecko/20100101 Firefox/125.0" etag="RznrpeJIfldMJMfoWD1a" version="24.3.1" type="device">
  <diagram name="Page-1" id="HjGYm-LPOsi-SFfNgDnn">
    <mxGraphModel dx="1916" dy="1906" grid="1" gridSize="10" guides="1" tooltips="1" connect="1" arrows="1" fold="1" page="1" pageScale="1" pageWidth="850" pageHeight="1100" background="#ffffff" math="0" shadow="0">
      <root>
        <mxCell id="0" />
        <mxCell id="1" parent="0" />
        <mxCell id="9boe2PsTS-l3skZUsSW5-32" value="" style="shape=image;verticalLabelPosition=bottom;labelBackgroundColor=default;verticalAlign=top;aspect=fixed;imageAspect=0;image=data:image/png,iVBORw0KGgoAAAANSUhEUgAAAbQAAAFfCAYAAAAmtzkHAAAwSHpUWHRSYXcgcHJvZmlsZSB0eXBlIGV4aWYAAHjapZxZdiS5sl3/MYo3BBh6DAftWpqBhq994Mys9km6UmYlyQpGeAOYncZgcHf+5/+47r/+67/MrDSXcm2ll+L5k3rqYfBD89+f8b6aT+/r+zPTz0/219ddvj8/Br5HvsfvF6183+3X6z8f+PXdBj/lPx2orZ9fzL/+oqfve2h/O9DPiaKuKPDD/jlQ/zlQDN8v7OcA47stX3qrf7m1833/+fw3DPxz+hK+t+qqvqv42/+nyujtzHliCCda9HyN8ecCov4lFwc/5Pc18EaLnZ9jbN/rP1fCgPzbOP3+07miq0tN//qmv8zK75/+Nlvr51bd32crhZ+3xL8Ncvn9/V9fd5b/fVbe0P/pzKn9DpO/vJ7Dizyu6G+jr3/37nbfPXMXIxWGuvzc1K9bfD/xPqYj6dTNcWnFV/5lDlHf387fRlQvQmH75Sd/l3ULTNe1ZNuGXTvv+7LFJaZwXKj8EMIK8b3YYg09rKj5S/prN1RmcjOPIa437SmG39di77TdL/fO1jjzNt4ajIMZH/mP/7r/9AP3KhXMNJZMvX3zG4IGm8vQzOkrb2NG7P4Man4D/Ovv3/9oXiMzmDXKSpHOwM7vEDPbH0gQ30RH3pj5/uWg1f1zAIaIU2cuxiIzwKxZzFbM1xCqGQPZmKDBpZNAYTIDlnPYXGRIMRbmpgWdmo9Ue28NOfCy43XAjJnIscTK3JBrTFZKmfipqRFDI8eccs4l19xyz6PEkkoupdQiUBw11uRqrqXW2mqvo8WWWm6l1dZab6OHHgHN3EuvvfXex+CcgyMPPj14wxgzzDjTzG6WWWebfY5F+Ky08iqrrrb6GjvsuMGPXXbdbfc9jh1C6aSTTzn1tNPPuITaje6mm2+59bbb7/g9az/T+o+//8Gs2c+shTdTemP9PWu8WuuvQ5jgJGvOmLDgkjHjVVNAQAfNmW+WUtDMac58D2RFDlxk1pxt04wxg+lYyNd+zZ0L34xq5v6/5s3V9Jd5C/+vM+c0df/hzP1z3v5t1rbwbr0Z+7JQg+oj2cd7Rmj8B1f987v7737xH36frhFQi6k/2+YiJyPjdwcjkO86l7Fep5VNVOj9hEPfa8VdZqkr5BPaDNf6bdUV26UAZrPx/sM0JN8jQHtiYSbrOUz/rANiLadUmC6vfZKVPuM6JfjZg6UwzDH7EFwEreqEEZfPbcaIQrkr7MHBclnjzlz6sdmN0bbK1ROu8awFbIMSs63mdJnppjFTX2X2MZeVeHIlmGpefVZQo5YwuqUawJQ4wwAYVyGPkj/ANBPXBnR0Vgi9RE6YOpeHXNobVIqjL6RN7eAX56kbUAKhTtLXPG2/6A2BwZyr+uDm9Ce3MFpe93Ri85+TApCVG0IrfOUSe92TT/GJ2QDwOnM0YESZVdJgKjrRsnMkojJ3dlJqlyTYZ7cFt8GY83QCndBtHP/YqpsQZMA1IMUFLrLfAJ/uxVgCr0TwHOGes/a99fTJsPdG3k5yu/sZu/VVidTLKWM8G9q81S2ykcAWv0ymthIChLdvu+Sr/yWHydDdL7GducFVb+l7or4msbQXt+NvsOs4HQGUxt45zRikUozrX63qowi3tTkLFwmazFXimkW303mV120WNGLlE44P9Gw6+V2DeWcyR7xnnpTbJWD4/exRB93318GTDS6qB3CNoAZ47mxOvxtc4yAwzm2jnaDRjGv3agvgTAQQp9chSAju84/brFEHHJ1wLw4cbceTCkb279C5ADQMQ53uy/jzDrECETt1L72ACQTOqVxmXcyjV/YR2Tc2bknT2xMB+06o06W8yeQXnGORXUzYHyOXSY3lFzMVuHTkZ3LWMrgfNziXZ16g9YZ2QTY04D2Z3HljPTJYYG03goEM+zWmAPaZb0wdg9qZtQCLdxDTH2bz5rQvKTNvOXxyTqJ031F+5pHBq9EzkNCFWIsoTdftxJztEQmbKyTMpg/pkklZZs1gBtL6jdi4HfyoaDvGIKekIGo/p5UYXXdsqGESz8QTwxpbyKn2cFBzJcY994JBZt0akYIcZ3jJfBD6BJ2gEL4ug92VIAuFqypCgVhWyhzkFDtMLdTEZfXI4UHt1TZTDi+SVsDPYBhB0DWra62CDQmABcMYACbgdk9WM5bEAizod4RQzmVo2rp3/Jq5k8fhiyepT1xutRe1afo7mTymeqwGO06Ix5eVz00Q1CTmkE9nlHWxbDtMomS/SPP+KLSJbMbxXMXw7+DrY5+AkBXQjIzIFjWQBvVM8qkCknlD3lNcEARlZx0OVHlZFqnAy9GvfCMkXXuaA5iFsIFpzqRTNIEu1wfJQhAW1iR4AV79zh20QQkKYj6XA5kKOUDjfg0SoBDS4IOyLxwCL6a60EMpbjQAbD+Y+T1CadeBjrtGa0VSJcQKl4wyCTU8QGBK5hVHYVhRHGUcgIBpPgllIGyAfmo1RqLBaxHonmUHLAK6A3g1Ps0PqdxmBPa1whjbC8kFql2MA3EwkZ2nbK4P7BmM0Upoi0nkcAPY7uV7BnuxCvn0fn0kj4+hZt7sjrJJl9NWzHvarU+s5NmXuQj1ASQLj+Jj2oQvPLPjgV7jLfyGwe8G6Yjc7mRqj4fgsTZ73UxKw95gdXE4fSZyVRgY8Of9gVdyh0H4AVCC0QBfYhkWzUn8nPlPJvqv3x1i4CFeYLy/xKwvfbcHswpKSOk0GTX9DtnXDgxaElgzK2Yk7F3f7xBam9T2qYA6SFJom0tGiN04URlEVQ8k2Gl1MvxAzoAq5t2Js8MIOkSCeifTXx/iXCRcG2QFbJgBJoSOBuFy+iphmls3IoFhe0QwNF8gAdfM2KMfstPL9cWmYp0DER4dKGTYALzv6lATQG0T9ZAOKdg5daN/IRwrBVav57r14p/kO4tXLmOe7yZcueNqQurap6CCOGTYs0fm2CUExpkPBYj0l7fIY7QvyuzuRxQMFmniofxxKql0xPdExcqkODw+SjMoFuQbL0BJEmKdCXHQfmaaGoOEhlhSBQi9PHUxM5Oz3Mvw714g24zshrNBLdQ0pixP9INJc7tTMUnDxmwpx73IFE9kR8CCFFhi+kSSIyVEtwwP6bA6BwaCEEkcvk+UXYhuSdkF0ExyifTUBUNagA0MDcF2VOl8EPYYj/BIk8DPBL6OdY8HZ8Adh03nVUUAiErAoMzC3QcIZUChI0YdaSv+PeRPKjBp4CLx/QfYXJEMOZjIRUD2bq+Ek77xjwkwP14XyY2W4weAQsiAyVLFHc6sXpfcdYnpHITMOjpQ7X3qGrEi/A7tyujl2IRc3AJCEX9xSHIiFacCuNYCfaHTmAsiD3YDUq87A3xYyF+wG1K7u5MsxvTu5bfIWBl+pbtCJdiD9C5xRgrfGDqjv7gKxhDfzzBLPTE0C+xGBKOFN8IKh9mIATsFfs/cQ0GPNOm6IjOG5YFUAeIzDRh2KFnii/m8TwxXbNGFzYeH1YA7UP7X3GDEFjcaCZ3OFICGQDUqmLMh8vH96ATmClrab3ZieBi+7vMOM1coyc9A0knbwJU6I/ddQ7wtERocq4/iUFyrjDEKDtHL1hAeJjFAZpBry5ASY4v/yaqFpLLpYZvOcTA/8erFyzGd3E8jvcHiEpBuu6sGhdSG9y86iUE50kdY4IWGmBETgachPdcVQQLtCEmrDtAAa+VHsLAYoN364nSgjaQjbxuV43WlGBy8GJqK8ekDWu1TBZTaRXwbEUEOZHIb9ACl8BFBUgTjCbSTTCseThShD8kZPKk81iWoAlIrwuZxTkxFc4bPy9IP+HE8LOPImWRh1pGcRkoSLDA+IgYLsxo5EWI7ICCaH4u1E/a/ejSkyhQcXnKWVAiIJeXeypg+CDd1phCX0BPzCknBMlE2C20+SRE8S8871OcgAYXRD16QM2QQjZDKCcmakPlL5bNCuniig+zzdu7kWJg4pFuNvaISEHIZc5wxMhuM4ewAEi6kZCQWOImgtcMdEAHA8+QS5UMzrMpoQKaL4y90GPFGUDjJhwWVRHgTNhh1SOHLqf3xHerUyGWYCLJFrDIJOJpLILa+Q0I0d8cYkBJPzMGultJBY0+/sXMVROJXlaRR1QtPAygyZP4RJmIOtwGAcERsroPbGD7BlKQwyRZ+VAeYUJM8GD4bKmpIyItrviKsi6upVSovygxs2Bl5DAMxUXJs8b3Tnh2Z4Cdo5hf4I48FCNwPYUEwuA4fmjpGewf0E1pXNouoHRk7xhmEg3BTfB+Bd6CVsNf7TVEggNxyUQEiIZsaaDclfSvyGMJV+aURehviO69Kws3hMCRBxI7YnSP2ulMmrOqmNj8jj5AXmyBETk7HEQb6BUkmskBfkTlAEDJPVWPUt0YAiX/akDzIED1RDVA2Pzlt9EZ+8U6HBwIzCrNDSEDZPskSo0yB1zzIiDejCPkk1EczkZodY454RsJ2FJoqmSk4D4YxzKTZiRqfgUZFYwSyAUjeawY8/gRnDO8CF8EU0GgGVvEqiCQuJyj/HDZDuYSR+KixdLwlmmigmqeAlgRoC5lMvJI7IAQxxmXhcQY6j5GUQkSN4BWKbC8UjWVESFiA5NCL2GtmCDuhwOfuc8cOHQxxBRqxd9wA18uo5ryRS65gYghgkoDw+X4B36L7Ca5XaMg5av6FUBgLsBrcujAeoAd5r2qYz4YV3WEpcMEcZH1LGgREdMFf7TNxa0G1QK8SEn6ACYiIH6Kuc9tDyM/7t0LACQqmhAKhhSdCrCQ4Iul2UGQ4isr4H9U6YfKAFI3LQ+bEqkTvXtYVF9YcUXHFSxXaYFQbkQH/MzZR+DIJEwQUP8CyILKgjCtAPKQCnKIn0Gk7M9yu8wsYULUoYEiMOtG93EzM5ERGJQvggAQjS1RsaNyrAb69J+RunfbZQMeseiZOfipCut8AM6NYRqwq/59qmoh9TBd0gb4gEcSUQU5iEq6cS8tM7jwFCR+vizuDOuU7yP4VUvEhLXyDT2SIGBLzg1jKqndKPcFyBNE8ci7ZLeJ5QB0pSQQcIZYcmSGKg7REJthBF2QdOc9lLFQIB44ma1N/BDvs56AhtCQGaH7FE6gcucTNtbWrIiGrjqiIZioB9mBWYP4SnjY3mUAOk5E1NakQzrWn96t+dviUMymyVQho5A3OAMpllpFqKhZLqKBpuWik/PvR/dPnlJJe5WogEM+6fJkbbSFTgWvBv2VcS7qvwGYRAdl1y9j1IpMxcTmSv0UYiqHmpTu+K0t/gvgfhCe5gHgwEl2M5fzcEeGpKhtn4jKY1SOD4PtD+InUQcs+MS9mZIB/0DwsQZJkuIoL6aCzVTP7rpDcJgpQ2IM7WUCpXifs3hnbW3PjChGhkLfqmP17ncDFMjBrazRPNsBWKVVE1WdVOhmEE68lg5kRQK9EGZ7E1ls/KyhJyd5aG7mZhEcWlfHPhRGwmXGUxMVUZOM+ikAXAm5yFZs0QqNExOMhiRuunSExpetEjXBBfclaAdEBIVGKV4GN4FetBmhfkrPkmwffVMIFKLDjkhqb6EenkOVgdko+4bKZFDCxk84qE6EvyFxkAnd5AHGC65wVI7d1AM9DFF9pLIaNs6nG4ATSoHRFDsFaJAaeo4p/ACEUTno2bWRUFhgEBMUOuS6NGgTKkY9MW1YBYUrgdDJ7MSUhMnGGAUVVdgCV+8bd4MNCSBLRHLe16xWQa5OtCbTm+tA7DkyYZDnQRzDOwyADAdY8FuvoYMx2L+oDQO0zbNX3ZggNnCMQKg/BjGzLA1lTYA9Dx3eirzbBO6oKVYIR7u1IY5BygMPsbcJOV65hTMRFsXa0ZiKvG51mWUUH4iNzSeAhIQzbGw6LNyZ80Rbw3tr5gkUk+zKRjRAcTK/Ox/336jgIUqP5iLwDEQwwaook5hv+zEr/uzOG8C12ZOuyfBzbF9gCyAVpC+Zgur2WtLxU0wplcorbYHcVvUG8jASCmh8Lb+TauFpllP8SHgtZFz+MUadLXBc3An4xCFgvfGCpS9W1mSF+ADdaeaUL3MO4XD5y6suyrLIjzgT/s4M7HuX4KhddCzYgz+UAkrJPhYT21dsJAF1xBBhxLoQzEliLCqTQUO3XHNFJgFfT0oGXi9sqFVxoJYBSJMSVx5iopaYqOAIA3DVcMukqt6PlVPA/uG3Rj5TKIBZUQQVdsImkBRYR5OPCyDDyv2qthj9aRCCqSH7QDyIz/vGZ7TLvwG+YZNclBmRG0Vdbah3xEMlShV5RvR3vJPMxEzNT52wkR2AUFCfLNXvtK1x6JlHzaW/NXxYD3QCB9LDBNjAfskU3MiEAMRKtTYNckEBAj2mMgtBQa/+gBPCFwehwJoMLy+GvutawUFAoLbys1h0zGC/daDB4JxOAWWuxO4aECyvP+ZHOU8aoaZ0Q6YIkE6d15m6bNB/IeQb0laW0X45zlwfHPJpTIVtWEimFZcAIEz6HxAwGPK+61JYwMDreX3ynQDbKDytGMNloVQQmQYA+mmWnBVzVzcSudCoBi/8JyCGGF9deZEwSKKhadx8qIf1en4oRPyRbg6xhTPlMAoNfCM4FOmGqVQzDVgwR4cHEQTJVa1K4JNAF34pHxBwj0FB2fMJp8nAf3EM9TNpiemX2u9YbkA1AebftcS3jSm4y21FWBgoKqu5h6BoeDr8G6UhpPSNDCP8kKLF3VWiXsOLdDCeXF6OXzJ5e5IkbOTmgLJHLPiEixJTMr8pCOt58vmfCVhmiTOJVjyzTalweUPAsT8AVEhVRImJpHBIYRrAnTCZg0iCQkAtf5QSISsgK8Thgj4ZbUeVoQeSLjLwkT4ZYtULHAAE7Obm5eAFxSWAy8dINTZIHJr2qVCW8jpbZ1MCBtrtEKqSFNS9ZhhLXcBB+cIxjTJDU9WSTQTBRMwKNjCZHKxJFK6oNsgr4m9ufkmROUorEDQ4oBVQlJ9muci7AXlXaMSOnSaJJE24vxv/Cm7ADeQpch8yFlGRBjV296XNqnroomOwYQ8INBtjjlV9JV3BqRMOoVFX/VdSeQHo9/av9mU76ZDpWImNeE2gPHUXwpKtgmaQRVuO2FTGYdeDmVYJ2BGUZgBTAjaPirEE4JGvQsi1MwPnNoRNbwtehmNEdy0x+c/gsoQAoKJKuyuVdL8NuxY/9Vp4Z5Nl3J3bHIu4cSigeeblakSrMVRmqqXVOyA1yONPqN6JMwATZykUCaRW4IShQHLMjN3NxOTOBuKAtvUWuZC1AADU25LJhWVm1sCFc9DTRie2RXj2TDCHVJGG4sHJgEUJb6yDEUZOzDx/VgMlIxZO1hk3akZ34laMFhAPL+whogY8AmFYaQC1HoEgGQdBcVBfmWcYvxdDlLVRw4aNVayH77JIOKoE3ZY4ckPDP+TOvs7iupW5hPIIWPiE+BbZPsPAmVD2Uo5UaqfXg1Y9RgByUT5pakeN2Npb1ekdaHQZdZb0Cz26kEyEEIEhza0gP7qwgGMxzXo1OkpRqWhJizKF1wp4Yc6iFjd0ByQivMFvEJXYj3yW1DqYE1ZcZ+YipIpWmat9ANOhX54UpK1o+lFYZ7KlWgIIB4C+TsSW58TbYTIH0xZV6XbShRpbqjBDC0HKQjH8HaqWJZoSyEV25df5Hi9PwKhNEIjG1TM8DuWd2pHIr6YYTNrStCpNQNUGbnyLqTmETQlVfCv6SfMOXMnl9WZ4QCTNYibr6qwDaBrAAG9zWiKAix4vI8WqtwsnBQhB8BSFU2y23+aMitLzOkYDAaZLflXCFGf23vJhqgaSXjEpAlzdn0ATwq5ViZuQFYwrBQHX/Kk/qyMAubbk7xqy20t7aEhmXW4NOuV044ToVAIaMGnFI+vAD+glSRZUu5oP7sqfJCFA8H0pjvsVq9achHwlTRo1QnS63LG2WQfLOFSMzukDdazGJ2UqTYPWbGSyxTE4D+iFG9SIIptpA0wpKbM6rQ4KB0cJbVDFqqwKEtwLrw0GuZkaTiNwkQFZTEnpxoZqD/o+Mgai6LsZJ0KJqwPHGNSP+CNsSUVkSShWq9u++UQ59RkQSV1QWZgFxg0h4tXrAbSchZNqvvDi+PhBS1fgFCIIEOkIJ5EUE4hIAjfYjfrEBfUP/980gwXGbEPLPFE0MYVxrinuXrqqe6lNC6vWZ0c9DqjqpSjp3T0oIfe9xEp5Mb36yPd30PiAf215DSRyeC9NawNrqf+E7lhgAzVha0EmI6i/K1KmxCG0Gg9o8XqVqNR/VoWW8ocXnKYNBxGvNhGHx5el5tAAuEqyAqlR3yS7MULRyihtGdQogcAhyNcyXFsAKRt2HDF03iFIXcBb2jdjBnam3C6gGERKzptJaVqxrJQpBrPGRRYK/FSp8UYlrRkj2qPSEFsPk6FTpgsUf4uMgUQQRO0UWZZm0RLBmCU2YhUkLgFLmVOVoWOZb2q5ZK3mkYVYRtfeM8FBl1A8IDF4HQvd9dZXSYefHq4h3VaNPyF9xUbEU0V3y0VVLE6YqIdl7nEwnsn4EgJDIUVebphvEkTNAqQBE3AReGIxH28HFZCMoB9Drjvtz/Qh2crhcldiR6GXK2/NWWADyX+oPY0DAPJRvWDUi4sC3qaV/6xUGxczOT5+A2QNISMO/taNx1AqDiki8l1N5GGQJ+F8MDy1rqiIs0FGbiAA9MUDoJYcS7Kun52AQv+gHiNVg61pEi+824TaiHH3HRGqpX0VsBpasJnSBADl5B1eiGxBaWW8EC5E/CawjZQoxhrfZ7XJt1SCsRx7qX2UMFzRKKKD8VcwFIZe6GK+aPYwIZoCKusyBKuQomFuQMqAXelVt5LCkh8baxbwrC0Cym4vCyy2VUxiug/xDjwUUbaiv9R8wAMoJZ1zU9UXZgi6EsSBjpMncQ+slmWHBp5lrRy16Bu2XF38Hr4a6MvDwgHOFuE4MqTw+sw8bwqGIVxIrqeZRz6PjVV3CwaidFF4BTpmkUVCSeYC6hq7yKIWkygRvaYg42eOWQISFVgEoan9AUZsj6UBHRpggDcS9um4AfBkpjFguCH/iXT2YUZiVPkxiAJcKxEJ4DoQdQ0TA0bVpZZVZUt0abeBNzSJMEIZyh5lVjgDcQPWrHm9kQhKK9pgODowpsesa8foAazzA6mizOTc4GVUVCtcsStgy1sMi1vZ6+bDXyPCwM8NUs5TuCB7JTgk7NYtFcgq4aXgmbET7M15WMBGbBy0avl4dXP6tEqO8UTQOJaR2uXhwehzERPngAMMZNcTqMgN7XqjNLbxF7ac05ihcRmIyC54DT+IYMKI/EdYoQpCSeC0NRjB4pghoCWzoEKZRfW77X40xXNyqVbq1ybxHZ7AXcKOFQ3hBPRel4KEZqMrwEQSoW2ahqKA/sUZbSYkjyLH+pd/TvYZPtMZ8vTcBW48sS1tdQlk2jZhQ25/Ue6taPCc16tfFbyI8UycoHO/AKPzA4kpLn/qHaLokaMd1Qom3H4VGJKSUMrd6LT3eKlnI53ZYGMwFujpOiwfEQKkfJZg6a7C3r8ctVFyn9i4ctYLeAI6hhjCO6A+snMgAjXYOwbyHy2hyPlW05Dm6LKwnDhoXi89UOQRawqkqLrgr9DLaGOBWH/QDZWUMUFJcATz2GFok7gAx14K0grtzkH6BOSSQ+c41A8Cq6BzURa9IVK5NdSHp4lRdRGesoz4GLZpAD+RrfQ1zXOow9IipP7jIFitlhophq+IW1ztl5yBgfXN4HK2pVqRJb+Eth04OFRV9TPBUqz+zCSRp587yC3OAC40E9N5/Ksu7136EMa2vkYzUJqUAYXLp6x78epFg9/BTu1DpgrgKr9XxW6xVj6yr0p4nBOx0/Dw2NHpQAxcpDKa8QgTw+TpYd4pCyvGKDBMFy2lNlbOYULWq0kd1PWlVAVES1Apz1cEJtONl1YEoiU6cq/QAq0HSOWrlDl8/I36rLHIN9i7xLYpJne3ueeNWeVy9FqLTNJKats85LQP+XYZCLYwyfUeMiGacyzHzbWO0gFUVSdBFSlRTExpMgdNNQketcxvi5UiYogYIRkD2opAj4wtXZgcXo6HbWqpeqzQi+G4odchU+2d4NykG+eoiK5NF7AOt6pIYj47UNzIavDa1xDlKlV8DdGuCZ6MuTamjjkBiGciABCQ8edduTBsq9ZBJuuaiFkOATULjqOnX36jOgag2WCEo03X4JUQK7UHneN4jb376UOV9YHu6ehz5Q0Q71NUMlznBKZsmE2dYZU3AT6hEHUxML/RVCEDAKBJSN2bRS9yoxw3Z6BYdqRGwWPoLIjKwfACkuFqea1ry1AKlV1fTOGCmViGGED0gsUjIzrgyU31q7Qh7ahWgPTvqjPLFGaRpaiKTVGHAytNvHC8wa11D/FpbuiYPbABIsaIQNFGoXANSbgoEsmztKDLkOasEvw6InNUcAQg0e844hLlPxXFrB4Rtl9Rczvn9q7xpfRXkzAAo4lQoEVV8JykYZS0UQgJq3cFTkK2EESnb0AQpucZM5bdLDAOkXtAyie2pLXx23mozst5ei4zQVQUk5nP0/BHpi9fMB1xoio267XtJTZbtz6tUWqQCo5hWK6T0a9Nr2tj0q3WBjAA7o0NQ/CxKIsOHxlrg7dVxgHp/rz9qRtLC9f9szVOHsEbFGZkEx2PhtNEjSZom9dWahcU0JfyvavjjdSU0DOn4WfIMG7wsQNPry0tqrniNeUAqqipKIkQV34CfEbUjpanPRZ3P2hNj/TVpZI8sX9JXi9nElwQOpHtY+1txjUQdMoAkBJ4ZBj7dGB5pbUKFMCQBtOzL6Kmzp4nnW+OUA6E1g/ZnaGF2H1hZw7EbXF05OUdJOxghoBb7rOWdgZXtyg9yCF3VhcXq/XL3xSy6iNEkCfHKyDIyjGuJ2DAo7+99S1EFX9UXtppDTsKdtGVOZlc7VjDpMHRCzWgFESL2OBNtHMjcDyLBa638dS0VvpQJblsjodPkDcSOO9rAE1/pkBhn7tsC6lB9zBooByujGtRQO4UguzK8vWy1IxQoQ+sAwknckVenE7aBYataGHvM2ZHH7WDYSGAVMNWeMNXnupGNYPxVLi+tZuIlZVp6cUF7X7WSx7QwK1Odzyh3Lce/6g5s1rS6yphoxxVhHLSKrqVGKAQLpUYWWN0VrThmlYXU8gG24wgJKW6OXAzaowTJHUzmEm3JHHnVouZfKwsjuqgaQetEmnlV5uXKYtRyRQFdYkM+bLUsvDr+lPnCe8fePaIKR/uWhYHG6kjw+OoLQ3vPJgS8NWOCKEWkmiivyortp8xAYMES4b7+X66FIQfcrLi5fgpgV1r4865q5CUocAFav4ugKSply54uFdvuZky0YeOopdF4FeBwacavYualXXAN6kwVDyvO5tddkQ/yhRCvKgae1l//VPBxXrjnMWo3pzreSDCe+jqnqU9XzbJN5amM85DmTGqCMvVWPqzjxi5n1pqDik1xgwnBQZ1XmDvJ4qwGFyQCSIJ8QXWQLapQe5D6qu9Weo+JkbtMPqjkK/9CetfrhqpPqjc0LVRNq2/dMRvT03CzGFjEViUv9unlp5lGa+OY0zi/akBS17szNSmDh5xtQKGJ61PpnLjWOiKXi7E78PUEFF/DYhdUI6kS9A+34IieWnJa27zNlBMJ6bJV0ZwqS8PKNajDasR4INoNTyN6m1ZllzYE+lc5Rz/LbAIjOHittXSgt5aereJ+vg6SXtDu5B/BA1nhMABCXDYmS5IbKxTQ/QhMteLjaZfWrq6WYBkurT8TMm895EjJBayCHKpeEoEXYjljFXHLUGxFrhT8arHuZCZHR4kt0rs2VQLJpYk8Q8xcHLOojoHi8Gio+bYYd9Sv53CVMTgM7X3r/ZXhOdpZgqryqgtBpVpT61q/7ABMTtHOIfJgFZWya1o48VV5P6ztm5TiANgEgkceRr2EaUFNgcTXYnhJr2MDY2M9nQEUYgBxRFfVByzcBM5HkQ9VbQRwwoZAa/HV0/CbGHJGZUCb2sGHq1fmYh/QTflqkSRN7SVcuPuSk0zABV2d9lo8KgIdvsVDrbVdNSDUol5ERgBHjfTWgijuWbuXtT6ykTfgJPqFIfXHAYh9aVGurreXpsHgikJyLj0wANqwXMKIJcoEDu/XvAi7G0cAqSJh4riSWN++JnhfrTkzKrQ4OrikrXNNjSLyfNpSpXYqFT1wDYVfEO9QkhgJd4THF+kTP0g4go4ENW0IqSq0r6tyJeHaiXGyl/Djlh9Xn59agfTAef3ZEgTq+Do/VSspdzmR5/QtvsZwDgqzdS0o/rrvALRpe49GlPtw70ZAkZg+8dLe9Yg6VEV7Ky1o5a2taYhVPyMplLOa2qGWPjD+2pd7owOnwRThiLbQaI2Za1eH0VQtTs1zJKEnfGEmRaBhbRoClxmQ1oeVCaObolPvWH9Hwg6CgMbkNS1MIoaPuI6oQFfjClFwam5SmSXgTBjpdw9evcX3OPX24M/BDADVI1Rb+5Y+LjOnwAE78PlaiVpF7jEvVdKBLxAXlH0yHLyC+wds+u1eKaaaAcAlsDFT3x/2x7S9/GwEAwJ3g3tqfiYp0OHcYpRPBe1gEdXwEV4/sgFpsbRF8+SiPUxXW6sHktRqAsNmUQkT7zNgvqGOeMKgQujJYVzm7AS9FuIBoQkvk5XkNMDbVAmAvVFNWBod82cHyxniath32CFZOJUrqv8UgZhpx13AmAWGLI6qLh4Um2QKycnUePXpgJhwMKi7bjLtdeRNoIM5vLKqcOosQQZ4hEr4swtHAKhLNqstuES1DIHf/XXHwVsMPQGZVANw4ASDgrY5aZjWiJQSW89l0MrFt2i/tFr6s4VoCIHeMjBOMvD+18+YAtn/0zlDzhMoDZ6U2SAcEAmk0tXuDi0wYcrU+pQMC4pjgYcjaKV9x1E9CM4IP0bIq5gJ9gOQPq6kLsW5yf5VT359VtqwKh0ahgTE/aoZr79jLJX23nYhnMfQ/g10Q1JP5339T9pgtrWFLqpDS5uKotoRsbL8F+uvbbwB54jqx0JEtYuty90gKuOaKA6kImyBdWd+1T2hRnxEJ35em9+gK+ZrR5VcsN1VmZgd1yV3i7YDT1GRRE3kTKhkvEbWhnYSQu10vat7w7y2XESmEF8MFWndZqjlRHtF34IjGryPic7EE2gzn3apkrFFLX3alqpORrQvmkasdeMQeYj+QAOxgvPY4IrIH29FGZxCIOSZta5cGADcwbTXman9y0mbNbTLCsiK6g9Lkdio6sxVQVMi8EgHhgYve1KQmSR6+tEOlKv+3LAjJhL/ACyn84IDr43FsqZdpfg7N7XBXNIdCKtyC0ojZNjEM17tc7SQSw+vBZGonIrl+NoekKEAqiZdMsqpZMkdJVn9r/w2b3mrDEvONqgVC9+orsrX+mrcNX5LYYdxB+WQSgiW667cjZH5ai3itO01g++kJks1n3ENqe35LYdBaltFfdOAVJWjpYe1C3w47e1NUxsuu/bLzG8PpmobwPqr0H27SfO3820StYxSKbqziqrcDCwH1XbqZ4vEFpyftET9q3X/p/iszleszMiSep/l1ghuoAFXx3AjUfGbIKSu/0eyY2V+sSj3RsrL42i/M+ZRpf2a3sqg11YkjtZUtdeYBrXMuKbgUm/Q/cOA/5hpLbrygfAgUyV67vT1/2hfaTYksH9namjc4r67mgGz5OWsVRONABX/gwZ9G6H9lFIr2h5q8KOe5WIE0dbGgjXAJm0pciqoEdkpCKGPJcaCrFtPYuQGHoFnkGEH+IrH7+XX8CoqROuFravRnozpgvYoSNxnbb98a8EXnQSvAWzvWRLgfVO9Tu4Le32SykPpanMzzIeWXhXh4IY2tMN0I/j/Xaue1rTIWOWK1uBUNt9JW4hU9UFHH6cFa9UAMbQjpN/9euQSd9fqq7Z8nXana6UIrNeiNfo3Za2jTfnzMrwrS71UsIwKbVs7/ZDp2vId1Oeltv211QqkZVnsPdIgmxjv/O1ZCe4vzWh/Luge1CN3pprP3lBDRG09m3YyqOW1LQQteNZRZ1UpjjwP+qQU03lNQeiAsbQPuGCiKs5tljm1Fgf9I4T8q07CD5zQ4k13g5INGMEIGHkEliqTJhFIiD2BqwhtqvWqyzJrew7xurWqq+Zk7TzMe30dEpFZU1OeeqgwtB9UqP9C3cjCuVHAFzAPNbul/HEyHN+j8QJqFRIp4z02goDUIwtM5dpn6qa2+eJhlDJBLTb7qMGwqT6HNMNaq6dF7jIoYHF+EP5m8LwDurXGt4nHpHJFAq0YNm3aVyPyqzlrUVPtu6IsznWrqrBoKq2evl1gTI2bqKKiGiDsxFTgjFAfV0+Y0SNiEFYMRNVKbAReTT1aKnI29WTbVM/e4TIAAz1MQck/S0N7orf0mKaqhiXiFAG01QkLQK1R1BKjjQdJARLU+oBFxempi+Mwa2q2BgCrHvDEr7Rso+DhC/NUGFlON9TjuGQMDDSNgVHkl3lE1a3A/92XM+3jP+QO3OW/5wegl7Bw377fhaZWcy2T9O32xO7110oEaxZt4bsIDGbSRT2sgMHTjoKq/ZsknuwrdnFoTTmgiLoart6TTbjk+QqXjLyWoIL2Dx4thDiStXNX7fKxuLUMidxlxNR0qnJiWZPZilMPqoGam72t+yhxecMjYT8TCTicHqLldS3amLCmbVBNVVc0NqmjXQUwgPq9t9K9qbsBas55tK0dTei3fTcT72qbhTRQO3/HEenhP2rk0Gan1CQZ1cGkRkj15U2cmpcjs28XAnGL1uQOoOw/6kx6po68IhIQngfrpNW050urt6GooUmt2uqQ4/MAGrSAAltq/u7bzTG+LXI2PMfT5u6r5o9CtMbyduv1sv0UXXJ1WhmCe+XnVH9HREUYmODEZePPKgrkfP2rpCsf0M956aRhjxzC2wn2t8LzX+vOTt0L6hfbpG1UtQU1Tvhv5eQ/bhLOu0NmxHQOZJd2s6qtmzh6G+fUvXw9gexfJJCHXSVpNambSQCdoqHscDYY+pnTEgppatrlA2guh7EUYqjXpvQz5ycYgmps/j3A5NdKl9pyimyEto/jAoI6LdLQooVaqdyWL+UabvrKdOJje21UWnDTU9QAkvcwAzk33ViNl6QJiEfUqU8JcwK+uobr4T5xXRskAh5IaDUeaX8XMxP0uBZ1cmhfib06LubivnjRfuYg3u3a4O3VMfTEA5oSCn6Pw9DWVeOzWvxFHff3kJKpZWLVJJrWsdUWvV6SE0ZEs0Pjcin8Fj/Us3YyIWkgNSkHbTJDBB89WCq/PjDGjtxEyPslSmLM0UlqWtfzRv7UtQ7CHO0TVte61m3+3LUeEWRJnSpeA5/1WD2So+mxSwfxhfHbxsF+72j654amjA/WzkFVPlfDwkWmLqlrSr2Y2rDXQ5pOsl3tDlktAPV1N71Hq6hDAaoLTc1ParqpRY248VvvT5/+PfXtvVErlZO+wRdB9oQnYc2vULt6EAte9WTgB/ePYgLFSX+526wo0uO2CBBi4jU7vNqIymAou0a8Awddm7AXcP5tpr/fZv3lx3ylaTV2tTmHqtPQu7Z7dT3AJ7qVQlP7t/yoHNhDajVedbJJexbBw8GwMMp61g/+ryggpe+05tfeFSMWnMJKGwCX2oXVqTCLHrKkfYu9q2mh6gFjnUGKWg9fWrglmLDb15uW0wgs7SVy++atDbZXXbE1dD3uBvaDjtQCHfTwwNfcj8EblwkGZ9UlmVWP4kK2YuaVWLuk03g75NVRE/3rfz556FEG5MlSJ4qHlDCHCSONQUSZqjEO3wDfkV5JBUjHmGvjPJKPGTDwW62XYemRIFtFaRwLoJS3NtzFrEYRkKMTxVH9Q3qoEwA39MCJ/TVQbfUetEHe6OkNMNhSczvKNGr1skrDqHFQ3QYQOQBZmhpDukIQ/h3uqP4MIhJIhKGevkQ0XG0EYmK5zqnlo9b3i9mpZxn82lQo3tF2yC88neIzvvjE+f5xGHWh6CB8kKFSvETRbMWgwLUQ834KW885g+GQSE7UXbUrnpz52yXB4YofIHesn5R4p0y78c4TmjKCcSMavDp9v+spiq+jVfnpa4wCbWwj09nQfoU5fdU/QJ1Q8GopUYvsVBeWSpd7aX3NFLNcRBMsEpEQFvNKpmKztE6/nrRHRsJyUU8IUxtc38YYp1cQLr4Ft7QiIcJoWpiqKQfOW/X0taLOEqjKN6RDIG58HDKHr1vyLR9EhHnS06yu6kdY+xNI1fdAl6EtNwmY3Pgydfxv7ae50jsoSZCcQQl6nBwKhihsfzzZzf3q9ElPrJta1IcapbXsOS4xrL1LJ1eQQR3fyH7TIsqvLp+ojgXsTXH8iilZ0FiVnMSfQ73Vv6fhnBjfAyc6obwiClKrh3oiR/HaNMfo4G218QIZ7JpWBDOKXU1xSHM8XQ5q3u3PxBCqVXuP5/1jQe1fvzv7P7zh//b7d6CgB4Al7U7T4zK1iAefa/vr0j+SYagNFAkyyns0A5cPQk1hrPKfoNNGOD2yUO2Z54/2pn/pbjr/7G4CXP7q135vIsKRd/e/ADHjBgVtb7l0AAABhGlDQ1BJQ0MgcHJvZmlsZQAAeJx9kT1Iw1AUhU9TiyIVBzuIOGRodbEgKuKoVShChVArtOpg8tI/aNKQpLg4Cq4FB38Wqw4uzro6uAqC4A+Is4OToouUeF9SaBHjg8f7OO+dw333AkKjwjSraxzQdNtMJxNiNrcqdr8ihCCAGEZlZhlzkpSC7/q6R4Cfd3Ge5f/uz9Wn5i0GBETiWWaYNvEG8fSmbXDeJ46wkqwSnxOPmVQg8SPXFY/fOBddFnhmxMyk54kjxGKxg5UOZiVTI54ijqqaTvlC1mOV8xZnrVJjrTr5D8N5fWWZ67SHkcQiliBBhIIayqjARpxOnRQLabpP+PiHXL9ELoVcZTByLKAKDbLrB5/B795ahckJLymcAEIvjvMRA7p3gWbdcb6PHad5AgSfgSu97a82gJlP0uttLXoE9G8DF9dtTdkDLneAwSdDNmVX4vMXCgXg/YzGlAMGboHeNa9vrXucPgAZ6lXqBjg4BEaKlL3u8++ezr79+6bVvx9Fw3KV4PQGlwAADRppVFh0WE1MOmNvbS5hZG9iZS54bXAAAAAAADw/eHBhY2tldCBiZWdpbj0i77u/IiBpZD0iVzVNME1wQ2VoaUh6cmVTek5UY3prYzlkIj8+Cjx4OnhtcG1ldGEgeG1sbnM6eD0iYWRvYmU6bnM6bWV0YS8iIHg6eG1wdGs9IlhNUCBDb3JlIDQuNC4wLUV4aXYyIj4KIDxyZGY6UkRGIHhtbG5zOnJkZj0iaHR0cDovL3d3dy53My5vcmcvMTk5OS8wMi8yMi1yZGYtc3ludGF4LW5zIyI+CiAgPHJkZjpEZXNjcmlwdGlvbiByZGY6YWJvdXQ9IiIKICAgIHhtbG5zOnhtcE1NPSJodHRwOi8vbnMuYWRvYmUuY29tL3hhcC8xLjAvbW0vIgogICAgeG1sbnM6c3RFdnQ9Imh0dHA6Ly9ucy5hZG9iZS5jb20veGFwLzEuMC9zVHlwZS9SZXNvdXJjZUV2ZW50IyIKICAgIHhtbG5zOmRjPSJodHRwOi8vcHVybC5vcmcvZGMvZWxlbWVudHMvMS4xLyIKICAgIHhtbG5zOkdJTVA9Imh0dHA6Ly93d3cuZ2ltcC5vcmcveG1wLyIKICAgIHhtbG5zOnRpZmY9Imh0dHA6Ly9ucy5hZG9iZS5jb20vdGlmZi8xLjAvIgogICAgeG1sbnM6eG1wPSJodHRwOi8vbnMuYWRvYmUuY29tL3hhcC8xLjAvIgogICB4bXBNTTpEb2N1bWVudElEPSJnaW1wOmRvY2lkOmdpbXA6YzAyMGQ4NzctMDkzZS00YTVjLThiZDktMWUxZDU1NzkwODhhIgogICB4bXBNTTpJbnN0YW5jZUlEPSJ4bXAuaWlkOjYyODMxMjdhLTdjYjMtNDAxYy1hYTU0LTEyZjdiYjVhYmM4MyIKICAgeG1wTU06T3JpZ2luYWxEb2N1bWVudElEPSJ4bXAuZGlkOjBlYzkwYjliLWNiMDctNDE4Zi1iNDVmLWUxZmJkMWQzODkzNCIKICAgZGM6Rm9ybWF0PSJpbWFnZS9wbmciCiAgIEdJTVA6QVBJPSIyLjAiCiAgIEdJTVA6UGxhdGZvcm09IkxpbnV4IgogICBHSU1QOlRpbWVTdGFtcD0iMTcxNDY5NjY4NTc5Njk5MSIKICAgR0lNUDpWZXJzaW9uPSIyLjEwLjMwIgogICB0aWZmOk9yaWVudGF0aW9uPSIxIgogICB4bXA6Q3JlYXRvclRvb2w9IkdJTVAgMi4xMCI+CiAgIDx4bXBNTTpIaXN0b3J5PgogICAgPHJkZjpTZXE+CiAgICAgPHJkZjpsaQogICAgICBzdEV2dDphY3Rpb249InNhdmVkIgogICAgICBzdEV2dDpjaGFuZ2VkPSIvIgogICAgICBzdEV2dDppbnN0YW5jZUlEPSJ4bXAuaWlkOjFiMzcxZjY3LTY0OTItNDQyMS04Mzg4LWM3YzIxZjZjODUwYiIKICAgICAgc3RFdnQ6c29mdHdhcmVBZ2VudD0iR2ltcCAyLjEwIChMaW51eCkiCiAgICAgIHN0RXZ0OndoZW49IjIwMjQtMDUtMDJUMTk6Mzg6MDUtMDU6MDAiLz4KICAgIDwvcmRmOlNlcT4KICAgPC94bXBNTTpIaXN0b3J5PgogIDwvcmRmOkRlc2NyaXB0aW9uPgogPC9yZGY6UkRGPgo8L3g6eG1wbWV0YT4KICAgICAgICAgICAgICAgICAgICAgICAgICAgICAgICAgICAgICAgICAgICAgICAgICAgICAgICAgICAgICAgICAgICAgICAgICAgICAgICAgICAgICAgICAgICAgICAgICAgIAogICAgICAgICAgICAgICAgICAgICAgICAgICAgICAgICAgICAgICAgICAgICAgICAgICAgICAgICAgICAgICAgICAgICAgICAgICAgICAgICAgICAgICAgICAgICAgICAgICAgCiAgICAgICAgICAgICAgICAgICAgICAgICAgICAgICAgICAgICAgICAgICAgICAgICAgICAgICAgICAgICAgICAgICAgICAgICAgICAgICAgICAgICAgICAgICAgICAgICAgICAKICAgICAgICAgICAgICAgICAgICAgICAgICAgICAgICAgICAgICAgICAgICAgICAgICAgICAgICAgICAgICAgICAgICAgICAgICAgICAgICAgICAgICAgICAgICAgICAgICAgIAogICAgICAgICAgICAgICAgICAgICAgICAgICAgICAgICAgICAgICAgICAgICAgICAgICAgICAgICAgICAgICAgICAgICAgICAgICAgICAgICAgICAgICAgICAgICAgICAgICAgCiAgICAgICAgICAgICAgICAgICAgICAgICAgICAgICAgICAgICAgICAgICAgICAgICAgICAgICAgICAgICAgICAgICAgICAgICAgICAgICAgICAgICAgICAgICAgICAgICAgICAKICAgICAgICAgICAgICAgICAgICAgICAgICAgICAgICAgICAgICAgICAgICAgICAgICAgICAgICAgICAgICAgICAgICAgICAgICAgICAgICAgICAgICAgICAgICAgICAgICAgIAogICAgICAgICAgICAgICAgICAgICAgICAgICAgICAgICAgICAgICAgICAgICAgICAgICAgICAgICAgICAgICAgICAgICAgICAgICAgICAgICAgICAgICAgICAgICAgICAgICAgCiAgICAgICAgICAgICAgICAgICAgICAgICAgICAgICAgICAgICAgICAgICAgICAgICAgICAgICAgICAgICAgICAgICAgICAgICAgICAgICAgICAgICAgICAgICAgICAgICAgICAKICAgICAgICAgICAgICAgICAgICAgICAgICAgICAgICAgICAgICAgICAgICAgICAgICAgICAgICAgICAgICAgICAgICAgICAgICAgICAgICAgICAgICAgICAgICAgICAgICAgIAogICAgICAgICAgICAgICAgICAgICAgICAgICAgICAgICAgICAgICAgICAgICAgICAgICAgICAgICAgICAgICAgICAgICAgICAgICAgICAgICAgICAgICAgICAgICAgICAgICAgCiAgICAgICAgICAgICAgICAgICAgICAgICAgICAgICAgICAgICAgICAgICAgICAgICAgICAgICAgICAgICAgICAgICAgICAgICAgICAgICAgICAgICAgICAgICAgICAgICAgICAKICAgICAgICAgICAgICAgICAgICAgICAgICAgICAgICAgICAgICAgICAgICAgICAgICAgICAgICAgICAgICAgICAgICAgICAgICAgICAgICAgICAgICAgICAgICAgICAgICAgIAogICAgICAgICAgICAgICAgICAgICAgICAgICAgICAgICAgICAgICAgICAgICAgICAgICAgICAgICAgICAgICAgICAgICAgICAgICAgICAgICAgICAgICAgICAgICAgICAgICAgCiAgICAgICAgICAgICAgICAgICAgICAgICAgICAgICAgICAgICAgICAgICAgICAgICAgICAgICAgICAgICAgICAgICAgICAgICAgICAgICAgICAgICAgICAgICAgICAgICAgICAKICAgICAgICAgICAgICAgICAgICAgICAgICAgICAgICAgICAgICAgICAgICAgICAgICAgICAgICAgICAgICAgICAgICAgICAgICAgICAgICAgICAgICAgICAgICAgICAgICAgIAogICAgICAgICAgICAgICAgICAgICAgICAgICAgICAgICAgICAgICAgICAgICAgICAgICAgICAgICAgICAgICAgICAgICAgICAgICAgICAgICAgICAgICAgICAgICAgICAgICAgCiAgICAgICAgICAgICAgICAgICAgICAgICAgICAgICAgICAgICAgICAgICAgICAgICAgICAgICAgICAgICAgICAgICAgICAgICAgICAgICAgICAgICAgICAgICAgICAgICAgICAKICAgICAgICAgICAgICAgICAgICAgICAgICAgICAgICAgICAgICAgICAgICAgICAgICAgICAgICAgICAgICAgICAgICAgICAgICAgICAgICAgICAgICAgICAgICAgICAgICAgIAogICAgICAgICAgICAgICAgICAgICAgICAgICAgICAgICAgICAgICAgICAgICAgICAgICAgICAgICAgICAgICAgICAgICAgICAgICAgICAgICAgICAgICAgICAgICAgICAgICAgCiAgICAgICAgICAgICAgICAgICAgICAgICAgIAo8P3hwYWNrZXQgZW5kPSJ3Ij8+WkZRFwAAAAZiS0dEAP8A/wD/oL2nkwAAAAlwSFlzAAAPYQAAD2EBqD+naQAAAAd0SU1FB+gFAwAmBV8iZHoAACAASURBVHja7L1prGRZea757HnHHCfizCczySo8XAbXvYC7saF1GWxTxo1K+MpXpmUJq5GMZAn5Dy5bQljyH2xLjfzjykJckpZxWy0ZX7WQLd/GQrhpNSCVwZSZCnCRWVk5nnmIae+95v6x4pzMpJKqLE6WXVTtJxU6JyN2rLVjxT6x4l3r+743cM45ampqampqfswJ6yGoqampqakntJqampqamnpCq6mpqampqSe0mpqampqaekKrqampqakntJqampqamnpCq6mpqampqSe0mpqampqaekKrqampqXmpE9dDUFNTU/PS5VOf+hRf//rXWV1d5fHHH+cP/uAP+Jmf+Zl6Qqupqamp+fHhz/7sz/iLv/gLHnvsMaIo4mtf+xq/+Iu/yD//8z+zvr7+knu99ZJjTU1NzUuQ0WjEhz70IX7rt36LKIoAeMMb3sD58+f5yEc+8pJ8zfWEVlNTU/Mi4Qtf+AJ/+7d/e1/a+vu//3smkwk/93M/d8f9P//zP89f/dVf8VKsS19PaDU1NTX/xjz++OM8/PDDvP3tb+fxxx9/1mMvXbrEe9/7Xl73utfxpje9ide//vVcuHDhGcd94xvfAODcuXN33H/u3DkODg64fPnyS24c6z20mpqamn8jjo6OuHDhAtvb2zz22GPPefzXv/513vKWt/DII4/wla98hSRJ+PKXv8zDDz/MV7/6VT7xiU+cHLu/vw9Ap9O5o43j/+/s7PDggw/WCq2mpqam5vT0ej0effRRPvrRj/LOd77zWY8djUY88sgjxHHMxz72MZIkAeDNb34zjz76KBcuXOBTn/rUyfFZlt39Qz/0H/tpmr7kxrOe0Gpqamr+jQiC4OT3PM+f9diPf/zjXLt2jV/7tV97hup63/veB8CHP/xhlFIArK6uAjCdTu849vj/Z86cqSe0mpqampp/fT75yU8C8Na3vvUZj509e5YHH3yQGzdu8PnPfx6A173udQBcv379jmOvXr3K6uoqS0tL9YRWU1NTU/Ovy+7uLhcvXgTg1a9+9V2Pee1rXwvA5z73OQB+4Rd+gV6vxz/+4z/ecdxjjz3Gr//6r9+hDusJraampqbmX4Unnnji5PeNjY27HnOcKP3tb38b8Htkv/d7v8eFCxew1gI+qOTb3/42v/M7v/OSHKc6yrGmpqbmeVBVFVLKZ9wvhEAIccd9nU6HXq936j4PDg7uaPNudLtdwEcvHvOhD32INE357d/+bR588EG+9rWv8fnPf/4lF91YT2g1NTU1P8Jk1mg07vn4drvN7u7ucwZ8PBdFUZz8/sOiE4+jGmez2R33/+7v/u7L5v2plxxrampq7pFbyiy+yy16xm06nd5VzT1fbp9Ej6MYf5Dj+5vN5sv2/akntJqamprnTUAQhD9wiwiCaP64md/uD8ch+PDMMPwfvH9lZaWe0Gpqampq7sNUF0QEQQok963NV73qVSdRiZubm3c95vj+17zmNfWEVlNTU1PzfD467+V2fxgMBjz00EMAfOc737nrMceRkG9729vqCa2mpqam5h5V2LP8wxmcE4C4r32+5z3vAeCLX/ziMx7b3t7mySefZDAY8I53vKOe0Gpqampq7nVGC3/oLQhTwrBJEDy/4IyyLAFOcsZ+kPe///0sLS3x6U9/+o6oR4A///M/x1rLBz/4wecVhVlPaDU1NTUve+7vkuP+/j5f+tKXAPjyl7+M1voZxwwGA/7yL/+SyWTCBz7wgZOoxq9+9av88R//Mb/yK7/C7//+77+8v2e4l6LLW01NTc0LwHg8ptfrEYbdH1o6ylqBcxJwgGM0Gp0kPf8gxhje+MY38r3vfe+O/LGlpSXe/OY385nPfOYZz/nmN7/JRz7yES5evEiz2WQ2m/Gbv/mbfOADHzhxpq4ntJqampqae5zQFp6zFqJzDmsPn3VCq7n/urmmpqampubHnrr0VU1NTc3zJAh8YvXdsLbE2gq/5FhTT2g1NTU1L+YJjZDghyxwRWGLKGzhnEWbvXqw6gmtpqam5sWs0MIfqtBq6gmtpqam5seI+1sJpOYlNKG50EFfQ3KKNWfncNrgwpAwOt2F5pwDYQiqDDilq+txEGnA6duyDkwIsTtlU+7W8v6pXWsdGAc2Ov15OQc6hNie/ryOx71rfOHzF8t1pTQk8andgq2yhJPYj5Nzzxyv4/vu5TGHv64i69/P+9Hm833srsffdl4Bz93ms/VzP64FwMyTn59NoRkzxZgprt5De3lOaLZTwYeu4/7D9EduQyuD+u5V9OoCneX+qc6nnFWET17HLT5AHp0u6362NybaH5O8cp0oPt0H4uzKNlQxrZ8enu6PUlvUxZuYpS6t4enCiatCED69hVveIFuMTz1W8Y2C+DXL92WsXGppv+F0Y/VCXFf2p87QaJ3OH2v2zYr2hVdQvPMKabhH1WsRlwobB7gwIpuVVN0m+bhAtBvEpcDGESZNSIsS2WmRH00RzZz0Yof0b/895X96gnh5k6rfJp3MkM0GkVCExqIbKdn0zjYDbQiMwzQS8tGMqtsinxSIRkakLTiLbmZk0wLRbZONp6gsJXCOUGlUMycfF1T9Nsm0QucpgTUklUS0mzSeyIn/79ej/ud/Rv7UBBeEREKh2zn5wRiRhqSFQMcRBBBXEtFpkleKatgnnglcGMK0RfYPD2I/uE90Tp9q3IvP7MPHnn1Ci+MucdzFOYuQ1+tZ5uU2oRHjJ7O3jX70SVEqTOM66ryGs6f79mtGU2hdx7yhCd3WqdoSV7dJr+4QvTEiSk433OIbT0EQ0HrInu71SYX+x39Bnl+ldXb5dB/4oynR49/HvMGR3Yexcld3CN/o7ttY8dDp2nmxXlc6nuL6K4hf2SEyF6keXCPeG2HyFJclhDf2qM6vEj+1SXlumXT3CJ2n2H4bbu4jXrFCdPEG5doQ9//0SD/7M4i37GHPPon4iQ14eotqY5HocEokFXKxR3Rth+qBNeLLm5RnlwlKQSg1ZtgleWqT6oFVwqs7lCsLxNOSwFjU2pDgyhbigTWCy5tUCx0CY0mmJWJ1QHxlG/GTG9gbe8hBl0Bp3MGY6swS2Wdi3D+8DvWzNyh/aYKLQtLDCWpjkeSJS1QLDdzuCNXKcUFANimQZ5cIt8dUr3olyc09bBLD/iLZP23gfm4MP61ON+7fOqhnjXpCq6mpud8E1pLsjYg6hnTrgKSS2FJgo4hEatKtA2JtyHaOSEtBLDW6kqSlwNzcJ5aabG9EWuXgHOnRjHhFo27uk1YSu31IXEkiYwmsI1a+n1j5NkNjCI1FKU2kDen2IYlU5PtjIqUJrIPNfRKh0Df9Tw4nBNYRaYPbOSTWhvjmPtmsIjCWwFrSSmK2DghnbT/5Tabk1zdxASRCQzEjnkxJrSKdK0iCgEQq9NYhibAkm/tkhcCFEnc4vf9j/yxRjjX/dtTvSE3Njyk2DNFrQ3QSoc6tUPZalEt9xPoQmSWocyuoNEaeWaJqNygHHdTZZUQzxz6wisoSxNoQ0WxAECCHHWSeYh9YRTRz1NllqkGXqtNEbCyi0hh1bgWZxoiNRcrFHmW/jTq34s/h7DIyT6lWB5S9FlW3iXnFCrKR+TYbGeVSn3LYRbRy5MYSKomwD6z5PtaHVCsDRCNDnV3GOIMLAlRoqToZotegSgLMcgcVhai1AaKRUg06lIMOopHizi0jmynm/CpVp0HZbyOWevd/QnuGuefdbzW1QqupqbmXb6PWEm4fErcM0Y1d0kJgC4GNQhKpkDd2SaQm3vQKKJYKVXqFpq/ukEhFunNIWibgHMnhhGRJIq/uzFXcHkkpiYyBLUciNdG8zWTrgEgbQm2QShMrQ3Rzz6urnUNiqQmcQ1zfJa0k6uoOWSUJ9sdgLYkyuM19EmUQ13bIZiWh8CotKwXmyk0i0/IqVBmygzEuCEgqRXVzn0Qb4u0jslLeUmhCoW/skZYadW2HbFriwhC3n71gE9rdUPoIpUfUVQXrCa2mpuZ5KDS7soAW29gzS1RbB9hGBnlKLBRmYwk1q9BrQ9jcRzczWOggrhk4t4yalsiVBYJmgzwIUAsdXJbCuWWkUJj1Rez+mLCS6JUFVClO2lSrA1RREQqFW15AT0vM+iKyksjlBfR4Rmgs9swSUig4t4yoJGLYJTAWOynQ60NUUeHOLlM9vYUJJGhLMBGYVhcThURhiEoixKALUYg9nMLGImpaoVb6BJsHqE4TFwS4kX9M3jjAnl1GXN3GJjGB6XK/DVW889ndJ7Q0HpDGA5wzzKpL9YVaT2g1NTXPqdCMJb22S9LXpE9tkgiFGc188EQlsZc3SYXCXNkiFQpbVOjRjKwUVN+/QSoU7tou6SQicI50d0SyKLHfv0E+KwkubxIr7ffJhPRtzdt0V7cJ53trelaRSE12eZOslHBjj1gbcA4pFNmswn3/BnlR+b0154i1IbyyTSo1+uIN8tEYpYRXZFLDtV1iveH/LzTN7UOv0JRGXN4iUZr8uleEidA4INGa6vImmQJ78QZZJbFBgNtJXgCFFhEEUX0Rvtj+JuohqKn5MVVoUYg8u4RKY8SDa8wGHcq1IdW5FWSeIh9cQ2YJ1StWKTtNZos9xANrlO0G+qfOIPOU8uwSVaeFCwLkUg+Rp+ifOkPVaiAeXGc27FF0W1SvWEVmyR1tFqsDimEX+eDa/BzWEY2UcmOR2aBD0WuhfmID0cp9m82ccm1IsbxAqStkO0IVE3Q/pQgM5dqAYqWPaKSIs8voOMKFISqLKVYWKNeHFJ0m6oFVVBIjzi5RtXJmi12K5R5VM0M/uIZoZaif2KDoNimGXapTplvcfUKr99BqhVZTU3P/vo1aS3S8h3Z9voc2q27toV2f73fd3CMrBLFU6FKSFYLyyjaJkKRbB6TFnXto6so2aSmw13fnUY4GcXOPRGrEvE11c8/voRmLlIpYGeL5fpndPjxRYuKqb0tf2fZ7aHsjAmuJSwlbhyTaUN3YIy8lctc/lgqF2TogMqt330O7sef30DYP/B6a9onX6azCXN4irW7fQxO4/bS+WGqFVlNT86JWaGGIWVlAJ5HfQ+u1qIZd5OoAlSZ+vyuN0euLiFZO1W+jNxYRzQx3bhmVJsjVAXIe5agWOshsHinYyPyx/TZVq4FaG6LS+KRNtTakGnap+m3MxhI6idAbi8g8RawsUPVaiHYDe24FiYYGyHKCQCCcQDZS9OoCKo5wG4tUzRy53EcMe8gsQa8uYKLQK7T5Hppc7CFaud9DiyPU6oJXcwttqoUOMg5huYuMQ7+H1m5Q9dvI4f33Igvv8V9NrdBqamruUaHFN/eIO5r46S2fhxZF2CgkFQp9Zcvno13b8dGHpUBPS/JZRfmU3wuzN/dJp7HPQ9sbkyxK9FObZEWFu7pNMs/zkkp7tXdli1RqzPVdQmMJrUUVFbHUJFe3SUuJ29yfKzSQlzfJpiX2iiQrhd93c87ntt3YJVEaeWWbvBAo7XPX0kpib+4T6bWTPbV8dwQBJJVCPLVJWkn0tV2yUnq1FwT+9V/bI5UWc3mTrBDYsMLtvhB7aD98SbGSewi1V0c51gqtpqbmXnFhiFpeQCcxamOJqusVmlhZ8Pln64voJEKsDhDNzKuVtaFXX2eXkWlMtdxHNjKfh7bQ9urorFdoan2RstdCtHLE6sDnms0VmlgdUA06VN0WamPJn8P6os9tQyJkgZAzdO6QIej1oc9RW2hT9lrIPEEs9dFRiF4fUjUzqmGPcq4S5XIfG4e4MEDHke9rsYtIAtSwjXYW2W8iQ6iaKVUzQWQJem3B5+Cd8ftrVbeFGHResAntbrdGtky//Wr67X9XX6S1QqupqbmnD1XrCEYzotwQHIxJSoFRGlfFfn/rcEKkDdFoRiwUgQPtHLFUyP2Rr9IxmhGpJjhHNC2JtSHYH/ljDsYkhSDSBnM0JdK+n0gboqMpkdI+D+0gIDK3HovL0vcH2MMpsdKIwymx1JhpReAssTTocUFkLRxOSaTGTgpCY327oxmBbs4jIi3xpIAgJBYafTTzOXijglgZXFHhgoBYGeThbP4axiRCYZXGTssXYPQjgueodFzrs1qh1dTU3LNCC3DdJiaKsAsdVJ6i2w10t4mJI2y/jYkiTLeJzhJUM8P02+g0wQ26mDhCd1uYxFftN+0GOgpxgy46ibH9NrqZobME02vd1maI6bVQrRwzHYGYYkdHOFVix4foVo7KUt9Gp4mOIui10EmMbuXoZo5OI0yngQlD6DfRSeT7bzcwSYzttsD6cHxjDSYKMDHoJML1Wj4Hr9vwqrGRoRsZJomg78/TDTqoLEE1MswpC0E/X4VWRzm+zBVaYC2jp7dQT2yd6ttqu5KYm3vsj2enm+WlJpeK6tJN9tPTDVE8LUlLweR7V3Hh6YrbNo58Tbr9Jy6f+pt9PVY/3mOV7iReoY0LotyrsaSSGG1wQnmFdjQlMoZoXDxToR2rqfEPKDRjCQ7GPv/saEp8rNBGs9vatESjGZHSRJXEjQoiYwnHMyJtiWfVvD+HGXnFJI68UjOz2xTapDxRaLFUmGl5S6GNZwQ2IXAQWUN8rMKkRo/mCm1ceoVWClwQECkDR7O5kpzcUmizitBYxpduovXp6jomhVdlz5ZYfXLtYKl5OS45uhDSGPIfPbzWGYsLAl9dOz9dmK4F31Z6H9qqpP8mnSVwSj8tG82XOE55TvVYPf+x4qhLfsUQWhD9Fo29EeXyAo2dQ0Sr4UPRhUL2WrT2RszWhqT7I2S7QWAc2bSgGvRhF6LREk2xh+i0cFFAOq0Qgw7trQNmiz2yoykqT32gQ1FRzfspl/pkBxNsHGIPelCkxN9bIwgD4mGPcFbi4hgXhwRHU+Jhj2C/S9RvE8wqwjgiamQwmhENuwS7HcJui/CpDrgQm8TYIMCmCTYMcWmClZrAWlwa45yBgz2CgxEEEic1LgqxaQQ4XBQCDhtHWG0IrcMmsX9Pj9uOQgILNrT+scC/3845nJI4Y0FK0BkuAFwAV88QNnMIQ4JKEnUacDAh6rVgUhFmMQ4IhCLqtwhmkqg4Q3A0I4wDGPmxCjdb9HaPmC0vEE9mmCTBJRHN/THF8gKtnUNmwy7ppMAkMaaZkx1OqJb6tLYOKBbamMM6BaCe0J7rW3CR0k1X4ZU/ejSSlAq5fYhb6jM8pSXKdDRF7xyRnV2mfUqbj4Or26hS0n1gjeSUligH0xKCgOErN07VTj1Wz2+s1BOS9n/5jwTG+mjALCGqJHEjJSolcRwROAiMIc0S4lLSbmaEQpEmETiIlCbOEuKRoXd1BXd+h7gVQAChmj+vELQbqX9eHOGAUBuS437ylEAoCAPcLCP83hLt/22JEEMchQR2bikZBD46MAx9JGQYEswj7tz8sTwKfSX7MCTQEJQpgUj9JJLOJ6E0xs1D520c+Yk9Dv0kFEc447DOQRz7580nLRdHfqLDQhpjwwCOJ7Y4AhPgQoNLjtv0CdQujk6+ILk4giojKDKSv/sFks/6PanAOfIwILSOOAx8Rf/bDD7TMCCwkCaRfwxwLiCcJrT+a0IU/zTtZkYgtV8FCAMioWjnqX/f8pRQ6ZNzDYXy418I2lkCO8cGn89dKSSod9FepgoNQNbrzTUvTkIREziH/M+P4xbHyH6bfH9EudSnsXuEbOY+eEEoRLdJa3/MdGWB7HCCbOW3KbQu7S81if/3FfQvfZvifxj7xYlZhVjo0N72CiEbzbxCA9JS+H52DikX+2RHU2wUED65QfLUmyj+12+QLl+hGHSJZ5VXR3FEYzSlHHRpHowp5gaaNgkxeUY6LhCDDs3dI8pei+zbXfL/83/EZYLQAUIRTiaEVhDNKr/UKGeEhyOCofczC5Qh1JpQW4J5iH4gFaFzhFIRzu9DKELrQPqfgTKEzhKWFeEkIqwqgvGUQErCOJhbyDgCpSEXuKZA/co/IP7dnl9yrCSy06C5P6HsNshmFTqNgYBYKKpek8ZMUjxwjnRc4KKA4PIKzU+9jvI/fZds7SKzpT7JXIXZJKJ5MKFY6tPaPfIKbVxgksgrtKMp1WLvRKGp/96D73GPeWb1Z9rLd0KrqXmR4vABGGq9gLUpeiXBXJtgXtHEZBN03xEYQ1AI9FKEzUaYV7YwN6foBQi0ITmcotcz3Hd8VQszLNAPFrgwJBxNMWsZNhqhz2bEOxN02yc7R+MZ5lwTk00xZxvorQk2jggnEkKH+pkJ0dp15PlV7MEYm6XYNCbd3Eee02RXtpEbiwR7Ix840W0Sbu57y5enbqJWB0RSQ+iVlg0DaGRYHIQBFkdgrVeFzvnlwSDAJZFXZ+j5feCyxC8rJjFWGz+h5alvc/7TpRHWhCdKzgKk8+elMYG22Gi+7ByACx32FZvI12959+lJgV7qY69so1b6RAcTZHNeTX9WodcG6P0p6vVtgq0DP1bNHEKHWVfYtRH6fAMOZidjZZtj9LkGNh2jN1Kivcl8rALizTHmXAMTjzGrMWaQzxXacwd91H5p9YRWU/OiI8AvCyaVhEpi90YkUqH2RiRK4yaF30NTBnM4ITKWeG9EIiTuaOrNMaUiOZgQ2AX/f2O8ggjwicR7IyJjffkpocD5pbRYaqLdo1v9VdJ/sM8qAiCeFETLlvhg7EtfSY2NQh/wse8DP47bDI1Fa0MiNXrPh+0nR1Ni2QJriXf2SLqHxE6RzEqM1SfPc6MZkTHE80CTZDQjsm6+DDslNI74yAeApBMfTh84hz2ckBQVanufpChxRs/HQ2PHBZFxRIcTX5B4XBBYR6IMajQjMH0C6witIR3NTgw+zd6Rf13jgrhScGLwqVH7E2Kh/fi/AGPlVHt+TfzwsP2ZuM5MXK8Tq+sJrabmxanQbBojWw1cqzqxRLFnlpCVpBp05s7KBWp1gC78MeLKNmqxR6ANwe4Rem2AjQOv9pIYMez6/aP9MWZjET0p0GtD5PVdZK8FQYA7nODOLiMr6du8vouNI6Jey4e0D7o+5H19EbF9iGmk3j6mkpj1IWpWolYHsHWAaea4hTZSG+yZJW8fs7xA2MjJAZ3HBFZDv4E6GqOX+j66USj0sIMWCrO8gColarGLqhShVD7MvxCYlT5KKOSgi56V3iZmpY+cznDLfWQpEd2mv39WoRa76FLiVgeIm/vohTZoQ3A4xSzNE6ujEB1HiH7L28eMZtiVPnomUEtdAm1Q7YZXiOMCt7qA2jp6wcZKZ+l8MfGHLzl2snN0snNYp7k5+n/rP6B6QqupeXEptEBp0qKCWeUNJoVC3djzKuBw6hWa1NidQ69Obu774/c4Kbirtw4I9cJchWjSecHdtJLYzQNvkrl9QFJJAucDPNJKom/s+f5ueqNOG4YEk5lXjgdj4gVDuLlPVghMJX1xYqWRW77NZOeIrBRopdFC3mpTKtKrN0hGDpwjnpbenmXr0Jtl7o1IKuUNPg/wofz7YxJjiQ8mRMoQWos01tvB7HrFqvduM/i0hlQo1PYRqVQwKvx+o9TYg4lPgt7xRp0BfhyTSqJ2DglVg8D4cfUKzY9VtT0iVpp4d0w6Tw8ASEqB2twnERrxAoxVsnuEE/nL4pp/6qmn+KM/+iPe/e538653vaue0GpqXkoKzaUJspXj2g3s+hBVSdyZJVQpkIMOaIOdlpiVAXpa4jYWkdqgFnugNKE5wqwNsTEnCk0OexCFuIMxbmMRPZqiVwZIvYvqtiAM4GDi+ykq3MYi4toONomJOl512KFXHXZ9EbHtDT5dlqAqiVkboicFamUBthymmeEWOki149ucFOjUEuGX7HS3SZDGsLbgFehSH3E0JZIKPeyiK4Vd7nvT0GEXXUlCqXGDDrqQmKWeV2+9ps83Mxa72EOWElYXkJVE9FsE2mAL4duYCdxKH2GMV2jKECqNHXaxYQhhgI5DZL/t9/GOZriVPnpaooddpLbIdu7HShtY6iF3xi/IWKnlBXTmI7FfqlGO1lr+5m/+hgsXLvDZz36WX/7lX64VWk3NS02hhZWkMZrhmrNbppUXb5AV1TyizxfcDa9u+yK+l26SFRWxkF6RCQVPbxGpZb88KRTNzf1bppWXbvoivFe3yUrhj8erIi7eICsE7tLNE9NKDiYEDpKtQ5KeN9d8hsHn0/NCwle3fSHi6Qx9OCYrBTx5lWw6IxAlyaxN4BzZwZRkaDBXd8krSXB91ysvY1HCFydOr++RSo3dOiTUhtAY1KwiqQTZFV+cGCWJtCXAIaUmLyXuyg55JYl2R/NkaUu4eeAV3fx5urptrG7uE+kmWEciNY2dIyAg1gZ5bZdEKPIbu6SVIq4qr9CUwV3bJbcB9rRjdZsZKhfnZqjXdwmL+YR2T4nVwY/dtR6GIb/6q79Kt9vls5/97I/f+dcfVzU1z63QbJ5S9FuU/Tb6J89QtXLMT5+lauYUc9PKqt1AnPdGmPonNyh6LcqzyxTrQ1/g94E1dOLzrVSWUmwsUp5doug20T+5gUxjxPm5GefyArPVAVXLm3GKVo76yTMUvRbFsItY7OICUOtDZBojX7nuTTXXhpRzg08xN+MU51cpuy3KQKPaMUKUuH6KFCXl+oCqleOCALHYQWQJ9sE1b+dybplioUPZaVKdmfdzbskbfG4sUiz1KLpN5PoAFYXIjQEijShXFyj6LW/GeX6FqpFiH1ylylOKpR6zYYeymSE2hqgkQp9domzllCt9iqUuVSNFbAwxUQRhgEpjyuW+b7edo88to5IQsdynaqQUC22KQYeykWJesUzVSE89VrOlPuLBdcp2A/PTZ0/MUMW8jNZL3T4min483bhrhVZTcy8KTSiycQGtGeLKFlkpKC5vkpWCYPfoZF/IzQ0wxdNb5JMSOa+YkZYCc32XSA+8QlOKbPsQF873hZ7eIlGG+MYe2awiUtrvGQmFeXprbpK5RT4t/VLc4ZQAiHYOSboGeXWHpKiw09LvCwmFujY3x8EZtAAAIABJREFU+LyxR3Y0whYFuhBklaC4tksqFWZnRFp25wafU5KBQl7bJasEduuQRGpv8LnjIzvltV2SUpDc3COa56FJqYi1Ido89Opm15fOChyIm/ukQvn+SgHWEjrny1TdPCAWCq7vkRcCaQyBdWSlxG4eEtoWWEcsDdnuIS7wxqXimiGWmnj3iKxShNpAEJBe26bYPSSzFnWKsUoLQVxJ9KzyZqiXN0/MUKnS+TXx3MWJf5TSV1/4wheYTCY88sgj9R9erdBqal4ghZYliG6TqtP0ppWNDHd+FdHIqJb6VIMuopWjNxZRSYQ7v0rVaSDXhicWLfrMEiY+Nq1MECsLyNUBVbuBfcWqVytzA85q2EMs9hDzfmQjw71ilarTpOq3UQttH7m3vHCicqp+m2qp721jAoNJLXo6QsUGYTVVv4VeGyDyDM4sItP5OTTzucFnG5UmcGYRkaeY9SFVt0nVylErC6goxCz3UFGAWvTmnlW3iVkdoOMIM7dukYvd+fMy7NoAmfk2ZZ4i+i2qbhORJ6ilLjoKYW4fI4ddxEIbkSfolf6tPbQ0QvRayH4Lkca4xY63nVnqI/KUqt/yt0LgwgAxrZ7XWKkswZxdOrHcEa2catBBn1nyZqjnV1FZ6o1T82w+WYX3dLtXHn/8cR5++GHe/va38/jjjz/rsZcuXeK9730vr3vd63jTm97E61//ei5cuFD/odYKrabmHhVaJWkczaAxQyi/P2Yv3iAvKqItn3MVaUN4dcfnQ833vZRQ3rRSSNzTW8RqyUfyCUnj5r7PrZIacemG38O5sk1aCq9cgoBEKsr5Xp29NN9LCwPc/pjAQbx5QNrR6MvHBp8zb/A5qzBVRSIV+c19b/BZSfS0Ii8F1dPzvaLNA9LC76Gl+xOSBYV5ept8WhFc2faRjdYhK+kV3fU9UmUwmwfepNM6dCF81Oa1PbJKwc4RsTJgvTFoVgjc5e079htjc2sPTV3dJSsr1Dy6M5Uaru/5osnWkVSSxu7IK9aDEWLviLQQmOmMTCiSyJfjioWi2h2TW4d5PmMlFObylt+Xu7bj1XQpTvbQqos3/D7bbXtoYRARBs+1LPfcCu3o6IgLFy6wvb3NY4899pzHf/3rX+ctb3kLjzzyCF/5yldIkoQvf/nLPPzww3z1q1/lE5/4RK3QampqnluhVd0WZbeJOreCaGTouUIrl/qUw643lNxYRKcx+vwqVbtBtTqgXPZKQp5dniu0AJUlVCsLVGtDqk4TfX4VlcZUG4uIZk652KNc7CGa+Uk/aq46yn4budDx+0LLfR8xeW6Zst+mDBUitUirEesDVBL7flo5Ra+FWB8i8hQ9VyTVSt+rwCBADjrINEafXUJkEWKpS9nKqLIYsdhBRRFibYBMIsRKn2KhTdltINa8QhNrA2QWUy32KLtNqmaGWukjsxi9voBIE8p+i7LbospSxFIPlcSojbnBZ7/p24sCxGIb6+bRlyGUQ2/wWcwqpNLIgymV0JSjgqKQFIVApDF62EGk8b2N1VKfan3RK7OzS+g0plofUrUb3mj07PLJ+yyzhGrNm5TeT3q9Ho8++igf/ehHeec73/msx45GIx555BHiOOZjH/sYSeIn1ze/+c08+uijXLhwgU996lN3POf8+fMEQfCst/Pnz9cKrabm5aTQAqVJygoKQbXj87Tktt9jsiNfDSSRCrM3ItIGtg9JS4E7nBAa61Xb7hGh6flKGUoTH04gDEmKCrN9SKR8xYpESBj7QvPxcT9CIbcPSEqBEwFMCq8cRzOiBUO4c0Q6K7GTAltEPqdtf+LNMQ+nJ9UvlDa+6sju3ODzaEos+r6A8rQi0QaxO/IVMg6nJJUk1AZ76CuEhPPcsejQG36GxiIdRFoT7Y+JhSIezbyyU5rqYOLtavbG86oqc/sYoTAHE7/XtnvkX9d8Dy1RBnU4I6yaYC1RIUi3DnxEaKWotCU2lmhWkShDgMQBibaocUGsNcE9jJUREjuL/Lnujk4qhiSVvDVWQqG2D/37dTDByuaJFgjuQy3HILgVCZnnz57j9vGPf5xr167x/ve/n07nThfu973vffzhH/4hH/7wh/mN3/iNk8nuS1/6ElrrZ58E4pfONPCieSXO+eTO+9bWqZ5/6xd3H8/ptG0Fc7VwP0vq1GN1j+eUxKhGjmtmuCWfi+WW+z4/qdcm0AamJWbYxUwK3LLPu9ILHVCaSGnMYg8beYWmkxjVb3ubHOdwS33MwQQ97PpqG50GhKEv7LvcR41nuOUFlDK+PmGnOR8niZ0c4ZZylJhhO01cGmMKgVns+uoj/RahMeg8xXabJzlmalKiey3ied1E08rQzuI6Oeoowiy0fckroTD9FmYmsAttzLTE9FvYShFI7e87nGD6TfSsRLcyXAFBFGIXOj7XbKGDnlaoTg7G4ozBdHL0pMB1G6iiQneboI33X+u3sHtjQuswe2PkzhEEoX9P2w3MTGAaGVpqZOoNSgPncJ0Gelw8c6wAe2x8utRD4iNXXZagZxVmsYcZTdGDLqE26EaG7bd9vuFyH304QS+051Y5EBIRPqdj9f31Q/vkJz8JwFvf+tZnPHb27FkefPBBnnrqKT7/+c+fqL0zZ868rL58vkj80KC4tov41lM/+geYdbRLgb2+y+Hh5HTrsFLTEArx/Rsc3gfTyqyomH7nyulNKw8mEAQcnmKcXk5jFey3GV/bPe3sSvtaRjCB/J/6uEGMauZkkxXs93Ky0QphnhJYiLQiyDPi6TrpxZx0tkycpfPqFw3sEw2i77cJJKTfG+DiEEdALHNkq0F8tE7+ZJO0iIgSP8kksoX9bk42WsV9t0FSLPr6hJebBAaSb3SIls6TPt0gLlve5iUMiIs22aUG8Tgnv5SRVB3iMMSkCVnZwn0/JxmnNL6fkT45AB2SfatPtHie5HKDbNaEJzMi2SO0jihLiIse2eWcaNYmv5TNK+NbTJoQjZtkV3KSWRfXSIm0j3KUWUo6bWMv5aTTFkGaAJZYKoI0IS76JFcapGWPKEt8BKjUuEsp4U5CYALi7fPkc3+8WFlkFhNVgmwnIROGMAr9WBmH20xItcH89x8cq4D0n3LilXXSiy3i0vvG2TAkmUVk/9IknqyTf69BUsUkUYxOY7JiBffdnHS0jvtuTnXJK6PQPXdYvnP3b0dnd3eXixcvAvDqV7/6rse89rWv5amnnuJzn/vccy5fPhdCCMAnWtcT2vPFhBC0oN/+kZuw2mD2R5hmdqp2AMx8qch0GgSN7HRtWYepJK7XOp1ppXPoSeG9n075+l4OY2UuBzT/y9tIoohIKkwjI6wkNkt8bUXrsElEXCl0w9fz01lCYBw4i0ti4lKiGynR2BBcWST+r2/xS0PHfmPHnmLBPIXWOdJjD7Jjf7IgAOcInPP+ZBKY5cSf/nmi/8udKIssDAjN3LvMWrLbPL5O+pm3ibU4F0CV0fxv/xOB+/mT/gjAEZycw0mbd/ihOZLI95cEAeiAoMjJ/9t/JAjffOIzFoeBr5jvHNn8PKNjL7L5/4/bDK0lCkNC53yb88fS+XFxGJyM1cnrmrcVhSGBMWTOHctq4jAg1CGINvFXf504uvXBmgbMnxcQGEc8F+GBm58XjvjzjTv80CgTmv/HGwj4Dyfjcbt3XHy7d5z1e3fH3nHpfPzjMMSKyXwF4F83sfqJJ544+X1j4+4ef+vr6wB8+9vfPlVff/d3f8dHP/pRAD7xiU+Qpinvfve76wntnoksrbMtWudWfuQmpFTIG3u4QZfB/TCtvLlPtjY8vWkloKclnTNLpzetPJpCEDA4xTi9XMZq9K1tr/x/41tk2SbF2pB85wgx7BJNSyKpkb0Wzd0jZqsD73e11CeQmlBrdKfpHaRXB96V2i4TTzRYUL0W2f4Isdgn2xuhmjmBtURSobotmvsjZssLpIdTVCvzE8K0pFro0P7HjPiv34T8Xx6j/PfTuSu1RPZbtHYOKYY9ktEMk6d+z6ioEIs9sr0jxLBHcjSDYoJJY/IdQ7mW0jyaUAw6xFOBSUJcFNMYTykXOjQPJxS9NsmsxMYRJktJxwVy0KaxN6bKE7J/GZJ95u0U//n/I15+mnLQJjucIXpN4kIQGItu5jTGU4qFzokXWagMgbXoRkrzcEqx0KZxVFC1MiLhoxlVp0F+NKVa6JDvj5FZ4idGqZHtnOZ4RrHQIb2xi5oJP4FUmqqV0Xp6jfif3oP62b+mOnvNK0+hUc2U5qSkaDZIticIMVdoWlPlOU0jkO/9JZKjGS4KMGlCvqMoN3JaeyOKY8fqOMHFIY2jKcViz/vDDbokk3Luh5aRHs2Qwy6NnUOqXgvxhSb89d2XHK0zOMxt36vun7o5ODg4+f0H98+O6Xa7AOzs7Jyqr3e9610/VvUbX3wTWkBNzQuCXZ3i8hHmXIaLjtDLEExKAqkwfYNLRpiNBBeOMCshodRw/FhwhN6IcfEIPXBQ+g93tdgj2dxHnREkN/bQnab3Q6skatDFbh2gzkmi7UNUz9cuTEYz9MoCbq+Bix32lbvonz3yfmiTArXUx17bQa2VRHsjVDODMCS+fhO9OiDtHqBXFoj2x1gcppFiDqeo5T5u6wC1NiAYFZg09n5keyPU6gJ26xC91CPeH2NC0M2M5GCCXu7jbh6gBx1iISGy6Ae2iM5eRK8PSLaP0MMOzCqiSvqJaX+MXu5jd45Qw64vTiwUutvEbR363LG9MbrXgnkwie43sbsj9MoCducI3coJjCX81iV0lOPCAh22iHolejkh0NYr424DNytxkcEtXUaf/xdcEGAvjSltSuwKShq4tkD1vPN1qBSy2SQ3JeqNDxHtHmGiENPIMAdj1OoAe2MPeaaCoykmTbBpTLZzhF4vsTf2UKsDwoMxOk8x7QbJ7gi1PiS7uoNe6mEvDeYfWc8MCtmrvsFO9fUX5DouiuKWQk3vHmmZZX6FZDabvWz/3usox5qXLoFfUvIhbj5Xyf+c3x/OP5DC8Nb/58fecTy+oLCbhzkThXc834UBgbvtuNvbPOnzVlu3zi/wBXfhjp8n5xDMv+U7A9bA8e9RdLJcxvy8/E/f/8kXxPk+pAvm5pzMz+e4v+Ox4QfuO24juPP4k7HiB/sL7jx2/rvD3Ta2t70+F+CMA+u8l9l8mdEFAcHtfR8rnflrIAhw1uFsgDPgTIBz88dg/vp8dOit1xKePPfOayA4OXf/voUnY3XrNYe3vZfcNl53Zyl/iMX8NbeW0J3iX0Z/fV8u5UajcfK7Uuquk5pSvv5ns9msJ7SampcaoXVEpSBMLOFo6sPNJwVxJYmMJZqVfu9nUhAaQzQrveowBjspCI1/LDKWeFZ5SxRricaFD1kf+dD1pBB+/0Yb4mnpnzeeESlNPKv8c+Z9BzY9KWQcl8InBCuNHt/WnzIk+/snBp/huPTnOy2JpCGM/GQQGUN03N/01vnZKCKy/r5IapLDMbGUBFEEVETaEk5K//xSEiq/TBYJ5YsGT0oipYnGM2KhiIzFFJLQOKKJ7y+eiZOwfTerCLX256cNcVH5cHxjMLOK6Mom4c1d4lmFSWJfhsr40P3QOsJKERuLEcq/H9YSCYndEaAddqeEdIzDB4VETs3LZylia3Ha4AJf8DiSiihwROOCWCqsMXeM//EYx/M0Bhv70l7Hj8Uz/9oBmNz5PsezCqv8MuLdajWGQQgk7FXfYU98975GI6+urt5a5p9OGQwGz1z+n04BWFlZedn+zdcTWs1Ld7kxCtG9FlEc41YHqEJglxeQB2OiSqKHPR+CvtT34e3DHqYUhELNw7hn2OUFdCH8UuK0JDDGW6gUlW9zVnlrE22wsxK96Nu0KwOkUKhh14fta4Ne6p+E7ask9s+LQjgAuzrAHE3RS32UVCfftoMswS31ULMKu9hDaeNDz5sZsdLYxR5mUmIXu8j9CTZLcGmMKiVm2PXh5r2mX/7LU2yngZIat9hDT0p0v0WU+bB33coJ4wi32ENNS8ywgxsV3uCz3/Lh7YMOpqjQ/Rbm9rD98RSz0EKVAtXNsYUkMBYzaKMsuEaKmlaoJALjcEmEbufoSuG6DaQ26Hbu7WOMw7QbGOOVmnEhVZBCEGBDgW02MEKi8wxpLXIeERo4sM0GShrsyoI354wjTCsnkhq7vIAZF9jlPnJ3dCtsv6gwS33MeIYe9rxb9XHYvlD+fR7NUMMuZh7J+2zFh5fz17KcvxbjJN88+ov7ci2/6lWvIpgr7c3NzbtOaJubmwC85jWvqSe0mpqX3IqjscTjgrijCXaOiIVC7Y1IiopIG9y+T6aN9uaGkfsjwnkelAT/7XxvRCwVyaFPEA6sQ+we+UTnHf/zjsTq/TGRNgQ7h6SVxB1MfPSc1ER7ozsSq5OjqU+sLgVm59CrgBvbpPtHBPOls1hq5L5PSpb7I5JKEoUhRmlv7bI/9rY1+xPSQvjE6jgkKUrizX1iqYiOZiRC+eAObXyS98GE2FifBC313OCz8q9xb+QNPvfnidXmOLHa+oRqqYkOJr5fY1HO+seOfEJ18s2nvHGnc7hrGXElkRNv/WJLOX/9BjOtiK0lmJTEowp5rSB0EBiN25WErIBzhNb60mFBQKoNtqyInCOuBLG0WKkhgEhbnBNEgUHvHPrE6jBAK+3Hb/fIv6e7o1uJ1bFPrI7mCfHxwV0Sq3eOvPo+mODmidX/2mH7g8GAhx56iG984xt85zvfueukdRwJ+ba3ve3luypTf+zVvFRxc4WmkxhWFlBZ4pNqO01fLHixh44j7HIfncToxR6q10a2G9jlPibxSbgqTVCDDrLVQDYz7MoAlSUnbcpeG9ltIvPUK7s4wq0s+D6GXWS/jUpjzFIfG9+WWL3QQQ06qGYOKwtYpzFpgApAdhqoThOVxrDYQ6Uxbtj1xX9bGarf8gWBh12v2Ba7yGaGbGXobgMdBph+Cx2GmIX2/Hk5ZtBBZQlu2EXHkR+fuerQrRQVhbiBP187aCNbOSpLMf02Jgqxw47vt99EtTJkI8Eu+HOxC23/ugIQxiK19So5CnHdJiqOkI0U2UhRSYRpN9BhiOs0kC5AuJTKJggZIMm8l1kQYMIQmaWoPEXGMbaRY8IQ3chRYUQVpVRRiggiTNZA2hC3MkA2MmS74cc58eNvEv9+y1YD2Wujhz10EmOX/Pumh13fT7uBWeqj8hRWFvz1Meig54nVz1aQeFd8hyfGf813x5+5r9fze97zHgC++MUvPuOx7e1tnnzySQaDAe94xztqhVZT85L7tqYN2e4R6YJCP71FXlRwdcerFuuI1Ny0cl5QOL+xR2gsobWoUp48llUStg6IlFcdUnn7GPu0/xnO7WMibQhv7Hkbkqe3yAtBJBWBwyuMaztEaunExLKxuQdzFSaUJB5PyURFVkm/jxNALA3u2g5ZpbDX98hKiQsDzKQilQp7c5+krG6ZVlrrTSvnBYQTpcm2j3whYqFOLFHctV0SIcm3D0nLvi8KfDTzxYmPiwxvHhDP9xQjqUiEIr2xR6o0ZmfkixM7h64U6dUt9M4+WaVwUhMbC9Yh9y2Z1Ni9MZn0hY4D5whuTLFJQSgV4b4gLQxW+by3zBnctPDqzToSa2mWld9Dk45SzgilJTUlqdIEgQUCEmtxkylZaNBXtk6KE5tp6c0+r+3cer8riY1Cbx8jNem1XeL5NXCrkHNJXlS4p7fmhZz3CavsOZccV7OHWM0ewjjJ10b3XgW/LEu/VP5Dkpnf//7386d/+qd8+tOf5k/+5E/uCP748z//c6y1fPCDH7wjgKRWaDU1LxFsEiNWB94K5Sc2qFoN5ANrlIvemFKcW0FlCeqBVW+ueW6FYmWBYtA9uU8+sIZopJTri95Est9GvXId0cx9m82cYnVAsdT3Bp/nlpFZgvmJ/5+9N4uxbbvL/X6jmc3qq1Y1u3Zz9rENJEIKCHLvBSSkSImIjHjgJjzwwBOPIPyCkMU7ESKKFKFIyZWivEGiCKEI3ceLFJwoIHFjY5mLcXfa3VVftdrZjTYPY1btfWzsY862ic2pUVpaq+aYY4zZjLXG/P7N9z2kng5p3zikuT+nG5aYTxwlgU8psUVOlwW6AjrbEMYaR8Q+SMfbzMc08yndsMB/8oh2kOPevEczGVLvjGmOdnvC4wOsEJijHepRQXMwo70/T8f+aD+d1/05zaik3h1jHu3TDjL8G3uYTNH2xMlRCszuBJNn+McHtIMc83A/jTUsaI92MJnEPJhjtKQ72qXem9BMh5iHe5jGYIqc1iSZmnpU0gxy3MGUNtf4wxldrmlmA5rJgE2n2cYBTSNpxZht0DTjIfVoQKM07XiElb2/Ucm0fTxkIzPackoXFVUxplEZVVlSDUoarbHTCa3W+B95SDMbUc+nNA/26QY55pP3+3t6RD2fUB/Nad9I98t+8igRRj/ur/H+DPOJoyTw+aMPMWVO++iAblj2CO3DxWP+MYnVV1dX/OVf/iUAf/VXf/UP8i/O53P++I//mM1mw2c+85lbP+vnP/95/uAP/oBf+qVf4nd/93c/1t/5O4R2V/75Pq1ZR36+JN8x2F4kMzw7T0S9zmN8QlOmF3d0x5fIPnLPdjYJbj47T9IhZ4sebUW6pyEJbvYI7QMCnz1C+44CnyEJfIbzZUqeNpbu2UXy05xcU7Qd0ifRSm19j5gMvhf/JEb8pqaoO/zT85fimq0h1F0vWmkwp9dk1pOdLynqNqGOKiHA+sVVkqs5X5E1Oy8FPncd5vg6IdCTqyTw6RwmBDLnMWcL8nWF+/tNioj0EfNCJ7Lg6y259YR1jXYJvXXXW7LzCrMw6NYQLprEmmIdVA2ZD7SbitKmCEcBFM4TtjXS9tGcXSBfdymS0QQav0WHQF5XiCoSHUQR8UHSbCwDAeIVgU9fteStwT077+/pxbcV+MyPe4HPV9Bs8/7ptwh8fqdy2v0Hzrq/+66iHL33/OzP/ixf+9rXbvPH/uIv/oIHDx7w8z//8/zZn33QbPnpT3+av/7rv+b3f//3+bmf+zmGwyFVVfF7v/d7fOYzn/mhVZq+W9Duyl35LhCaOdwBsYBP3qf7xjPcG4f4qxWyNbh7c7L2OEmpNB3mwT7ULbKziXi4anBvHGLeeUF3NEeuqxSm/sYh3VvPU59fe0q3P0M4j97UuEcH2LdfJIHP909xBztgHZwvcW8cEtdXQMRVG7q9CUiJX2zg4Rz31nES4Dy5TuTEQpKvtvBwjukM4eE+3fMLoneEYYFoW/zeGLfeEu7PaS9T5B5Fhn5+ib+3g6073MGMeAG+0DAb0R17xKN9zNvHmP0plAUFArszgkwjHu7RGYu/N8MvK1TncHuTxJB/bxf77ByTyRSR6Dyx1Dgl8fMx5mKFmQ5xrUWEQJyPqd5eY4YD4sbSllla0DOwoyHWbwiTEe2mwg6KlJvWtNjxCBMkpRAJjelBWuB1ix+NcaslZjjCrDwLPwIhGNiWRu8Qukv23zyifXqWkszHA+Sxx71xiK2f4h8f4k+vCYMCyhz9/mmaA3WLfbhPPLnGDQuYT+menMIn72Pr7oMCn/HbU1/dz3+K+/lP4WLH59f/83eco0opvvCFL/yj5vVP/uRP8id/8id3X/C7Be2ufJyKMo7i5Jp8bghff0ZZNch3j5NciA/Y1iRxx3dPUkTik1PkjWjltkkI5r0TisbA84SgiEnssqxa2q8/SwKfJ+42t8z0/hb3VhLltK259Znx7jHKa/Ah+dBOF+lH2nnM+2fJ3/X0nNy4JPAJZM7TvJf8cbz9gryzRGfxm4bc2OQLsw737ILMWMKmIUiRxDifXSY/24vLdC6VwG2SP6l97yz5yc4WZFXyoRVXa7JZh3/3hLIxiOdXvVTMBnu5SH68qiavW7xNyFPGmNCsD+S9nyy+e4kOiZfRnFXo1hHMmtI5VB0QEVSMqM2W3HvcakNuPdomVJf7AH5LFpIfLveeUV2nBOhK4rYN0Qlk2yJrTR5MQuQxItwWBWRvPU9+MyEIqyrd33eP03V45zj5G+U2+RtbQ3j3JM2FG39Z1eCW2yTw+fVnqf3zC2TVC3zy4VGO8s6jc7eg3ZW78r0qPtN093ZBrbA/+hDefoF5fIi5WqM6iz3cQb5/SveJI9Rbz2neOIS6QxpLPNhBf+MZ3Zv3EO+e0DzYS4nRPuAf7iPePcH+6EPEW8/p9qbgPNm2wT7YR7/zAvsjDwhPzrD7M7CO4Ze/hp3t41WBUhKba5rDHZACvarw9+fot09o788TtdR0RBRQrGrcm/do336BPdpJyGKUJ3RxucI83EM/Occ82sdergllBrlGPr/E3N9Fv39Oe7SLv1zjigxmI+LxFe6Nfcy7pzT3dgijgkwIup0hIde4N/bpnl5g7u9ilhXq2RluOkQut3T3dpCdo92fgHEJoU0G6JMFZm+CvFiz3AiUTcnPblRSCoeZTmC1oSuLxNfoHN1wgF5vMdMJbllRxyHEwNC1tOUILSUDKTBKUQ0SQlsvNdtsxm6zYDGY4ZzhmiQPM/Itq3JOYy7Z/ZEH+GfnCaGNSuLpNd0njtBvPaf75H3sWUJoscgQT87SHPjGM9rH9/Cn17hBAfMJ8ek59kcfor76hObhQaIkg1s/2T9UjrsvcWz+9nuaWH1X7ha0u/IxL9KnvCI9s4gXF8mPdZqEH6XzcJ4iDNXJVcqfOl8ib9Cb80kk8/T6pXCnccgQaI+vyFqDfX5B1ueaiT7XLJz10ZAvLsmrJjHth17g83yJDAMIiVUkX2yJArLO0p31uU6XK/LWIkjcfVnTYY+Tv8udL8mblI/luxShaS7XKR+trwudwUuZtt2IeF6tyZsUOWmNS/6k0wW6s2RXa7JmnvLQNg3ZnqM7X5Jvarx3yd/YOVjXqc9lReY9epPYS2QImBBR2w4ZlujGULSJ7UPGSKwacu8xVU3uPbQ9q4qP+NihXERUNYVzONfqGTd4AAAgAElEQVQiI+TB45oGYYAQkR3oje2ldiTCNuBAtw0qwCimCEjhAjTbhNSOryiqNvnQWpP8ZKd91GbvJwtNinTMrMOcXKGtR58tKOoWZSyuM+lavUjoN7tYErsPX9AeFT/No+KncbHjr9b/090X8eO4oL2uwGeM8XZ6/cCJVvb9xNc8v0QsF78H5/cxuFb0TCG7E5S6Ij7Yx9Qd/t4u4XqTCHcPZriqwR/NcdsGezBDNAbRGWLPHuLv7Sb/yd4UtemZQu7vYZuO+HA/+d52e6aQbYM73MVvG0SosesFXo3Bh5SHtj8jSAlS4LTC7CSZnLisUi7cpkl5a26BGSZmDLoOdofY9ZZwOMOcJmqrMMyTaOjetBeonNJdbQi5hiLDNR1hf4bbtridMcKtcYMcpkNs28H+BLepsbMhstAUQuDGA4RWcDDDfO0pzg4IVYssNG4ywHWOsDPCNib9/wpCq794zXZWEjYJeSmbaK38cIBxjjgcYp2nKxL1V7uIdHKA6gJtMcG7LaZIqgXSBGw5YNkMGCK5bgecVXtEIdgaWGQ7GHvJhdxlEjc0qiACl3XgIp/TuUt+/P6cziemkDAaoIzD39vFbWrC0RxzviQMcmKZY5suzYFNjTvcwZwmdYG4O8bYC+KDfey6xu7P8EUyOYrvQrFa3JkcP6YLWozUT84xX3rnI3chQmBct4SnZywvV6/3ZG8seWfZfv0Zy9eUMcmrlqLpqP7u3VsC1I9ahosNEVh+6e3X6ucH+lo91zTXlzQ3BLXfvLDdbHu17h/YNnhbIRtBdr0mm1m65xcpv+jkOrFteJ/8R9YnhGYc2dnilp/Q3CC0k2vyzuAvV4krMUa640vyzmL7PrlBaNYTexQgTlcUjUHGza0PzV2skGF4i9CK5ZaIIOss7dkioamLhNBkSHpdeWdxZ4mRxJ4tKeqOIAS+M2TWYW9Q2MWKvDH4RiTU4Tymr8uuNhStQTuP7extn9omlJg1JkU5bhsy6zFny5RrtqzIel+ZiA3a+8Q64j3ZqkaGgAwR6wM6BLK6Jfce37ZonyIWqWvyELA9QoudScjNC2LbkIWAaipK5xGxTT606PFtAzH51LIQGNqEwkLQdGZDFgMju2UQHCrRIFNHydSuGeCQLy4ptg1RSnxjyIzF9nl16uSqR2jdBxBaZj3Z2YK87lDW4VqTolmfJ4SWXyzhu0Bot9+NOxmRj+mCJgTMhnBv9yN3EZzHrSrsdITYm77W4bi6w6/rJMc+fD3RSnO5QpkkeS/0Rw+pjX0wAkA83Ems7//MrpX7qmX8P/4MclCg6w43LBDGJVZ0KVGdwQ8KdNPhyhzZ10WtkJ0lDApU3eKLDLEVyPf28GYPl10ltFK3uPmEuNyijcPtTvB1l943TXpvDdLY9HldJ3aIusVORwmthICbTxMv5H7iWDTjAcIHeO99vJwSrq7xbxxgrcP00jLSedxsSOzZ/oOUmPHgline74wJqy1ukOGaFqMTS4bMVGL8qDv8zgjrfEKeZZ5Cy6cDwrbGTQYQAj7TxFzjehTltw12MkBah8sVflxg29SXr1rMqETmmiIE7OUSKU7xB1NsjLhxSaw6lA/YUYE3FjcqMO9cs+mSSVeGgM1zplJgixznHCbLCMKngJGioN1EajFE1JFGJ4SWS4vNC7xzuLxgU0lO7Q4iBiauYZWPGXcl+1FyYUqedjtEYEBHowcc154nasKur6hE0o6bio5alxjf4famSOsSl+OgSCbE+QS/SXOVuE68l0WWFq1+Dtid8S3vpZ8OE0ny/gy3rjDTnnXmQ8rz7os8N1/6nuqh3ZUfMpPjaHfC6MH+R184jMU8OYOdMbuv0Q8k0Ur/7JzicOf1RSudx69rJvf3Xl/g83KVBD4fHrzeIvsDeq1W7yS28PrX/paBOqY63CVbV7hMEzPF8HpDfbDD6GJJtTdNfp5M4wcFxXJLd7DD8OSKendM+Te76H/znyHqiAwR2kSWKzrbozCP6FJouehSfpnobGKucP4D20SISJPapf0NMoSk+RUCwiYGDBkiwqRgCExic5c963yqc/QiJ32faUGW3kOXGEWEST486ULyC4UIXd9nl+oAZI+cbttZl9oIT4Db8USIqS7GxC7fs3XQ10nnETFJuNxEeGL6472JZAwBYX3fl0cQEcH3CC0ggk/H4NMidrNdxni7TXiPpO+L2HM23vQV+nYeGW+iIFMdRCQRHT0BgYoBFdN11NEnTkfRHz8BHdO50vMxAsT+/ojW3N5T5Xx6UOqv8atzQYaAdJ7QqwGk+5zmgPDxQxHa4+Jf8Lj4F7jY8X+t/4e7VebjuKDdlbtyU/yjjiBWuMcFYlEl0co8IwzWuDcKQi/KGa42uCLDTyPZ2Rr3qCCoNf5QEZ72aFEpgoCYa6KSxEwTlER4SciSMGTMdRKPzBQEDZHbbTHTRClStJz1CA8xz162Mx3iuoYYbtFiFAIyndBY/3+UqS9ufqYFBK1ACUIMQCAGT8wUQSazIVIQjYNcEwAyRYB0PlIQZD9OTHpeQYo0ppJEIlElPbUoIYiY6jNFfHqK2G7hYk1cDuF0lPS+brTier7JqFKf9u82dEVHVjU0k4DeRGIpCTImbTMp07tQhCgxdUbwMhE5h5ws2HR8CKJKi8Dl9YgqH2A7yaKbouqOUz9CxsDUKxZ+zKfS0k9E8H6bE5CMQ2TpS+6HFqcUAUG/LLJ2kgUZ0yAhz9KYShG0Sudzc9+yfptWhEx/YA6Q676dTPvLvu7m/qkbo5L4UCuJuDM53i1od+WuCB8QKiKcT0/xXqbPMYL16WeiR0syRIJNaAPbIwXn4cba49MTPzcIw/Xvsf9MX3fzv0vI4wPbwstjkSGCdS+PxViE6JFQiMn0GGM6vpgELG+P3b2C0GI6zxhF6tP5FPTT7yt8gEDf7pVzjhHhAkK9REU340gfiTIkkcxXrpXokVfqK51b7Fz6bNytyKYI/bXqORrp88y8B1y/ktoIQaTjCBF5gyLpz59euDPEdA/czfkmpHXzHmMv1hkFIURE6I85xvTWIzluXiGCSNc2hgBEVEyoL/nQYr9Lj+ys6+eHIPTnI9wr9/Q159WdD+1uQbsrd+XDF7NIWiTK3gToA9G6lz+KJpmGZPfSpCdNbybqTKrrf8yIMdXHiOzNhKIzt4EfshfElD2llTRJt0w6f7tNdMlMdRPOL0JMY9db5LFFVRWy0Gmf0PcZ40vToXVpQYkRafofz9iLUjcNEZF+VHuzouz1wJT3RCGSSbAx6b03owkhkhnNB0RrU199SkG08VZyRfaLsTQOtdgQ65ZY6LQI+ZBEnH0y992a3kg/+P7tNU42aYHvzYHixixIele35kWPbyQ+gO8kKguomIJCFI7tpmBRF3gTaZVGEFm1GVubIVzOwmeMnUcLjw+R81axUJI9qwlRsDQarT0xCjoLrffUXtDFQBvAiBQUUsRAFl06vn5+0F+bdN9emhw/+rzqrxUfToR7t5zdLWh35WNeohSE2QjvFGF3gvMB3zvv/aYm7k7w1xv8zhhrbBJinKWgiTif4q/WuOkInSXRSj8eJPmS+RS3qgi7EyxJndnPRvh1lfpcbPCzEaE1ifqqHyfcBIdMhiDbhKrmE9zT54iBximBHZVpgQD8dEjY1LCTxC79eADO460jTIdEIVMemZIpeVdKXAiwM8YvK8JkgGtNooGSAuUD7IwSO0ZPKRWUxA8LXGMIk0ESrZwOsT7gdTKb+a0kTAaEVYWfDHBnYIUgaIXTCsYlftviBzleKxDg8wwvJYxKjBdYVRCCQauAy3K8sYS8SOKaWU7wHhk8IS9w0WNVgcVidZYW6hgJeZEWHjkii45aFIgYqdFs5YBBNDRqgHSeVuU4AU00rERJFxNG66KglkXCtiKyFgPmsWYtSvLoqGTW1wVqNcSEjjifYFvTh+2X+KbD707wi+1rzauQyVtz4rczKb7f/Q1Pu7+5Cwq5W9DuysceoYWIXFWo0iMXG3TTpWi13pEvFhuU96jlNolWhoiLEW0sXS+uqdcVyg4hRtS2SZRVV+sk5LjYkNUpsdqvqlf6DKhVhbIpt8r048jFBuU82ckZuh8vmIasbjFLlcLiq/aWnNit64QMlhWZcUnl2jlU2yGv1wg7TDRZxqKrlihEarfcpmTkTZPC/6tExqs7S7dIUZliVaNN8keJENDeI9d1QpXLbUoYV4JgHOpqidpWqFWN3mzRmwZ8xJJSBsy2QYWAahJixQV4e0G8XmKfNZQmoqIhcx4VA94aVIhI0yFchE1CtyLEdG9iRJsOHSLbK00WJDJG6o1i6B3Ktlgjqa1ARkEePaXv6JzgcuuxXlDJhBZzPEPfYl5aYYnGEBEUwTOMDZrIKLQUeAiWKGCAZxRq8ugR15tbiRjnQxJyfeWeftR5FWwKfJJCIL+ND+1T5b/kU+W/xMaOf7f87+++1P+E5S7z7678QJUgBXE2xitFmE+xgwI7GeJmoyScOU+Cln43CVXaUZk+5xn0gp1uNsK/itCyJJLp8gw/T0KYrsiSaOWrfe6MseMBdlimbf0xeK3w0eJch7Mt6IBTAnpBSzcuscMyJU/PRimgY2eU/p8McOMBTgjCqEjeHgFeghuVL49vNsJLSZgOcVpihwVuWGAzDTvjhKqmA2ymsIXGjcokqjkd4iWE6eB2ux8P8M4TlMBbh5cSC9hBRhyXPUIb4GWP9LQiRoEJGV0ncaHECYUvCqxWWKVweY6XglAU2CjpRElLTkuGlSVegi9zvIItQ7YxZxtzajnCCEXICyoy1gwS+hKKVpV0SJZiyDoqFpQsRIFBUasS0yO0JgpWFCwpaISm0UMcgkoO6FBUMqcSSeCzVkOMUMReqNMOy4TEM53u5WvOqxuEdlfuENpduSsf/oQVAvr8Gj1x5C/6ZOiqJfZCjNmLC7T1FCdX5K1JDPB1l+ROniVi33C2IG8KiDElDt+z2GfnST7m+DLROfmA8CnRNnuRpEOK0+vkP/Ee2xmyqqJ47wX5toa2R3MRutMk1eKPkxjkTcCFch5xkRKW9ck1Zd3e+mZy4wgXK2SYIkJE20C52PbyMQ5OF+gbuZv2xv8jyKwjnC4Sqe7ZkqLpksmyMWlbnzydn68SOfGLC6JMydr5MqJDJF9uKazHO4/rHIV1hOuEVPWTNep4H0EkNwbtUxJ04R2hrsl8IHaR0EaEi0jfkLnI0NcEI+hajZGe1mWYOtC5jHFs0MFTWY0zBuMVznU0LdhoU9BGjFjTkrnIrlgxDhZFdRvAU/oteQxIImUM7PmaAAyiR7gVBYE9v2EUEzFyBMro2e0Tq7PnFz31lcBXDVlncMeX6Rq/xrzq2rJHAndBIXcI7a7clQ9FaBL3YB+Xa9wnjqh3J7T3dmkf7ichxjePsLnGvHFIOx7Q7E0xb96jHZWEH3mAKTLah/t04yEIgdmf0pU5oRfltI/v0cynNJMh3aMDbK6xb/Zinm8c0hzMaOZT7JtHuGqNK8E2Fe3hDs10RDMu8Y+SYGR4fEBXZjT7U5r5mHZY0N2fYzONf3xIMyzo5hPanTFdkWHvz/FKgRTYXNHuT+kOZ7TjEv/GPjbTmKNdukFBszummY/pCk14OKfLNf7hHs2opJkOaPcmdLnCHu1gM419MKeZDmm1pCs0Vkrs/hSrFWZvQlNkNOMB9mBKV2bEo11MgI0f0lhNRGCKgk5J/HRCozVmPKIuc7YUVHpC6zOabEqLoh2OWOshF3HCpdxj4wuu1ZxVKNnkQ7ZZySVDztUeCwou9D4XseCpGPOcEecx55mcsUFxne+yVjlXesKlGnEdNc/kDkZIApJGSC7UmAs9YSkLLvUurVBcqBkbmXOhhlyoERuZcaF32coM98n7NNMhzXxKe38PU+bYx/dee16ZG4FP8d297sodQrsrH3OEps4W6JFHPr9IFEVVmyiKjMU8T2hKH19S3AgxNiYJMT45SxRFp9fkddaLVm7IDgz2yVlCaC8u0T31lTlJpMHq+bcKfJrOJpqks0WSGrlcJ0orIu3xdSKtPb4m7ywstsmn5TycLdHWIp6dU1QtsrWIGCg6iz9fIsM4UV8ZT7Hoqa+MpT1J1FfZ+Yq8NchesTiz7nYcd3JNWXcEwS1Cc+dLssUGbQ15a/HbJB+jnUddb8icJ1vWZBcb7NbhtEIZizneUm46ilaSe4cgknUdehAw2y1Z57GuSTRXTiBiQxY8WVMhOrCtQzkYOuiCxxqFDx3OCYRPUYHDYAhmhe8CrasogmOHGhkjBZ5oN0mos12jg6N0VaK6io65W5PFPQSBMgbmoSIgKIMjuBVF9Mz9hnGw6JgQ2iB65m7JEIt8etZTX3X4qk3UYy8uEznxa8yrG4HPO4R2t6DdlbvyXSE0f28X153hHx3Qni2IN0KMnSXcCDE+2IeTq5dCjE/PiG/eS1RUR3PEcEApBHZ3Qixy4pv3MJ3FPTrAXa5QrcEfzbHt8Qf7rFvUe+8RB1NcpvBHu1jjMPtT3LZFeE+8P8c8cfBwD9NZup1hkpWpOuy9HVzVEg+mdD2FFs7D9QZ/uPOSnDhXdLvjlPi93BLvzXBVi7u3gzi+wowHIJOWFw/2MO+fEe/v0h5fp8TgQYG8XOEPd3DvvMDvDGi9J0wGkKukdL03wXYOuzvGPV3RVJpY5Litw4kBojJ0owFKJ4RmiyIlFI/HNNstbT6hcy1ae2w5IPceOxjhNw2Xco4UFpl5XD6krmvO5S42LFiJMTkGKQNtPqVuthyrXQ64YqmGyBgYh45lNkE6x3Nm7PklKzVCRs+BqLjWU6yQRCStkFzLEUFIJrFmoWbsRMOVniDcmm0fARlCwyLbYeqviG8e0T05TQn5oxJ5coV7uJ/IqF9jXt0KfPLtEdg77Rd4t/3CXZTj3YJ2Vz72CM0H8mcXZDuO4t2Tby/E+KQXYqxb3KpKQozfeJ6EGJ9dkG9U4gy8WJHtG8I3nlNWDeJVgc/uFYHPziaBT2NQywpbd2TWkz/rCYhPF6g+n8yYc8q6o3nvjLIxKLdKPjTrUdaRGYN7ekHeGFyfl5YZh3hxhfIjCOn/wcUKEGhjMZ0l6yzFswvyzqJNj9Ccp3lyRtl08PScvLXQdnglyY2DpiVznvxsReYcgcQgUlhHOFuRLSryqwq97ZCNwHWGwnva5ZrCeWJVU9iUc5dXHTIL2KsNhfNQJQRlW42vO/ACaRvoBHmoUn4aEbotKsBOt2QQHU1do+NNDtiaUXDsmysK75j5LRLIYmDqV+TBcxSvGUdL2dNkjXBgF+RxD0lgGD33fCLmzoMnd54yeo7sklF0DGJ/rUIgxCuGGPQ/JPD53knylb7GvHop8PntEdqPlf+KHyv/FTZ0/NvFf3f3pf6n/P24uwR35QcKoSmJeSP5tsyn7lPtjqmP5jRvHGLKnO6T9zFFRvfmEc1kSLU/o/vEEc14gPuxh5gio3njgHYyIgqBOZjRlTnuxx7SjgZ0n7xPvTejno5oHt9Lfd30KTua2FHPRkkwM1OYRweYMqc52qWeDaknA8zjA9phgf/EIe0gp96fUc0nNLmmO5gm/9XjA5pxSXNvl3p/RlvmtA/38CIhNKsVzd6U5nBKMy6xbx5gM0X7YE47LKjnE+q9CW2Z4R/v0w4y7BsHNLmmcpZGRrqqwWiBlRJzb0Y9Kql3R7QHU0ymMYcz2qVhtcrYdJp6UNBOxzSZxswmdEpSj4Z0WcrjqsSAymXU2Q6VyGhGE6q84NhMeB4OuOhGHMdDLtyAp3KPZ8x4ESc8V/sYKVkXM1qp+Vrc4W0/4j0/4BvssRQ5l/ke5z7jHT/mHT/kuct5K+6wDIpTPWchCs7UlAs9ZiMyTrOXPrRaKE7khBM1ZSFLTvWcVihO9Q4rmXOhRpyrMRcx44nc44oc+6MPqafDdB0f7NEN0tx53XnVjcq7L+kdQrsrd+W7fMIKAfnNPrQ6IZLMWEwfkahPkoCjNhbb+zrqp+fJ13G2+BYfmnmaohz98SVZk3xo3WlCSurFBXlV423dRzm+IvB5nqRb/NUabXof2uki+bRufGjLbYpcbA3xPEUdipMFRWMQYZ1yq259aMNXBD43ICVZa259aPpinXxoPhCF6H1niyQN8/SCsmoIjcEbR24d7nqL9gF5temjHtcEKdGNQbYWbQO5aSicS2jLewrn8duaLATybUfW+YRwbIcKga6uyEzAhCQZMwgWYSqy4NFNajc2256GCpyviT6iuwrpPDuuIo+eGMHHDXnwDM2aPDp2Y5MiF/FEv6GInl2/ZhIt0m9RRIbRMXcbsrj/LT60YXQEvyILnh2XohyTD00gomPXrZIP7dl58qEphWu6JL9z/E0+tI8wr259aCK9vuNcvnOhfXwXtBAihPBa7QVAjITwerbr2NPbxPD6fd3w04UQXquvGCMikjjrXvOYfnCvVfKhhRsf2sMD2rNrQu/rsJ3FPzzAVi32aA6n18nXsTvBPPXw+BC7bTCHu4hB+QEfGo8PMZ3FP9gnXK1RrcHd28UtlsRQ47Yr7KN9aExiwd9LsjH+cAfbWcx8gqt6ppCjXcy2gd0RZlXRlRn4QBZy3MEM1xri/V26F1e3PjThVvj9KUEmolynFWZ3BFISVoJ4tJv8O/sTzJnHjstElruOcH8Xu1gTo6etmyRMOciRIeD3J4k9ZG9Ct6yov1IRdSRsWupZDo3ATAZQNzidfGgmBOJkiDWOjR8RfM4YsFmRcuGGI84XjnU+Q9sWJT1NPsR1ghdqj/14zbYYU7WBlYnUesQj43nBLodmwVIPKYNhZSJXYcqRW3CSzbgfHQs5QBIYR8O1GjOOloWaIuOSpRyh8MhQcaUm3+JDi0LgfcNSzRg5wwvGuLhhTfKh7YiGhZ4x85bwxiHd07NEKj0eoNwV/sE+btu81ryyRVrQvity4rswx4/pghahff8M88WPLlwpQmBUt/DkjPX58vVQgnVJwPGrT1i/puRLUfcCn3/7Ds3rCHzGyHBdEYH1F996rWP6flwr9/9cUNmkshxvFnKR6I9i/37rRX9lW3xFlLN4WiJrSfF/ZujyAeVXFdrsEqQkSkneHMHfK7LqPsO/L8javZQomyvy5oD2byX59gj+Q0H+9TE4QfnvC9SLe8S/l5T1AepLGmlmqBCweUa2fkTwhqwZMPh63suhRFymyJoBxVs5eTuAIkO73oeWa/JtjvhqRt4NUTr565SP6DwjMxP8uzl5O8RmCgHobhfx9Rz95ADhIHv3HsM+yTqzEVNkZE1J+U5OZmZkUoIg5bZ9PadYabCe3Bz0idmCzAZ4X6PbexTPdEJqz9ZEIZIP7FpRWA9Xisz7JAzai392l5rSOGY2o1y/gYiK0fVDZPOfIFeaYq0pZYYOHhHASAUmIkXByB8yqjWdk1QWjJCM4x6zNmMU9zkUiixGtg4qNOOwx32TMQm7dEKmiEqgEYpJOGBuckZxjw4JRAYEHgjNkb2PjoJH5lGaNkJQxEAtNCO/yxzNiHtYEuVzQeCRydhll+L/kGTtXq9KoMiMRvydRlevN6/at0e3vpoP+zbf+XM+rgualzDYgceHHx11OI+tWrq9KXJ/9lqHY6sWX7W4+3uvLVrZXSyR50vCo4PXEvgkRtr3TlN41RsHr5Xk8r2+VuGpYvi//JfI1hDyxNAhrCMWObpucYMiCXAqmUQrrSMMC2TdEQYFojPpfHyGeLrD4N/cQ/qAVkmC5EYEU4R+2yt1kPgfb7f5gJYSYUFsS8r/7WdA+m9t5z2ZTEz3SsqULiBFSuwFciGQITDsaaZu62JES5FUqKVIAR6vLMr6pl0/jhY9418MaCGRLkJXov/dL6JUhJ7zUEuRzJ1SImIguwk48OF2HN2/38Yi9O3oPAMpIEJ289ASI0X/0FAIcUtaf/MgUb5SJ4JEuDHj938NhGdA2j8gesb7tGBIAgEJMdJz0yOIfV0k9O/uA+3kbTtJ6LUGXj7UqBjxIp1z7K+ViJEgBDoICob8p/W/5ifrQKJyTHWpnUjq1zfzI0aCkCgC5X+Tv5wfQtzOndedV77b9Ojrw7+CdwDt47qgqcDwfsnw8KMrVhtjMe8cw2TIzmv0A71o5fuSfD55fYHP1uAXW8YHO68v8Hl6nQQ+781fq5/v9bWKXQXO4/7rz9N+whKVSlyHsxHjiyXb+YRyXWOLDIQgazravRmDqxXNfEq+rohC4nLN8Bk0gxnD5YZ6d0JWG4KWBK0YrCvqnTHD5ZZ6NiLftoRM4YqcYlvTzcYMr9c0kxHFl6cU/+vPUP/6F9H3n9HMpxSrLd14mPLQLs6xg5xy29BMRwzWFe14gOxlY1yZM1hVNLMRg01NNyxSnbHYQUG5bminA8p1k84rRrR1mGFBuW2od8YU2wZXZggfyVtLMy4ZrCsaPWMQ1nRFDkqgW4sZFgzWNe1kQF51uFwBgvz0kmZUMqha2lFJ1hgCkag1eWtphznZ351TZwlBepL2WmksTZEx6CxtnqGagHESLzWFs7RZztB0NFnGYPWY8Xu/xoujP4P8bTZ6QGwdG1mQx8Tl2EnN2BvWqkQay0ko0TEgCbQyY+5bFqpk5jteuDzxKRLZypzd0LGQJbuhpRa6zzXzbGXOPHRcqpJp6GhEhhQwDpalzPmPzSE/vf2v+MLo3/KWOiEIwTBaNiJnP7Rcy4JptHRCERGU0bGUJYe0/Oe//xNk24YoJD5TlFVDMxu/9rwy//cI/jSRE39YntmdHtrHdUG7u+8/1CWJQir8UYX9j/on2+UW96BMMiRvDnCnW+wksXfI1Rb35hj3/hb3eIg8rQha4YcldneJeRQp3j/FfOo+4XJFKHNCnpEdX2LePCJ//xTz6ABxucKVOX42Qp5cYR7fI3v3GHM0R3pPkUXMT6zhzWPMp0B96Su4nQFxXRMeOszOmPx0gX24R358hbm3m6RFrMPPRhTPL7GP9slOrqbGM7oAACAASURBVOmGBbrpECFi96fok2vsgz30yTXdZJB8a43BzCfkZwvco33kxQozTTlqYrnFHs4ojq+xD+bosyVmNkrCkZsGezCj/PK72J0RclFhBzlRgBg3uMMp9nyF3Z8R3z+jfbvGa82wban8kMleRTsdo9suCVpKia4buskIeVaz1GNK3WGVwmc5sa2phyNYVTwx++zJkrEMbMYvuBbvcFHssKvWLPMxpWt5vtWs5IAHccWx3uF+XHGmJwTnqY1nIwd8Iix5Knd4EFZcDEYMYpJeuVZjjvyK52qHB27FQpYoAuNouVIjHrsVT/Scfb9hdVNna07UlJHr+AkReC6f8dXyKUEIZqHlUk34lFvwVM848FvWIicCs9BxrGf8SFxh/ovHcHp9O6/UxRLz6OC155V96u4Q2t2Cdlf+OZcbUUjpA6pJbPDKecS2SVGLVZvYzttkWpQ+ILYNyqd91I3OlOhQPu0vQ79Pn4+FS+Kasur7rFuUdUQBsVIvx/MBWXdImyL3ZOdeGS8g6g5lHcp6ZNNrpDUpqlA2BmkdygdCY5AhIuounVdnUTford9Gz9qvenZ25QOyfdlOOY9sDcKHl+OEiGhMYtbvbDK7OZ/GCRHRWpQPeOuAZL6ksagQoTVJFSCEl9fDJb03YR3aB3xvQpM3Gm5EpE8oKwaILvUl+nbaO1SfM6aDQ8mI9hZFIPOWLAay6CliYtTPg0XFQBEsIQZcDBTRIokU0aCJFNFR9AitjAYdI0UwaAJldEgCGamd6tvl+Nv/dd9O9QbKxOdoCQiyGChCqiuj7ftxREj9B4MW8fs4rz488Onr9f/L1+vP3yVW3y1od+WHHq19C3oTH9gev8NjbPxmxP7qI+439fMqYV78du37Ii/OEbEG08Ew++7PoTPpZSwU+h95/rH3q72iuBxfeb36W7dcp2PrF+EPHnyKDw9nK7qvrBGtASleGeeD169d6oTQukDTaXJjoYCmzVjZAZ3UTGzLuhnSNZLzUKK6rBfSzIll6udFk3EmCoZBkOOJwNYJLpxAe8GFFGQkn5145VhevRchgoviA6f6zfffRWhCpPWRVoIiMvjm/UQfVfjKSIFIiOl1s7l1UEtoRPy+z6vvFLb/46Of4cdHP4MJHf/7+X9796PwT1juAnHuyvfG5KgkQUlCmd+KRsZRCj0PwyKZfoqMUGQpOGQ8wKu0j880PteprZKEYZki0IYlPtf4IicMiiQtMxoQpSQMiiT3kWfEYfosxoMkflnmBJ2mdiw0Xkm46XOQp/EyRSiz223p2LM0XqbSNimIZZ6iA/MMn6l0Xv3+3JxXno7fK5n2lyKNo1U63/6cb+vKHK9Ef85ZOr4iIwiS4KSS6dyyZD6kzAhCELVOki9SJv+PTIKdQQhippP2l5QpQk9AVDoxZSiFFxInJF5pvJAEleGFxAqNE+laOTReCLzK8EiszLBCYYXCiAyPoBOprpMZRmiMUHQiI9zWCbp+uxGSTmQ4BJ3Mcch+f40l1Xkh6ER+u71Dp/37uijo+9Z0IsOKNPbNsTgkXd/W9X15xPd9Xgleinx++7+7creg3ZUfbpNja25FI29Njr35TXUW1Vmk87CpP2ByVJ1NbV81DVXJNKRag6rbZJLbNsmk1puGVGduTZr0piHVGKQLEAJysepNei0qfJPJsU1+nhuzomzT8emqRayq3jzYpQjI3uSonL81UYpbk6NLx+kcsmmRPu2TTI4W1VqUC31fEdGaFOJ/sUCdXaOsh9Yk02GXTI7aeZT1xC+f4v79U7joEN6hCcns6MKtyTHUArf0+E1EB5+OI4JwFtsqqpXGG0EWHJm3bLuMdS2pjSILDh0DIcLSCC4azdkWRAzkwZBHT2s9nbHEcGMKTCbHG9NiGU0KigkmBXwEhw6ePAaKaMhIJkcZPdpbtLfI4NE9iXEZDWX0DKJliCMTgQHJxCliMjnmwZJHQxaTWZEQkd5CCEmY07tUFzs08fs7r15BaB/2+mErVVXx27/927z55pvs7Ozwi7/4i3zta1/7vo+72Wz4yle+creg3ZUfIITWO+D9sMBnmjgdpSCF8SA9Lb+C3pgO+/fRbZ0bFOlJejwgKEWcDPFFlvobDfBSECeDlHx98wRe5oTJ8LbPoG7qUopE8BYv6RGhJA6LJPSZqYQcpSSOytRuWOBznQQvyx5VjcqEcMoMd4PeemTGuExP84M8PfFr+fKJv3+6D0WWzkEnZJAQYYHXEi8gyJRTxrAnBh6mOpdpfKExrcBZjbWCmGcJgWUKl6uE0LIMFyROFNjYI89cEwSELMMERR1KuqhxUuNVRh0UFSUtCqsynFREoIqaKkhWlHQoOplEM6ug2MQcEwWdLHBIWpnTioxWaFpRYIWgEQVGSGoyWlQS8ZQFFkkrCwySSmTUaFokFRkWQduLc7YypxEZFkkj8g8gtDRWhhGSRhZYBNuY0UTJJio2Ub+sE/L7Nq9uBD7/uS5ov/Ebv8F0OuUP//AP+c3f/E0+97nP8Qu/8Assl8vv67hf/OIX+cxnPnPnQ7srPwAwP0SEsWTGUlw3SbSys8TTa5Tz5OdJEFP4lEuUdRZ3en37ntcdURp0axLF0PkC5TzZ2SJJvjQpei+zaZt2nvxyRd4ktOU621NEXaGNo3hxdktOnFUNmfWY81WisLrekHUuBVssNmmcntYqP18kpGZcor5ynuxqQ2YdxaruBT4j8WpN1hns+ZK8M7AKiAjaeeIiUVHpqzV5lxCICDHJwFxv0OstubfktSFGT0SQW0dcbFE+kq0q9LMrQp38acIHXN2S+UBWtxTOpRwt7xE1SNuhQqRoG3Lv8X0CdWgl3nh8q3HRY4PECXDCU8bAyKbxqs7StCn4YuQ7ahHQYUsMjtxX6OgZx4DwNTmBXb+lwDP1iYBYExAxobF52CaRzdCQ49PTst9SRMvMbiijYze2iD55OoaaksCe3zIhBavIGBngmYeKLKbgljwGRq7pk6cdk7BFhcBcVAyjQ8WUoD7Csx+2DIRDfx/mVX65InaDV0yOH2K5+CH7Hn/5y1/mp37qp/id3/kdAH7lV36Fvb09PvvZz/Lnf/7n/Oqv/uq3bds0DX/6p3/6kcb13vNHf/RHXF5e3i1od+X//xKURJZ5EkG8V4JS+KsV4fE9XNVgHx3A8wvsbJyeuK83hDePMN94hn98SPvs/JaiSJxcYR8d4N56jnvjkHB2je8pitSTM9zje9hvPMM82CeeXuOHBXF3gnh6TvzEEbZ+ghEtwncUQmBnI8g18dEe3fsedzTHLbeozuL2p2TmEnd/jq1PMPNJMv0ZR5xPsO8b3NEu5vkl3d4EWXcI54j3dumeO+LDOd2Tc7rZKCXe1h32YEb23BLu7dKeXON2x+ACXG9w93ZwJ5fYSYmqWrr5OFFfLWvC4RTXXmL3J/ivndMaTQSKLBBmI8xyjRsPabZ1QhKZRi0NdTlGiw1mOMK3bfJLKgVrx1LPkaHiXO8w9ls6mWFVydSvqYsdhLvimZgyjDkRwUYPWATFsdohhCvO1YxRqCmkYyHHlM5xqWcU5oozOSaPliw6NnLEKF5zoWbkccGlGjGIBhUDCzVFBM+Z2kG7K67lAEVgiuFSTRg5xyLfRdgFSzVCRU/0FRdySociiCTw+YIRAclOrLkUM8poONdT8GvWokxBKDRcqh2m8er7Mq+6+3u38jHfLy7Hz33uc2w2G375l3/5n/x7vNls+K3f+q0PbPv0pz/NZz/7WVar1Xdsa63l13/91/9Buq8Y44fSgMUYOTg4uFvQ7soPAELzAdHaJM1xsSXKPnn62TnaevTJNcVNqLsQZK3BPTtP9GLPL76VRPbkKhEDv/j2JLLZ6TVF1eJ7Etm86XBPz8mahtBuyZrdRE68rsn2HOb4OsmJnC/J2j5c/2KF7hzq+P9j791jLsvK+s/PWvt27pf3Uvfqrm7uymCEgVaaCV6CBP6AwagD/oEgwoTIxBgkYkKCEPjheCGaDA42/NAJEYNxBI1MDFEZQzM0dqOAIE13dXXd3/u5n31Z1/lj7fetKrq6aboKf+ivVnKyz9lr77X2OWft/azvep7n+90jqTTJ3gxpQoj9PkKLtickymDHC2JtwVmqrTFpZQJpcGVgugysIMbid2eBnHh7Er5zWSJcSKy2Fw2xtcQ16nOTHC8F8aM7lOf2gq9xc0ayVHgdMEBqLWaRk1qHXuY0lEErgZWWxDp0WWALidGGKMTs44THVRKjKprW0XELhLGoSlCJktjBQufEBgZuSdMH8qhElTRjy8BMaXvDip3TdLUviwUplq6e1+KaCxIcsXchlL4W3Gx6Q98uadRh+85PA9mwnQZZmJqcuIXF2wWZt/T19ICcWHpPag1dP0e6NYR3xNaxJnMcgrbXeGY0RI3svCau4xATq2nbCVIYxM0eVzXC81X6PVty+43f+A0++9nP8u53v/sJDdojjzzCe97zHv71X/+VZrNJWZa89a1v5c1vfvMNXcOP/uiPPmZfWZYAvPjFL37Cc3u9HlEU8XM/93O87GUvu8aAee95//vfz0tf+lJOnjz5mHO//OUvc+HCBX7mZ37mlkG7Vb5fEFqCThOq9SyIVu5N8ScPYeY55ugKlbUHCM2PF4EsuFT4JyCRdSfWKTevTyJrjq5eEWIcdtH3X0AOI8x0gjq2gmimAaH1WpDGcGyFShnsoQH2KoSmFwV22EHPcvRq7xqEZvIqkBOrXdSwfUBO7A4PUXoHjg5RSlP124GialFiV3uYvMIfHqKKChMLMA5hS0wzxSQxZr2P3pqg+k2QEj3bRGcZ1XhJ4RsYJ9GNkCzsK4XvtlDG4nttysmSokywMqYdFehGi3JPMU0GxC7HyBgvIpxV7CQD1hiRZ20KVbHpGpRRgxU7YzcaYq1hknTI6yjFPRoUREziPg1tGEVd2uRk3jCJOmROsys7tFzFKLoWoQ2sZhR1aXrDFm1aviLCMZI9EsaMoj5ta5hGTSLvsF6xF3XpeM0o6iFNICcW3tLSCy6KDs/yAodg7iU7solDYnzBKOoxNBV7UYfYOqY1QpPOckG2Q17aTRpX1YWryIkPDzH7Ap83iZx4MpnwkY98hK2tLe67777vePxXvvIVXvrSl/KqV72Kf/qnfyJJEr7whS/w8pe/nPvvv5977rnnpt7bn/vc53jFK17BD/7gD37HY4fDIffccw/t9rXsSvfccw9vetObeOc73/m45/7qr/4qL33pS28ZtFvlv32J6qTTtFRweRl8aEpTnb4UUNu5LbJ6lgwQa0P58CWyZYk/femKEOMsv0aIMd0XYpwurwgxPnp9IcbGsqI8u02mNGyMSPJe4CoczUlWNPZsEOUUF3eIjUUah650kFy5tEeqDG6z9qF5jy5UEPi8uBu+1/Y0RGV6UHqHRqEozu3QKDSRniGASFvUxohEacyZDbJlgbY2IDRtYWtCYizZ1oSs1HBxL+RYlQpRWBJracyWpDqgLwBZOJyak2qD1XMy7ZDKYbVGlhCpnMhLWsWM1FlyY3FCgvX03RRnPGKR0zSOVefQriQ2hp7bI3aGoZvSNEeQ3jO0S4gMR/QeHa9Bj8lqP1nqLU1vOWontLzlqJkSE36rdh3xeESPaHnNUT8jwREBTTum5xXe7tH1mtQEFsgUR+InZM6yrkZ0vSZxAdVJrzluJmR+NaA5bzjm5ngETe9oMCJ1hnU1oY0mFiFJ2nkNbkxfGJKbNK6yoqJ8+FIQgL1G4PPmkBP3+33e8Y53AHDx4kU++clPPu6x0+mUV73qVcRxzB/+4R+SJOFa7r77bt7xjnfwm7/5m7z4xS/mDW94w025r5fLJX/2Z3/Gpz71qSd1/Ec+8pHHGDOAP/3TP+Vzn/vcE577vve9j9e//vW85CUvubHVoluP41vlRst+jo9qpOTHVilOrpP32+hnnECl8YFQYn5oSH5khbLdxDzzBFW7gXnGiSDEuNq7IsR457Fw3p1Hg3Dm0VXK2w6jGinqziDEWNZCjIVeoGNN2c6wdxymyhKKoytUrZADV632qLIEe8dhylaGOrlOPuhQJBHlahcVSdSJNVQaUx5dIV/rXSXwKVEnVlBZTHGoT95vk3ca6JPrlM0Ue/shyiwJ1z7oULQyyqMrGDxm0KCIBOWhPsVaEOpUhwfoOEIdHlA1EmZTmM0kS5mgh11UFFH2OpRpTN5qkLebzFVGHg2Zq4ylHDI1GcssY9lsMlJNtsV6iERs9lgkGefEkHNilQUJs8aAHZvxb26FyzTYi1psJ0M2bMoZVtmxMad9n20f8tzGUYeliNlKVxkRc14MuEyDbZ9yXvRYeMlGNAyCm3GfDdlhQ7Q4L4fMfcQ5OWTiEzbjHnuyySTK2EpWWMiU7WSVuUi4HHXZjNqMRcrlaMDMSx5myCWXctp3OOPazEi4GA1QIsIhKGTMVtRjM+ozkhmXolUmTvKgb3PJRTziMh52DSYi4bxcYSrSGx5Xy/UB1R1Hg8DnM08EkderBD6vyr9+wtd3KlejuEbjicVDP/zhDx8szXW73WvqfvEXfxGAd73rXWitD/afOnXqAE0+3uvUqVPX7e8d73gHv//7v/+49d9eXv3qVz++ofkOSiPtdvumRFLeQmi3yk3yoYVIsmy7wEtBWirK81sk2hJf2g3+JGODD63SmLObwT9xbpPGosDJCrssSUuFubhDoi3RvhDjssTt+zou1L6Oy7s0pnPcdBmEGAtFXiMtuzslKQbBhzZdkqwY1KW9MGPfCNGVsqgQO1MSbVCbYxJtSHZCzpp0HqVM8KFtTUgqg92bB9+Y91QbY9JSYy7vBSaOyTIwtmsD2+PahzYlKzViVPuFVGgj2psjS0VSi0d6Aam2lPMliXMki5xUWYSugv/BCMxyQWYNZrmgYQzaSox0WJMQ5TnCQJQXJM7Q1QVWBDUAUSyJnGXg57ScJsEQW43wGmWmNL1l1S5oO43wnq4rcN4y0FM63rBqZ7S8IcYj7ZwGllW7f96c2DtwnrTOR9s/fs0uyGr0JvyUttcMzYS2N3iX13llNoh/eseqm9L1gQ4s8p42hnU3J2Wtpr2yDMwi+NAwGD8h9ZZDfk7icmKxwAPGWxJXYr1H3MC4yvKKuNKYvCLLK4pzWySVIt0cXRH45N9fPuajH/0oAD/2Yz/2mLqTJ09y5513cubMGf7u7/6OV7ziFQDce++9GGOe2AjEjzUDv/u7v8vLX/7ym7IMuFwusdYSRY+vNuK9Zzab/ecxaNY4vLFP3Y9jXQiTdQ5zA+3stxV5jzP2htvyzgdZC+sw4sbaCpIX3JTvdzN/q/0oR50mVIcyiCPc7hR/22H0PMccW6W6KsrRjxdw+2FUpXG3HaY8v4VLE1y7gdywmONrmGXt69ga45sZPkuIK409sY6ZTLEupyrm2H4b+m2qjT04vopaVqi1/mN9aMdXqRYFdtAOPjTArHaD/+TwAF0q9HofXVRIpfErHUxRXvGhrQafmjA2CHyeM3B0BVVtUw1ClKPb3MNkLYyx+ONDqs0JZtAGY8Evses9ynvPUgwFfragajVClGNR4XpttJqgO03ssqDwQbSykVT4Ths1t9hui3xSMKramCghV56xGLCuRuxGq6RmiU5inIjZzQsejVY45vaYJl3KasGeSyhkk3UxZRz36WrFKO6QRwleCBZRg6mTXI56HEWzF/UoXU7DG8ZRh5Yx7EU9mk6zJbqkaBJpmUct+joIdbYYh2N9hcAxkn0Sa9mNBqR+j5FsEeHwumRLtrnTVezGfaSdMJEtIu+Qfslu1EVpWeegRZy2IRFg1Tu2ZItn+ZztqMuSB7lgp3gEhzA8RMYEibvttd/1uNJ5iTm2dsWHttKjOr+Fv/1w8KEdWTmIcuTJILCbGLe/s7PD6dNBL/IHfuAHrnvMc5/7XM6cOcNnP/vZA4N24sSJ77qvj33sYxw+fPgaxLVYLNjd3X3SaO3q8vznP5/3vve9vOc973ncYz70oQ9dN2DkP6ZB8x51dvMGBT49rWUQrVxujW8MceyLVj54nuWNaJgBjaIiKxTLr5y+sUxL72nNCxCw/OeHbtgwtpYl4ssLygfC7M3DNWKc/kDH69v2fZv+VOQc8cUWcmpIK4XfzA/y0Kozl4PP4sIOWV4SKwNCECuNe+QyWV7iHt0gW5Y4KbCzJWmhcOe2iJUhPrtJWirsLA++jkpjzm2SVJpsPg0+j0pjliWNoqI4t02qNG5rTJb3Ed6TThYkKxpzbptGoeByHenmHMpYUm0wG6Pgo9ocB2YTa9GlDqhtYxz8J7uzgzy0A7R3YZesVMhREP6MCxVQn7GojTFZqdEm+N1SZfDbExLnSGdLMmMRyzIIfBpHOVmEiMZ5TqwtInATkziHW8xpGINbLIiNo6NLjFF4l2LVlNRbutWUzBmMEEGzzMGqq9GUmSG9QVhN6Sq6XuPMmJY3HLIzui6QC/dtThkZDpkxXa8RdkLDW2I8qZ3RxHLYTutt7SfznpbXNLEcslM6XiNcQF4CT+zGdNEHbcZ2gQSUN0g3q/1ywc/WtBZJQGhH7ZSM4ENresNRgrht2ztiN6GJ5Zibsest+MA12cLzNBRDkRA/xXGVXtgOPrWiwswLsrykeORy8Ktd2kXktQ/texS2/3jlG9/4xsH748ePX/eYY8eOASGf7KmWT33qU/zlX/4lb3jDG/iLv/iLA4T16U9/mk984hNPqc23v/3tPP/5z+eBBx7gTW96Ez/8wz/McDikqiq+8Y1v8PGPf5xPfOIT3Hvvvf9JDJoQcGQITzv21JGCsehvnqc8NCRev3HRSvPQRfSJdaJ244baKrcniK0x/o4jNyTwKYDy9CW8EMinHXssye93+VuZz++R/Z8vRxgbeHQbSRDcbDeQyzIIdXqQxuIaCVFeYdtNRFnhkxi8RyqDa2ZEI4O4uE617FGup/hIYkdzzIl1TH6B6ugKXN5D9YJ8TDZZYG47TPXIJfSJdfylXVwSY9sNxNaY6vgaySOXUcfXsTsTXCMNM+lvPoLpgFnOqI6t4kdzTJbgui3E1hhzbBX96CbVWh8aKYkQdZ9ghh2qZYk6NMDMciJl0MMO8cYIdWhAcnGXarUDlUZqixu0SS8o1HqP6LKhHHaIaoRm1/tIZTBHh+iHL1IKGZK4GwlqpUuiDObICmxN0N0G7M3R/7pF2WvRSSR60CKeLSmyDITAlgrdaVFODFPaNHyOagTUVG7GLFs9OvmURbNHlBdsVm10lNCXS+ZJl43FkvPxKl2bo0SMkRGH/YxR0oXScNp3WHFLqjghlxmxnTOO+7QqzXnXZuBjrIcd3yAnZifuE5sxO1GPjiuInGEs2iRuyobokmDYqaMcMywz2aJjNLtxl4axbIs2LQJF1p7sossRZ2WHk04zEhkRng6wLdq0hWFb9hBuxliEHDXvcrZkl5HxGC/YNZ6ttIVDMKRkU3bZtl/jX5zmNl8xEhEOaBWneRAwpN/VuIou7qCPr2PKS1RHV/HbY0wzw/XbcGkXe9sh1LcuUB4eYhqPT25tvMH6K8t7ylU37RE5Go0O3n+7/2y/9Ho9ALa3t59SH/feey+ve93rqKqKz3zmM9fUvfWtb6XZbD6ldp/1rGfx0Y9+lDe+8Y387d/+7XX9ax/60Id44Qtf+J9nybHZadJcfeqGSCmNiiSi3aC/emMGbRFHuEiSDjo3LvC5LHFxRHuld+MCnxd3QAgGN/j9lNJYMw+5ST/9AKzPqbpNWuMF+UqX5miObgbF30gbqk6L9mTOYrVHNsvRzQzhHNmypBh06HyxQ/xff5I4h3iWB9RRKuxuiAyMxgtipfGLokZoBrU7DQweezOSUuG0QRhLrA3RaEZkLXI0I8lLnDbYIkh5yMmCyDiiWU5caYR16H1xzVHwc0WzPPizvCfOVeBKHM+JtUHPcpIicPu5eZCUkdNl4EecF6EP61BTiKxHzvLA/LEoiVWQiXHTJbFxVHVuWlIvK8faYhdFkHeZLkOu2bJEFIrYOlSpAhtGWRFbF9hUhCAxFltURN4TK0XiHL72e1gviFRJ4h2xLkmcpVFLuCTekdmSynvarqDpNbG3GC9JcLRcQeIdHV/S9IbYe4QLPqmWXZLg6PqSzBsE0PQahaVT55F1XEHba4QP0ZEJjq4rSL2j60oSb0mFw7mChOCDS3F0fEXTB+mayhU0cHR9TsNbuqgadVl6riTG0XM5TW8wIZWaBpauK4i8D/427+n5Co+g7Q19l2PwrHpLy3uccLj6YbYGNAHxXY4rsRf8p9F4TlKz2hjngn9tZ0psLPFkgdPtx/WhPTD9PPdN/9/vyfMxz/OD92l6/Vy4LMsOENVTKS95yUsO8s5udnnd617H05/+dN7znvfw2c9+FmMMcRzzspe9jHe9613XzYG7FRRyqzz5FUzAxxH6NoU/WmCPNtFnF9g7e+gzC6qVHsJYkmWJPtLAnJ1jn9lHX8xRqzFCW+TeEn2ihX04J5ICE8eYbhMfRcHft9rD7s2wgw6mqNDtJkiBNBa/2sNMF4GRo1RhJt3KsKXCDrvY8QK/0sNYh9/dwqcxrixwh9axsxzba2G0wWQprtvEFAqGHcx0ie0G7kgAEwtkJGHQwSwrXK+FBpwy2E4Du8hx3QZ2tsR2mjhVI7ReCzvLw3ZRYlpZENy0DtdrY0czRAQmEphOA2p9tNBmie+1UGe3qPY0OE8jkbhmii0VrpFilA6zfSEoZp7KN0iswjQSFlPJzDcDmpUVLs2Yl46zdo22WmClRMmEi/OIraTPccbkson0ni0TY0SEN4pLvsltvqSIGzSwFCImlw1Qiu24SdPlzGVGJUJqciESFBEL2aLrFDPRwHnIhCGXGcZWLKImq75kKTMSbyidZSaarPiCKQ26vuKijmnjibxjV6ac9AUz0WQoKhYyq/XXFDPZYNWWTGQTaRXnPcR4jnjLBSH4ARHysUyKDAAAIABJREFU0JQQ/H/uy1gEaxgukPK0/DSP+goPjAALHAZ2gUPwpMaVrRGaXRS4lR52ssAOOmilDxCayStY62NHM0y/c8DleL0oxrsG/xP/Y/9Hr0Fo91z84M2Z8F+FjrTW1zVq+9GNrVbr+/KZ88IXvpC/+Zu/wTnHzs4Oa2trTxgocsug3Srf1RKm0Ja4rKBU2NE8+G72ZsTa4uZ5YL9QOlBF2bqu0rjJoq4zROMF0vVqpgwTEJoMbCB2L8yIo8mCRGn88iqEVvcjRvODmbQ0NjCdj+ehv9GMOC/xyxJXyitoah+hqSDgeIDQxoswk54HpnUgIDRjYbJ4LEJblIG1fpaHNhdXEJoXVxBaZB3xogj9AW62JDaWapYTG4fNg5J1QGg1q/8sJzHBFxeENGslAueRhSK2/gChCWvRVY3QtEY6T+Y0vha0jHQZfG+uIHMGKwTSO1IELVeSeE+rRmgdZzFCBmS2j9BcWQtr+tC2t7RtTuIdXV89FqG5vEZoJe1aRFP7ioS6zRqFxS4IhzpXkHhPx5Wk3tHzFQ2CP6zrCzJvr9qqg8jFnisDsvM5TQx9b2rhTkef8hqENsRiEXS8ZxVDAqwCbYK0nANaVyO0JzGupDa4feQ/Cj7SaLIgqQVbTT3+1W5Ab/H0KoR2HR9aKmIg5p9nX+Irs/txN1Hg88iRI9cEaKysrDx2ZWmxAODw4cPfl8+cqqr44he/SFEUB0ErX/va1zh58iTD4fCWQbtVbhClSREY3q/S6nL11qYJwtrgQ0vjoGvWqHXDshRh7YH+GUKE+khi0zhE7lU6+CiEqPXAIlwSgxC4SB/04xpp0PSqz/VS4LIUdneAEmZ5iFSLI5wocEkc+CBrHbDAaB/jFhKfBcYL6yzO1kt2cUQsBT5Lgt5VEodlKO9wiQz9pUm9jQ/Qq0uTICIZB/+MS2Oc88iixNsE53xAjSJokgkXIlltmuAu7qHOTIjyMlyv83gTjlNTKHVEXAiKJMILQeodLorIlwnjqk3LVJhIghBszNqM0w5DvcClEQsdcy5PqWTMkBItIqYGdnxM5QxaRBhCu0oEfTMlIiovmVrBUkSs13UOQUWErcPxDBLrBRVXzktrCislwu+tRIz1gtxHZEAiQImYibbsSEi8oxBRMLhCYGSC8yW6Pq/ykgjPzFZsC0HiKjZlhvcmsPZTssu/cV4knMKj0ZzjNFv5I7gaiW0iWMFSADqMEnz9PgcMPO64OhiPRdA8c/V/4BtpGB9ZgsvrcdJIcfMwxkNdiq+t2BORE7+gdxcv6N1F5Ur+4NwHbsq9+pznPAchBN57NjY2rmvQNjY2AJ4Uq8e/d/mTP/kTfu3Xfo3xeMztt9/OmTNnQoxBWfLGN76R17zmNfzCL/zCDfdzK7H6v+MlR4TAy/BQ95EM0YtJBPv79rdxuOmptz6SoW7//dVtRtFB/TXHC8JDQYpr2jo4RsqDa/BxFNZzoiBwuX99IKBO0Dw4Vtb75FVtSomvh7bfV3eOoyBzE9fn1dcT6q5cX/jeAmJ5cA37v5Or+/NS1G1FVz7vT9kjGZ50db++NvZe1O+5ooa8X4e4Mt33iCvnUL+ErHWvJR4RjCiyJuQNv4tFYglLdFaIGrWENh0h/D286vciqtuSB8fZ+hxXB1lYZN2XqPEW1/R7pb9wXVbs14lQJ/bPC3X712bZf4XjbX1N+/tD39cqTtvaUNnacLmD671S5+rtlf/7sePqYMzV/zXR/hgNEjoHY3v/npDhnvAi1O0/Mf+95WNWVlZ43vOeB/C4umH7kZA//uM//n31rPnMZz7DL/3SL3H33XfzwQ9+kLW1tYO6F73oRXz605/mq1/9Kn//939/C6HdKk99yRHvD+RN0AbhPSgT9tUJxsJ5xH6dDrIrwliEdeE4bRDUDOTeh6hJKa7U1fuE8whrAzuBc1f1p8OxNkRUysuXiao5whgwFulCfqIQIjzerQMPwoTEXWkcVhlEUcE8R1QVopkg6uUeuZ9zp+2Va6rpqERNwySUQXjCZ+OQxtX7rly7XIbISGEdwrjA8GA9/NslnA3pDFaZoKO1LBGdVmgTENaj9zx66WhS/+Z4JA7vIZ+kzOYZQ2OQkWdeJEx8M4SiC03kLTMd82CZMrRhWS4SjoWGuXN0vSfGhv04vBdoC4W3FNZRuCAZE3lBJOrjfDAnkXdE9ZQkqk1mqCOIiXqHd8FsWOdxWErrWGhFhkV5x0IoVuu2pPdk0pPW4yHChPB9b1nYipFVRHi6eGIcMznlgriEQzMiwfkFjfxRFggKv4rHUqhNktp0RxDaBpL6c1wbsavrvn1cCX9lHIv9sWAsSHnlf/Y+HOtc+J91WNKmXtoWxgbrCU+oSf3l6Zf48uyfbuqSI8BrX/tavvrVr/L5z3+en/3Zn72mbmtri4ceeoiVlRV+6qd+6vvqWfM7v/M7fPzjH+d1r3sdAH/1V3/1mGN+67d+i9e+9rX85E/+5C2Edqs8RYQmRVgKjCRkYVmFLAmoKIlx+wgkDSHkXLV06JN6lpslBwjNCRmWcNJaHDML5x18jqPQZhT6Cf3Vy5hxdLCc6OstSbi2/f6ckKFfQf05LHOSJjgpgkxMvQTo95Hc/qw8jQM63G9TXt1WfNCmj2S41iSur/2q86TASQlpdIBmnRD1/ho5RRFOhH5djdxcVKO7KKCVfcTgpAzioULgZbgWJyVOSOz+C4GXcY1uorAsKCQGWSOScC1GBNNhiDD18qAhUEcZEZYVjZAY4vr9lX21clnd9pU6TRTOERJ9VVsOgRYRmrquRntahO+ikfW1CHS9tKlF6FcLia7Rnaq/g0Ki6+APhcDUy4huf/kXqOqXqbf7+3T9UlfVGbjOuAr/5cF/GkVhjCf7Yzy+MlZlOC8sU4t6rIowJqLvDLte0L+Lt5z833jjif/1u7oni6II95G7viF8y1vewvr6Op/85CeviXoE+OM//mOcc7z97W9/yuH136uyXC4PjNnjlTRND77/LYR2qzwlhCa0JSkVlAo3moXQ5r0ZiTYhxN45Em0Ds4Z1xKM5SaXws1ouRRvi8QLhhiFs3VrSefFtQSGOpHa0Uy9zxir0sx9KnZQKtjeDv8s64nmOtJ54lgfZFR38dbG1xLM8CGHOC5JKISqFKCoSbdCTEH6fLusk7jrZeT8gINEWMysC9ZWx+FlBpOs2tSWZFYGc2DmY5URFRbI7JSlKrE/rxGpwiwr51XN4cYmoVKRxEBONvcOpIFQZFxVxblCjkICeeEeiFbHwJFqReEe1HbDRdJYxFTHONJkWCdMF7Llg/Fo+Zpw7Vix0o5zMGaZGYIWjXYfPpzh6rqSNYawtAoH0lp4IofY9F8L2IxFQVAjICCH2XVeR1bCj6TWVd/RcQewMLV+QeUMScBnWWoRZ4p2lLypS4UjwSF+RCc+qr2ji6XlFw1t27IKcJVOvqaxC+ooeMRGeMadZEtH1hlUyEjsFtUuMp+Er1oC4NrUpltV6abFDiGJMCAEgnasmaC1gnRAUsj+ufBRhjA1BHfvjeDwPAp/aYCMZ6sbzUFePVekc2rqDsRoZSzJb4nTnmiXHJ0QL38WS497e3kFi8Re+8IWDsPZvX3b8+Mc/zmte8xre9ra38Ud/9EckScL999/PBz7wAV75ylfy67/+6993z5rBYPCkf4NbBu1WecoIzacxqt3Et0vssbUg53JiHVVUVCtdMBa3KIIoZl5ij61SGYte64clQ+cwR1ZwcUAiOompVnsQSfxojju+hpnn6MNDpLEhyVlK/Hh+0I8/vkZ1YQfajZCkbabYtT5mWWHX+5R7c1wjgTQONFXroU6v9sA6TCyCvMqWxR8eYPIKNewgGkmgvuo2gg/k8AClgmSMmy6JSo1e6WBKhV3roQuFXukgKo1QBj/sYCYLzEqgx1KDdhD4dB633kNFEb4TZF2qZhaMvzKYTgOjNK7ToiodFSFnT3iPbjbRxqCbTZR1lEmGF4IiiinjDtop8qRFLjVTArmycJ553KPpNbO4h3MzZjKiFAmJt0yiDn2rmMQdrF0yliFsv2UMo6hDzyhGURthPblIyGWDxM8YRz16XjGO2hR12P5MNChFxDjqETvNSHZQvqDhDSPZJkaxKzr0hGJXtmhgaOCYiBZDp9iTbdpWsyeatFFMSdiWLTpuzrbs0naWXdEgxrFAsiFSBt6yITOck1xGEhPQyUXEARIrgI2rfGgXasN1qV5i3L0KzV0E+nAwrnwSYdtNIm2xR1YwiwJ7dJVqe4JrpvgsRZcKe3QVvSjQh4eIzRGm1cANOkG258R6oL5aH2DS5MqE8HHurQemX+KB6ZNbcrTWctddd/Hggw8e5I/9wz/8A8eOHePuu+9+DNP9y1/+cu677z7e//738yM/8iO0Wi2WyyXvfe97edvb3nbTw+BvRnHOcfr0aZ7+9KeHZ49/LC3Ehz/8YW6//fZbBu1WuRGEZkjyEpYl1WYg7dWXd0M4+XgRCHeVwW2PibRFboxIiwp2pwgXEoPN9hhpBgjnSbQhHc3wUoYZ8MYoCHxuj0Oyqvd4CESxdT/68i7ZZAp5hVEmJFvvhkRWuTsjLSpspXGxPNgXa028NyUtKiIBWlsSZdA7U2JtakRYI7RFSbJqqXamweDszUgqTWQcfrwgtg5ZJ2TH45C0La1FWUfsPNEkJFEn05zYWDi/RXUuJlEWNS9IjMWXFcJDbC1uWRIrh99dkpYGawNCS53DlCV+IfBKgxboOXgBDWuo/IK8ksyUIbGGPmVgatGW2C0Q1pG4BanTdJ0lE4aGt/TdAmktDb8k84qB0xgkGY6BW5JhGdicdo20UmdpeUPfBqHOgQ1JzQLo+grjLB0zp+UtfbukjQbnaLslsXOsiCWZd6z6PEjAABJPhmXoljSwJHpGhKOPRrsliAkRM4xQRCIKfjYzYyAihNf07IKWqzhSh5x0kRxDkCGRQAPJ4dqY9YFjQAM4CnSvMiy9uq4DiI1RoFaLJLbSJEqjt8aB9mxrTLIscaXCxVEgqK7r4p0JaRGItI3SV8aq0iS7U7xqfEeE9qLBXbxoEKIc//cz/+UJ78MoinjggQe+q3v3ec973hPKzHy/lV/+5V/mJ37iJ/jt3/5tXv3qVx8oDIxGI+677z4+9rGP8dd//df/iaivbpX/RggtQbcb+HYDf3QFnZdwfB2dV1TDTkginufYwyvYRYE/toq6CqFJO8EeHl6D0NRqPyC0vRn+2CpmusAeXkGZHXSvHXxP43noZ1mCXqKLBa5GaLGxuBqFufU+1d4MlyWQJZhChbrpEtNtIqqQnOx7LZQ2cKiPWZToQQdZIzTTyRBJDIcG6FLjVrpU0yWRMpiVLqbUuNUeZlnVnxVRqfCDNmae49Z7aKXRgzY2r/AThW1HKAT0WmhtqBpZIKCuNLbTRE8VOm6BXaIajTrIoMQ0GhitmSc9nJ6z7bt4JJkoqdIOxXzB+ajLCnMWMgTaOF+xRRfpFJtRF+U8NpKUIiXDMYs7pKpiS7YpPVQyRouYttFMZIeBqxhHbaRx5CQsRZNEWCZRl4GvGMkWC4IfdC4aLHzEruiSoRlHHbTLUU6xJxrEVOyJNn1RMZJtUq9p4JiKFqu+YiQ7dKzmUeHoYol9xI5sU/gznCZC+oIt4hC8YRecEzFtW3IGgcOygSABYpGwgUT54GMrkWxyJYLxEnAEuIwgw7O77xOu64aAq0VlXRLj2g0ibQJCm+fYIyv47TG2kQaBz7wMdbMl9tCQyjpMqwHDDkqZMFZnOXqtj8muILTvtKQobj1mAPjpn/5p/vEf/5Gf//mfR0qJlJJWq0VVXaEG+73f+z1e9KIX3TJot8pTR2iyVDSnS3wrR53ZICuqILiZlweRYZGxyPNbQVrjzEYgGa5UQGSVhnNbRPpQQBCVprWxF3xoylCdCYKK2fkrAp8eSLShPH2JxnSOKBaB1BiBXRSklcFd2gto7+IuiTJ1EIcgrRT2wg6JNjQ2x0GSpVSYRUlWacrzO6RK43emJPlKEPgcL4lXNPb8DllewcaYuI7W1MoE8uTLoysCn8YSWXdF4HNjTFZpxNfPEjmHqzSVtmTG4EczMmOIlnWAfWkRlSXWlqxakCoDZaDFSozDqoKyTJG6BCvo6yUeQakEVgX5mHU/pWEtkQ2Eu9Y5vBkdEAq3vQELWlRk1rDqpzQOhDfNQWBHy1uO2Ekg/zVTmt4E2ihf0fEGzIiGMxz2c3pOISHwPQrNIb1HB8VhPybzFu3twfkn3JS2txx3M6R3eGeJRYn3iqEbEXnFbShSPLmYsupHNLzm6V7RcxURFRKP947YK9rAM7EMvKctQHpHG88zcDQQREAXwZ1IbO0nS4E2jmfUiK194EOTPBtYEZL00U2yorpW4PNcGMfZ2UBEbOuw/LTSuLObYTyd3wqfiwozqwU+T9cCn5d3kXla3z/hP79e+dLkS9w/vf+mRzn+Ry5/8Ad/wAte8ALe9773cfr06QNJmx/6oR/i/e9/P6985StvSj+3DNp/xwjNNVLyQRsGQbK+fPgi9lknKR88T7XWDxx48xxzYp3o9CXMM45jz25i1gegDY3tCdUdR0nud0RxhM5S8uNrEEn07hR/6gjq649SnTqCu7iD6rVBChpffxC3cpgqn6NPHcZc3gsRZ60Mvz1BnVwjPrOFvu0Qend6gNDk+W3U4QFRUVEdW8HszLDNFHot/MYId/shqkc2KA71sK1ATlytdMIs/bZ1yvM76KND1CQnUhqz2kVe3EOdWCU6t015ZAClRlaBRis+u406toK4uMtyYZCVRjZSfL9FtTPDrvYod6dUrSxQfU0rdNzC2zm636XaWzLVffCOVlWQt7oslWWvuUJPT5inAbFezmE3HnCcbXaTAQ07Z48gH9OPCraTVSK1x06ygjZTjIgoZUrLzLhInzvFHlvxkK5dUIoELWJO+AmXoyGp3+VyNGDFzSlEQi6brOkpG9Eqkd/mHF1WSLEEsuBdKzkdDThhR1yOenRdQUMY9kSb2E24EA1I7IiLso+1JbmYMJYxz7ElD4oGT/MVF0WXLopNv8tFYp7tHQ/JJrfbMRe9I8YzRHBWRDzXax4k4g7h2EAQCziB5CEiXuxDXtocwdmoj62R2VkR0TEzvoXlDhx7eBxwIuryMDFNGaOffhx7fiv8950m/vIu1R1Hib51HvW0Y6jNEa6ZQSNFnN2kuvMo0bcuUJ06gt0YHcjHuHObuGeeRH3jLMWJdfSTICu/a3AXdw3uorQlHzjzgVsPm7q8/vWv5/Wvfz1nz55la2uL48ePPyV5m1sG7Va5PkKrNNksh/aS6lyY0eaPBqQmdiYhck8ZqotB/LA6u0ljXqDqHLW0qLAXtonMSkBoWpNtjWsRT0V5djMIfF7cIVuWRNrghSCrFPnFXbJKYy/vkS0rvFRBiLHSmI0gkik39oLsRx0Cn1T6QIxTb0/JSoVVGlNUZOXVAp9zsny1FvjMSQYGdXkUJF82JyTaEBmHsu6KwKcypDszpHVExgSBz9GUqKpI8yAlEtmQP1ZNPKkxmPGCTFvEvERAIBRe5iTGU0yXNCpLpfKAdBVIW5L6iJaa0fSGZREId7tOoHUQreypOanTeO/wQNNblJ7UIplTel5hnKDlFNIb1uwsCG+aIN2ihMIgaXrDmg3obc3O6HpNUxhaTtP1Gm3HNLxh3S/oopFAzy2ZYznkJvTQWDujhSXBEftAKHzYhWtfsTO80xRUNJ3FiykDCiKhGYiShnes2BKHoyMiTjhL/yCNGpp48JY2nlN41rwjFRERkh4Rp4QgQyCBFoITmPBbIcFbWkJyh3esImkQyIl73nA7lp4HeSDwKQPyLxXmwnbw0Z7fDuTEiyIIfFYavS/wWYvRmlJhlmUQ+Hx047ECn//O8jH/0cvVAp+nTp16Srpq/6EMmjUOp80NnB+WyLx16BtoB4K8Suw9Vpsbbouaid3cYDu+ZkpHcMPXZI0F73FZQtVrQU/jTqyjTl/CnzpC9a0LBwgtmefoE+vouq68CqGxPcGcWMfGnjiS6CShOjyESGJ3p7jbj6AXj2JOrKMePoteLsJdnsZwbIXq0S3csVXKqxCa2J5gjw4xhcIeWaHcm+EEkMbEyxJ7ZHggxul3p9hmBr0W1eU9ODpEFRVqrYtopaRCoHvNK/2d38EeGWCvQmjxRRParDRqvRcQmjL4lQ7VvQ+i1vvIvTlVtxUQmvO4fgttHax1yR8ZUYg0RDnGoNstysWSmVshNguqrInRgmUpmGU9VsWYMu2RlhO+rgd4IWmLnGnSJ9Kac1GPVWYsooDQrCsYJwMaao9x3MeZKTMrKUTKIeHYjXr0jGYv7qPsgoKA0DJv2Y36tJ1mS3YxblFHOTYpzZjLsk/sFDtRhxMkWA8brsFcRmyJAYkfsSkDQmvWCK3lDJuyi7c5XxOGhrRkPmMsG0yKL/E1mfJsrzkfteh5h6o2uQAImfJNkfBcIdggIQaGwnFexHRdwVnvkSJi3jhCSswJcYhR1EHkDbyWuHSFc9pggeOywXmZcTJdw6V3UKnT7JplYAzRWzwCNJzC334kCHzWCE1e3sWcPITOz2NOrmO3xgcILT67iT0ZBD7VsTX8xh6m3YBhNwh8njqCzqtrBD7Fk/CR3bJnoXzwgx/kne98J29+85v50Ic+9D3t6/tI4HMD9eUbEPj0nnZeIc5tkm+ObuhyImMDUvjmefIbFfisVBD4/OojKPHUh7gA2osisKJ/+aEb0kMT3tMuE6KZpX1fD4YCnQnSch35FU9arJPEMQJPZFvoNCEtjuK/AWm5gk5ihE+JdYL855jkoR6i8qTfHIAPRjfWK+gGpMtj8PWEZHGELA9hyVKvov8tIS0y5DdTEp3hRfCTxaqP+LeYpGzSeDgl0a2gii0FqerhH0pIyxb+oYTE9ENScSxJqjb6mwlp2UA8GJOcXUNYSEdLkkHwoTXyCnFpFHxo3qOVCYju4l7tQ5sEZhHvMUVFah1mtCAzJuSl1awjylgybXB1zp4wYX/kPNFiSWodWTmjYU0gL7YCbzOoZoGgt5rSdIZ1M8chSJ0l9mMa3nJYT2l7TdMHRJJ5i9cjOl5zyIxoOUPqgg+t5TVHaz/ZETOm6Q2aCoOg5Q1HzbgW0JzS9oaO0FSuIvUKzB5tbzjqZvS8IkLwQ3qNUfQMbrcpHT/kWSSkWCLhqYhp+0PcZhJiO+SYNCQ++JIqIancj/IcL+l6B36AZYnyE5Z4Bjbh+UIykJKSqGb58CwR9Lzhmd7RQ+B0n4iYNTnkB03EHa5LSsT/YJ/Dz/rd4CdzGUsvOSLa/FC1irAr5C7HI4iY8nxgSEz255BUQ7wU2CgicWuwmROVPbK9nEjHeOnwQhGrLulOTlR0ae5URLpBIiU+KohVE315Tlx0aG0ayg35HRHaF8df4r7JLR/a1f4zay2z2ex73tf3j8DnqRXks2+7IVRVff1RiqOrpIdujLlZLQqSb51H33GEuH1jWffF1gg2R/hnnEDeoHHMH74IQhA9/fgNzf6cseh/XRCfPUT6kcD7lkQy+MziKGxrpg3hPbEUCBv8ZMI6YikC/ZRzxJFEVCCWDeI/fzFREqyvcP6gzSiSNWWVP5jAJJEEG87HuprgOJwXX3Ue7iqFbOdo1W3JSAbECiQy5GslUoB1RFIiLFA1UNkAn8aY46tUF3ZRR4bo2ZKoMuiVDtHlEerokOjCLuXhAeL0BXhkN0TGRTLkn43nFN0mUaUR1mN7LeyZMWWrSeY0Ze1Dq7YkZaNJTy8oW13yacUlM0R4S0eWzNMuZ3dLLqdD1vWUcdzGIRBVyQ59bvO7bMc91uyMuQg5anFVcFn0OW5HXKbPqp2h6zy0Q3bBdtSn4UZcln36bkklQpRjZKZcln1SP2Ir6tE3C2YuZikb9JzlouzxNLvHBd/kiG2S0eQn9f+M0LZm8/e4WqHc4XBCEHuPEZLYu5qH0eIxOAQxIQoxRdK0HZbMArkzECOwPqgluKsmaPsaZgZJBKCiui4w66cI2vT5WfvLvIa31UOnwnhPokJ/Ud0OwOqwi6/Hjv8vYawCdT6fQzxvCQ3P9e7o/X3REzwkI6C6EB7K19ND2y93D+/i7mHwof3m6Vs+tFOnTvEv//Iv35FR/y1veQv33HPPf3yD5tqK5m0RDDpP3QjtC3w2M7o30A7AoqYgSrqtGxf4nC1xUUSr375xgc80sNUPbvD7KaWxvQn2zh3My76BHy7Q7QaN2ZKi36Y5XaIbKcJBZDSq2aAxz8kHHbJlgclShHckhaLstGh9pU385y9G/y9fRD13gheSqFKodpPWZEHZbZFNJpiiAAGJtpTtBo1FSdlukJZVIMVNItJKU7XCtZTtjLgyNYVUyG2rOvV5zSyg6EjgkjhEo7UbNBYFKktIzhwl/X9eRuxmJMZS7c5CHtp4TlLqIBEzWdZ5aLXszGRJtKygMigfZGDksiSxDlNUxCbwXlaLgsQ6yjxsXaWCD83FWFWROEdUhbqmKULelbdkOifF07G1PIstQqycN5R2QYqlZ5c0nUGIkKPmvaFnF7Ug5pKO1xgsqbc0sPTdkrTedrwm8xYjNKl3oc47+i6n5Q3CWxIXIhaHbkEDx9CXSHIqCv42/Rum8hH2RMbQK2YioeEdE0YshGTdOXZFg3WvmYiEnB3KaoMFcFTGbCN5kXs2P+d/hT/htzjDN5kgOZa0GYsWK75kjgth+84xEYIjQrIXdVn1EikO4dEIv8tYRLzA3slr9Fv4v+N7uBTlOASj6p8ZoTmMZhvPkJB47YH/49ffQtFr0ZwuKXttkmUR6NmmPRp/8xz8b2wT3alvbIL6f+3AN6+vh3a9efqtAr/yK7/Cu9/9bj74wQ+SJI+v+P35z3/+PwlCu8Uo+e+/ygv4tqB8wQR/dIw9toZ4dAv9tGPIR7aoVnpgLMmyQB1ZIT5Du9XrAAAgAElEQVS7iX7WbfgLO4GlQxuau1Oq2w6TLQuiFPSzR+Q/sYBIkozmmJOHsP8/e+8eq1tWlnv+xhjz+t3Xba9d+1oUJQEsRa1QfRTvRolCQCDpiEREvKQNrel0S9LQpsFzUFAPRP7xEFEOHdJJp5NWNHroQ/BeaHGRYxUKRVXtzb7vdf/u37yMW/8x5lp77YIqtnsXdGmtkcyMb80x5pjzW9+Y853PeN/3eT79BeqlHLE1ou6E92A3LdCnV5EXt9Cn13CboxCa30oRG3tUJ1aIL29TnVnDDGfYJDCFyI1hiIC8tEV1Yhm3O8WmMa6bw8YIfWqF6OIW5bHgm0oUmFaGjBR+pYsuauxSBz8ORMOmEXB0Sx3sP3+ZWoMwBpnFuHYWxDjbKabW6CzB1Qa3o9E2QggJ3YzZnmcqcoTzJNKgk5ThRHJBr9OupxRxRlFLpgvDdtznhNijiFp0vOaKzXFIehRMVZsVV7CIW4jSsuuTEOUoPFPVoedrJrJN7C1WBh9arA27tOhTMpZtcHPmPkKjiH3FdZeT24LrZAysYeIVM5FxFzUj2WbZVuyJlIWQWDxfjDYYyUc5r1bI7EXOyYiBr8hxbImUTvEpPmsmfAvwJZmSuZrUL9gEvs3Cw0DK9/Na/kc+xyM8mj7BRtTlRUjOqS73OclQ9oi84y7XYkPkeL/Hw8qx7kdc5lEUhiWzxTmREJVXeAU/wz+Yv+UPzccwwDqSi0i+OzvB//HIr5Ne2w0MNEJQjTbR99yFfGKD+p4TuKs7uEjBniT7hMGfKeH5d2bQ3GrxNZccDx5rRwYNgLW1NU6dOsW3f/u3813f9V3cd9999Pv9gwRruEGu/G/DoB2Vb/wqL09iCtkchmivhjHEjw4xheyMA1PIRsMUsjs5aIu2R0h7iClkOL3BFLKxhzL7HJD6IPs1rjR6e0KsLXpnEnKEpMBoG6LQ9qZBbHFvdoMpRKkQ+biPpoZzkkpjrUObhilkJ4iGxqN5cz5PtCiJjEXsI7S9GXEjtOlHDVNII/wYLXQQEfWgfUHkHGpWEllHUtQoawP/nw+orV6EyMfUBxaU2DlsVYIXpPWczBnQJcIqag8dMw+Cm2ZO6i09W+KFoOU0xsyCOKZdkHqDIbCqtBqEts8K0vEa6ySJsGTeMnBzkoYVpONrIm8wXpJ6y5Kfk+JYcgvaNAgNS+sQq8eyL2h5gwQ6vqbEseRmSG9Z84aON8TN0qHHcxxPBhzHkTQiPRJICcwdWfN3Fxjg8V7TIeaYq2kRI32N8p4uBu1LMhxrrqCHYY0aiSXznmONiGdgCvEc4wZTyF14Uu+Jtkc3MdDEZR3mb23Qm0OShinEj2dHN/z/j+XVr3414/EY7/1N0jeHDZr3/qa/jwzaUfmXIzSlgvhhGge/0HSB7XewkwW6lR74vWy3hZsssP02pqgwnTz42WqD6bYafTCBURLTzvFSEG1u4M0MXyww6wNMpTEN+760DtfNsbMC28kD96FS2CzGzAtsO8PNQm2sxcZRiIIsKmw7xU3mmFaKqjQmjrB5ii1qXCfHTgt0nhDFQcfMJjFWytC2qLCtwOrhtcW0Uuznz6GJsOMiXHsjWWPSOCRt5wlWG4oJRMYjpMQmMfNtz7js0HZzdBzonDZ3u0zjnGU9o05TdirBedNBeUdflFQqZVjVXCfDGU2lgiBpjKNUGVNdct3HrHrNQkZ4BJFwLGSKdhVjUmJvsEJSEpNKQyFTalMxJgFvGVmFForUV8xkysIWbCA55qEUiplIaXnNRCSs+IIZCVXD5VgQ8WU2+KJI+CZhGIugB70x/TibwDehGImYda/ZtSV5Y8hGwAkiRg3bP0hctATxMazsk1tFIpbpO0NMB4XDsKAQOcIZtOiwx3XOlxeJvGPNLriCwPA8PB6NZUKMBe7qvJgHP/M/072wwbTbwpY1Ok+DVJ51B/PX9lqYhtrK5+nX54XwKdo+ufcpPjk8CgrZL+vr63zzN38zb3rTm76CcHm/jMfjZ4RY+cigPYcRGj6kFOB8CMzwHqxtdNL2dbsAe6g+0FALnw/a9sd0LmQPecK4+318cz44OI79/p7mfPvX45rjmzbvgybXVxwXrgX3pLG8vykARTRjsb+/OY9wvrlmH4Jc9tubbX+s/WsWB28C/tD3udEPDtfh/yL3ZTq9b/Z55L5WWxMRGvrtt/mD2rMffOAPtXHQR/gbjBXC+4O+B2M14RJq//iD8+yPeWNsDn1W3BhLHUJhAhpzdfOmDrWJQ14EeXBubhrzxrn3r88dHK+eNOaTvRLy8Dzc18ZzLgR+NPP3YF4ezCX/jN8/T7fk+D0r/x3fsxKCQt7+paOgkGPHjvH2t7+dl7/85U/b7yMf+ciRQTsqt4/Q9pWTDzzcN23c8Gof1M0xQhw69kk3+qWLQYusKKDVvdl7LsRN575pbGvw+tA+wVcqO9MoZu4bl8PXe3gsxE2fveBJ/cB/7hw+T/DTGtFtHXpKNdGdUmL2DLoymIWBLMED1TBiEce0XZBc2Zu2GYo80GwFJS52q4Qv1e1AbaWCDujECMZe0kIghEAeUrCeGxha6HoQUiCFCD46QFuoBRgf1LcBtAeDx3iPdlBYT+E9SWMEPYLKeabOsuJCykNQsPYHEYEeWHjNF8Q/seYjLJZrXMdgcMRcnD3IRQzLzTJiGNdivW0+39gcIdcMJMJFSCJ68SmWqXGuwzKWWvRpyxlaKBSCL9Wf5ZpQOO+5JPuccDVZsobyhkgrIhTv/g9vIvrtHr/5v76Z//0HXhdoqiYLqsPzsJkfh+fAvtbfTfPsmTZofG3X/1FoQCjvec97eMELXvA1+733ve99Rn6Xo3JUbhimw+vah5cnn+rh8HQPDPEkA3V4HPFU6zjiaS/vydd2S51vxbh/jX3+q36vWz/+a17zQZ+bWQL9vlF+0pfyT1r08v/C7+q/yj/Jfx2m1dOdj6e7lqf7DffTOJ687vfkF5xbmaO3e7uIW9uOCnznd34nKysrVFXFX/3VX/Gxj33soO2RRx5hOBwC8L3f+71HCO2o3L79EjYIH6INalYEIuLpIgRklDXSBXLiaFEG4cvpAqUN0aJCOBcEEeclYmuKMAa1uYk6qfFShLHmgeRYzQtUbYikxAtQNrQpY5DjKWpRIKIoyKVYhyrqpq5CQIdzOCWRxqHmVbiuokaZBi1IEWRfFhXSu3DtJiw1Ka1D+P2iQpnQFmkbxq9DgnVkDEqA0gZZGJgYiExYcrOh1psC7yTSeSKjGY8ydqY5PVOQKoPwngvTlKmMWbGGLKqR3qLrcHzmPbnXRLhQe4+uNQ5B21vaQhPjafka6QwqrIKS4mj7itg7UlcReQsIBASCVxHIfltNyH5hQ0J2oIfSKDxtX5N6h8Di0Jxzn+Oqj7De0vYZsQ/7F8XD7PD3jIFThMCOfT9Zt3lYHK4zIEbQBbrxCutC0bI9pBYsuQ5DGWMEbHCOS87jvGUiAtv+dycvYyQSts1nkeUVtCvwbgYoPvax36AYdOAvmqVU64iKCi8lkTaY6SLkRc7LINBa1iE/8/D8nRXh93QOV1Rfh/snLJ1+rT5HJZQPf/jD/Mqv/ArD4ZCzZ89y/vx5AMqy5Gd+5md4zWtew0//9E8fIbSjcvtvzj6O0FlKnae4tQE6iWB9CZ3G6F6buttCpwlmpYeNFP7YEnWWoJe76H4bk0TY1X4ICpECGyl0N8f0WugswS93sUpiBx10GlN3MupOjo4j/GoPHUe4pQ51nlDnCbrXwsQKO2hjI4UddKizhLqTYXotTKSwS22Mkth+O1xnOw3jJxF+pYtRKvRtgkJMK8Psh+0nURizlVLHCtNKMVKG4BMpMa2MOo2poxBoYqQ4qOs4oVYRtVKYNKOWijpuUcuIQiWUKqEUirlqoYVk3ghnTlXOTAbhzKlqUQvJVLWohGIiMyYyZyFiJrKNFpKxbLEQEROZMpEppVBMVCfUss1MxMxEwlhklCjGMkcTjpuJmLFIGIqMCslI5NRIhiJnJiImImEoWswQbIuYCsGuiFmI8GgeEnK6NoEZsNXsmzSfq6Yumnqnad8CKiHYFhFVgybnRMyIGIqchRBsy4SFkOyJiCGKhVCMZE6FYEvIg3PswMG8cg0bvokj9KCDXuqEuXpsCRspzEoPnSXUvRZ1r3Vj/iZRmM+tjLqdY/qdZ96gHSG0Wy5/9md/xs/93M/xspe9jPe9732srq4etD3wwAN89KMf5eGHH+bP//zPjxDaUbkDhKYtcVlBUVHuBAHMemsUJFsm88DaUWvsXghrF9ujEGI/nIa35togdycHAR3KWOJZiRchNN8OZyjnUOM5UW3w0yaxelGgr+8SFRVyNCcpNU4ajDZE2qBGs/C2PZoSFxWqklgliaxFDkMytJosiGqDcB5jfbj2vSmRtUTTgkjbm8L22ZsSP3wOrSRxbZDG44uaqEmelvMaMfVI55DO46sava2oxpakliRx6Lu512EqU3qmIBYLtucxe141KMlg7KI5foGylo4oUThaWHpuQVE7jFlQOktXVjgg94aumyOcI/cLcmdxBOLiyFtyMyPxhq5b0HKauYMYg7E10k2pvUbZCRJNH4lGkOLo+yKE9PuSMVfYtJvMhGQdz6rXCDvFLb6IoY0ABsAYOEYQyVwjhMmngG7qYwTBzWNE5DKmGy/RQvCjne/mO1TOt5d3I8aeTFSM+AJjL1mjzT1+QO6v0XETFJ7PLj7KthA8P+rw6CffST6aUbWzMK/mJXJ3grS9MAe1IRrP8UIQlzV2e4SyFrU3Ja7qgyXK6ND8rXfGxEUVkvIn82/ovfXXu5/mb/c+fRTl2JTf/u3f5iMf+Qivf/3rAfjjP/7jr+jznve8h5/4iZ/gh37oh44M2lG5XYSm0HmGb6X4tQF6VoQ33OkC3e8grMXPioDQJnNYX6KuNGapizAWqQ1utY+XO+FNukFoKAnM8ctdzHiBHbTRtUF3shCNpjWs9DCLCr/codYmMOrnCaY2AaFNF/ilDtqDjRXEURD4XOpgZgW230IbeyDwqSuNWO5hpgWm10I1rCr7idViuYeOFLaV4kWFEiFs31Qa384wwwKTpmH51TlcnmKFxaYp2mjqOMEaQyVj6jinthodt6lEyVxmjTZYzSJq0TI1c9Uh8ZZZ05Z4x0y16IiSiQqJ1ROZBeorVzCVbfoUTGRO6g0TEciJcY6J7NBzIbE6cpapEBTEdCkZiZxjvmIkWwi3oBQhsbrvNSPZYtVWDEWORjESYet4x7aIWUaw3aCxJyO0pQYx7WuQbQGrTdsxYAtBG4ERkh0UWggmsoVuYhcXKMYodkTECa/YlTmRl+yiiPAoIdhCcgrxlPPKKXGA0MygE2it9sAfW8IOp9iVXiCVbhKrpfMH89cfW0LXBhcrqNrP+P3zdEEhP7DyAD+w8gCFLflfvvie5/yzZj6fHxizpypJklAUxRFCOyq3j9Bkpcmmc2gvqEwQ4XQXgoyM3BkHP5mxyKs7IYn6wgbpokLpgIyy8+cRV68g3ZmQWF1b8t1JeJPWhupaEOpMN0ekRU1UBl9GpC3+2m5AZteGQdZFCuyiIqk1bnNEZCzx9SAV45qItkQbzPU94lqTbo1IKoOtDXZRk1Y17toucW3Itsck5SrCe5LxgmjjHOqfL5IUNb42IZnaedR0TjSrkZMRkbZkagELh54onKzInCMrFiTOcvVaTOQjWtTgpuzMFHtzTc8ZlsUCiafUntjMwDlW/IiO18Te4p2nqi2qnpB6x7qZ0PKGY3YWUJgzODsi85ZjdkrbaRQhijIjCHW2vKZXDcmcxjiLEpIOlhN+SobjhJvQ8hbja6wQ5FjuchOu8yg7ekQfyXGZMPAWFo+y1DyQ726MlyRojc2Be5t99zTGLG78ZW3g+Qg6SO5VCSkxLaCH49Ozz7ItFCvmfn4MR8qUNW+InUW5MW23iS0u0fEVCvjz//Ie6jwlmxUsnjSvkqrGX95CmbVmXmmyzWFA/rWhurgRhDqv7pAW4TiAuNYH89ddDGN6KXC7yTNv0I6YQm65DAaDW+q3u7t75EM7KreP0FyWUPTbLPptzD0nqFoZ9t6TlK2MxfoSi7UBZSenOnMs+J/uPUnRbVGeXKU4vkyZJdQnV7BKgRToJKJY61OuL1G0c8zpNXQcUZ9YocxTFksdFitdyjzBnl6jymPM6VUWnYyi16Jc61OlMfXJwOivT65Q9FoUy13K40vUSYRu2qr1AUUroRi0qU8sU+Yp7swadRpTrg+o8kDuWy+3qWOFXe1RJhH1cpdFK6VIY8qlDrWS6H6HWkrKbptFnjNPUsp2s6/VoVIRk7TDNE6ZRgmzrM9cxozSZWYyZi9qsxe1mMiEnbhPKRQ7yTJjmbAT9diOOsxExEY0oBCKjWjATERsqi4bqsdQpGxESxQoNlSfsUjYkm02ZYexSLiulpmKmGtqiV2RsikyrooOUxFxRfYpUFyRA7ZFxnXZ5oroMSfiihwwR3JexOwIxVURcU6m7AGPNb6xc8AeIfT+WrPvsWbf48BVYLv5PGvaZsATKC4KyVUU50TCQgjOyZR5o5i9JyK2RMQ5mTFC8oRIGQIXgIvwtPOqylPqu49jYomXEp0kFHctU55ao+i1MM8/SZ1E1GfXKdsZxdqAYn2Jsp1j7z0Z5vHzT4a5vdyjukOy8qdcsr+F7aiAc44nnrihpOK/Sl7gBz7wAc6ePXuE0I7KnSG0IPC5oLq0SVJUmOYN97DAp7+6Q6xtEPicFdQ2CHymlcZujpC2A42vI92d4qUgrgzltb1AU7U1Ii1KpA7RaHFtWFzbJS019toeaVHhhcAWNUllMBsBoanNIUlRY6XEN76veh+9bU+CwKdx6KIOAp/X9oIczO40UCI5R3x9j9gF/1pqLX6yCPIxtUUYR2wdajonNo54vIDCo7SkdiEBTIwrpIFOvSD2lsoqpFnQ8o5OPSK3BnxAaMZ7hAmCmwM9outqfJNc7r1hxU7IvGXFTmh7g7dznBAkXuPtmMRbVuyUrtcob/EIMm9Y9iNyp1l1Y3pURN5RoWl7w3E3JSMIb3a95hpjJAKNJ7UlEZrT3jDAkZuKDEHeILMOcKbxnclmKXHRtPWBs4RoxoSQ6Nxq2toIziLI8LSw5N7TEglnvaNNSPweeM2SL3G2pC/geXg6IkI0NFvpvHzKeZWUNfbKdhCOdY1w7NYo5KGVNeXFRji2EeNUxgYEX2nshY0wjw8JfPqdrxdC80cI7RbKW97yFn7wB3+Q3/qt3+LVr371AcXV3t4eDz30EB/60If4kz/5Ex588MF/IwbNe7Q2uMbBezvF6kbg01iqOxgHwNYmCHzW5o7H8k3Yua40zt2Zk1g0Mit3/P2a/9VhgU9/+hjV41e+qsCneZLAp5vtgbGINMauD3BKgpSYOKJa7YGU2OEMf2IZM11glttUWlO3M5ACN17AiRWqi5u4E8uU1/fwkQrkxNtj7PEB5nyFPTag3J3iIxkEPiuNXR+gixpzrI/fHmNbWRD43BgiTixTlzX1SheRJaTOo8cL/JJCrPaoNkeYQRszL2FUYNoxSlfY5TbFeMzINz6c2OLSjL1Nz15riV4xYpa2iG3NxSJjGg8YsMssGeDNLnuihfSOtqyYxF1alWEUD6irEZddC+Udq2LOnurR9Zo91SP1Q67TwiEZiAU7qk/H1WzKLt5PmIgUhyDTc66oHtbWnBct1p2hFjELkRAxY0N26VrNddmldHP+vvocFYJvFoovqjbf4isuiYRFvcXQTtgDng98uTFkF4FvaXxlW8C0acuatpVmqfEq0ENxSWQsi4jt9BhZkyqwg+Ll8UtQapUTfh2rYUc4LlQ7XMKzmr+YP33sfyI6NK+qrzKvbkU41h0Wjj25SnVlm7rXDonUe1P83cepv3T5JoFP4frkjf6dvcN7Z5915Ejg89bLa1/7Wv76r/+an/zJn0RKiZSSVqtFVd1Ip3jve9/LAw888G/DoEnv0Y9dwXSv3f7D3ntaiwpxcZPqGRP4vEh1hxpmrUqTlDWLR85h7jCOtz0rELtt9GPXQ25WpJDG4ZRAuPA/cKrhSlTyoA7UTOBkyPNCSpJLKWoHOg/18EsCnUBSrlH/N09SrhFHCuE9yuboJCIp78L/EyTVMnYUzqX0MuqfI6ILx8CESMN8c9QIfFrqi0HyPr22R1JqoiowncfGUVzcIitquLRFUhm8ADsrSWqNv7JLrC3JleAT835f4NNgr+6SaIPbR2OVwU4LkkpTXtwirTRsjoiL5eBDmxfEHYvbGpNVISozsg5f1dTWkliLGc9IrKVdzJE+5BdpY6h9RrcMYpyimhF5x8BC7HdpO42vdom9RpkpEoi8I9JBcHOt3iVxGmPMQQSk2BfcNEO6XnOXn+KBzAc5mNxbTpgRHYLAZ3h+GrC7dL3mrB/S8UF/TPuKNpYzbkRrv/aWe7zFAD0h+SZf0/GeFxDy3noNCttHZD3gBY3RipH8AN/KNeBbm7Z/16CziBAs0kVwn48Z+IiXmj7KWySOAsEL9Qs4pWOeZ06QeMX95nmk7juZ4zljzpL+X197Xuk4QriYSMeof1DEj/UR2qO2M1r/MAXhEDbDXpwiyz7ZdokyOeEW9UjbQlybENVtuD5F6bDsrLZMuBcevYieTe/oHswn+ZEP7TbK+9//fu6//37e9a538cQTT4QcSuAlL3kJv/7rv86P/diPPSPneVYYNC8E8nl3oe67fRJRZyzVI+coTq6Rrd+5wGf9hQvoe0+SdO5M4HOxsYe/tgMvOou6Q+NYPrhL5z99LzJWqDKQ8Yp5icsT0BZhHT6NUYsS285R8yIgGGsDX2ESh33tHLXlUF+6C3l5BWQjxmndDeHNfTaGQwKfkSC07Qt87rcZoMwwLqdY64OSRKM57sQy0ZeuUN21jNscUXcyEIJ0MsecWaO8uEV9YhW7OcQlES5P8VsjquNLRJe2gy/tAKHFiM0R9V3LRJe2KU+sYHcmmCyBXo7bGGLPrFE/fI7F1pD0Wp9YCOp2josVZq3H/PEdapUgygrVigMZ8cUZQ92jU05YtNoUM8FkmlDHLZbliHnWJypHfLZaJ7UVSnlmcY+qGLIZrbBqdxlHOdI7MlszjLpoPeILYpkVO2Ks2igsK3bO9WiAqHa5GPU56UZsyTZOSNpmwZboc8Zu8YTssu6mTESCQ5C6GRdll7vZ45IcsO6m1AjmJJzwMy6JPo9VH+W/AeveMReKCoGrt3kEw0uAfyYkSk8b39i9KB5FkON5Avh2urTo8dP8b0AwiPuCnfscjvtCnftttpYIICIO1FfaYIQg8YI2HX5cv5Ef5030VvOwsvAbTz2vnlI4VntEkRD/zb8j+kfzFffDV1PWSp5UA7hK41SNv+846tTqHd2Ds4emR9bpNssb3/hG3vjGN3LhwgU2Nzc5efIkp06dekbP8awxaFkrhX1OvdsxQrWmlhKRxrTvYBwA7xxeSuJ2dsdjVcMpTimyTn7HAp9jO0VaS/Hff46kvc180CUfzyg7OVGtkcaiWxn5ZMGi36Y1mVN0W0gdlj1NltAaz1n0WrQ/O0BeXqH+iU/jnr8ZRDxnC8pum2w6RydJeJM2JkSjTaZUVUlSVOgkCtFn+22PrqL+64+gVEEymh34M8rG36V2JiRVjWjycpLKoDdHJLXBbI8Oog9tqUl0IwNjLHI7SMs473EqsETIpi3aDW1KG0ytSSrNYmNEbCzxtCDez0MrKuKupR7NSYzBzgpia1HOwbwgdo64XBA5R1wVoBXGhlWDyFvSekbiLD2zIPEWgcfrCbk3dPSYljdgCgQ+MG7YGam3DGzwaUk3R3pH7i1LdkaKZdnNGpHNIrCBeINxU1IcK41Qp2rkY/CGVTel7S2rbkbP11gELQwtb1lzM3bwnPSOAZ6eF9SNv+tUU58kRC22mq0PnMbTAk7gUcyYM+GDvJstHmarQW1D9qMcI2bAKoodEXNMCMYqJxMJp8Q9LJDABbZFxHfYe/lx/Wb+M+9mngl+6R3f8/TzalZQ9Dsk80UQjm2iHMtWRnY1Qv7NdyL+/SXEmdtn+5hd2yHa3SK99wxxfGf380gFKZojLsfbL3fffTd3333312Xso6CQf2XFKUX1QgFqgXvhKtUTO+gzPcxugSpr9HqL6MIMfW8f/cSM6u4OYqERVY1fa2Een6K/qU99qURFUH7rBPttO7hTa4hzm5gXnKZ6fItyuRsQ23RBfWKV6PFr1JnHXtvDLHdAW/xwRnlimbiokQpMJKkHneDP2B3j+y3M3gSz3KE2Ft3OGo6+Ao710WWNW+tTuxsCn0ob3Gov5KH1c2prcWkQ+DS1wa71MUWNWe4idiaYPMF3W9QPn4O1PnpjiO62kLEiEwKTp/iFwyYRtYqwvRauqILAZytDSotOcsYjxSW/GminlKWOc7Ymio10hdV6yDzOMbaiNjCWPZbZYxb3yJ1honIkjvFcs6O6nLGGUdQlso6RbCFxeDNjS7RpiYqh6tDCsOlzPIKWW7Ah2rR8wa5q44xhxwcO+hURsSu7dKzmusjw3uBExIKYfyr/C4+ieAmOKyJC4xmbXcrGB3aVkDt2DZBIZiJjiCDzCy4DK/gmstFjcfw9D7PBX/Ew8EIk55Cs4lmO17gqFPcJ+ILq8K3e8eVoBW+2sMX/zRaCjf/6H5h/0yla/48if0+LN//778N+22X0qerp59X5a+gXncVd3EE3PjS3PaI6u070t3OShw2cqeD55e37jOM5SjyzydVCeMRTBIV8Yvsz/PnOkXzM1yqf+cxnqKqKEydOcM899xwZtOdikcYQ746J+/VBZKK7tktc1khjEY3AYXRtl6g2JBt7SBO4C7W2RNoSXdsl1ksBZc1LollBdWWbpKzRzZjs+htRjht7AR2Np2RFRb0TpFCSSmO2xkjXbRgdHOleE+VY1JSbw5siEorTGIgAACAASURBVKWxIcrRWMxGEBQ1m6ODfCFb6SDOuD0OyG5rEiLXyhqnJLGxRE1bvDMhLTWRsehSk2qDHU6JrSOZFSS1OUBoUWapxnNSbXCzBbGxKOOo5iWxcyRFAQ5yvSDyLnA4ekfpJV09JXOGnp6TYKmcOEBoXT0m9xpskEZxzuEJCG3ZTuj6ICQqvCfzhhU7JSVEMubesOrmQQ/Na4yfkBIQV8trAp8+tLzlmAtRketuxgAN3tLGMPee08KSA6e9pY+nDdSEQI4zBC7G043frIOng6eP5yyCdoPi9n1qq4SQ/LMNijuDpwN0CaKnLSE55TVtJCd8jfUWTRDgvP15ZZFXtknnJcLtBYRW1thru0iXPnvvw6dBYD+y9lJ+ZO2lFLbiFz7/m8/5Z9bP/uzP8gd/8Adfsf+hhx5id3eXq1evcvXqVd73vvfxwhe+8MigPdcQmu62UXGEO7aELir0chc3nhNVmnqpS7Ko0Cs97LygXuoiyxpZa8xyQD56uYuNFJEQmDTG5SlmtY8u6oMx614bYS08+hhWd3GbQ+zpVWptqHvBLyKtxwzagR1eCGwkqdMIryRog13qYOclut9CGUvdSgNCm5XYQScgrUE7CDMqicsSorLGtFNsEx3JeBFQVqSIdyaYfhu7qNH9NvL6Rcy8xGYJWilsN8eUGt3JUElEKkTwsanA16iNRWdpoLXadJRpit9JuCqXWaqnlEnKopIMC8kiyjkuRiyinLbTbJGTOY2UjlnUIveaImpTFpYtUiSettCMZUbP1YxVi9hYdkhROJaxjGVOXldsqhxlNZs+wSIY4BnKFnm94JJQHPeCiQjin5aCDZGQiZJdkTMWm5xffJYpgjN4NhEs2TFXGkNWEDgX+8AG++weggiYecMQyBBcb9q2CcnUjkB7VQDXUfRFwo6IcXiSqMtIRPTqHb6sJ6Su5jE0bZHzmU++N8yrCxv/onnlFxV6qYudFaFPbagHneBTsw690iN9onrW3ofiFoJCjrgcQ9knIn5y+aVf+qUbS7mjEa9//etvYuK/3ReNo/KvqAjvEbUO0YoNC75ofEnS2mC8nEMUgZV+35hJYxFFFY4v6wMxTWld01YjrT0YU9YaWYfoMFHrIEZZ6abNhM05RBO5KCCcTxtkFc5HWQcxyir0ldqgdMg1ogyM+jR9lXWI2oQxaoP0IJo2qQMd0sE1+OaaXHPtJhxHw54vjUU0+V+yyW1CG6QP/aVzoZ+1SO9RzjS1JXKWCEfkQr5UqD2xN0TeEntH5DTK+1DjSJooxQhH4pv+zhDhSbwhwR58lkDi99ssKZYYR9r4zVL2x7GkPhyXNv1TNLH3pECOJ2oQmGzq7NC2nzemmra4QVLhc/Cf7R8fNb9f0vTbZwfJ8aR4Yjy5d82Y/mDMDH/788rY0N/7MFetRVYaVWmkbdqezffhIaGfp9v+1b0wO8dv/MZvcPfdd9PtdvnhH/5hzp07d4fG/2v/kv1+n42NjaMlx+da8QKIo0C6miV4JfFpjGseJj6N8VLiswQnRPA/NbkzPkuCqGQaB4Z8IfBKBlbzLMErFerxEMa7YENwjI+jIKKYxKF/rBBShGuII9gXfXQOF0WgBK7Sob8Q+FiFa4kCA76XAtIYJ8OYTgqcAB/JgzGdlLg8w9Y27I+jwG2YxviNXfzuCDcrw7UrhYslZHHghFQqnMODnVnUkkBkEeVlwTyWRFqys9NhEWcs6TkuixjqlHO6i3IWhcXKiIWTTH1M5iQuUngc3nu8jLheSi6qmJNOoKVCeYdFoEWEIXAZtj1oqbDOsbAwRdG2nqkX9BxoKbFIJtaxg2fJe2ohqfBMhcfjSb2gFhEX/Dk+tTjPaVzTR1C7yQG6KhuEVjVb2CdweCokGkeFoQQMgpKQe7ZfewIBsZctNBFxskQWLZF7y2jxGDsIBr5mjsPLFp/6x/+ELGucNrc8r5wMv6OQLhyXNvMjS8JvlsRYY0MydBLjqZ+19+G/1bD9d7/73SwvL/OpT32Ky5cv84Y3vIGf+qmf4u/+7u9u6fiHH36Yhx9++KZ9GxsbfOQjH/mqDCHee7a3t/noRz/K8vLykUF77iE0wBhkAlQ6vBHXJiQEWwu1aVDcjVoaG96ID7c1CEY07PJUgVmDSiOdR7gQGSmcRzSJ2GgTlhqNC3WDfPDhrVzgEcaCEwdtwod9+2/tXohw7gaFoRt0hcM1yEoYc3A+6TzeOIQIEYZCm1DbBmU5j7U2jLV/nua6w//LhTdlE9BY+L7BTyZdGFO68EhXzjY+NBfavG9yrTyRd6gmR015iyNEQcpDtWo+CzxRg6r2x1NNFKTEE2Obvg4pwnExFgHEB30dHg6OA0gbVOaBpEFKSYPQ0gZVpU27PNSWNMfttwckKA6OVw1Ciw7GCteUNOjMNv3EoTFvb145RPObShdWGsQB8rfht7UuzLtaHyUmf4NLURS88IUv5HWvex0A6+vrvOUtb+Htb3/7LY9hjOHChQs8+OCDN8nBvOlNb3rql3TvWV1d5ROf+MSRQXvuQTQfDIr3zcOheUjY8BCXDTOJaIxJWJILy277+w5qQNjGOGiL2riOmu4hJ1NknjbLRy740uDAsIn9czRGan9lRXiQzuG9aPqFNmGCwZE2PKQPrs/a8OByDiFkuFYlAwwV4iCYxTcK1wfnFhLRiFwK55G2MajWIYzD7xUw1wdLQ/Wmpxg6qq02Q9kitUFoM8KxV6ZcLDNWjENFDuEdxoHFEQlPgiVugkQUjusL2BOONX/DQKlmC0EhFu9DkrXwHussznm0dVhvGsMRjGxhajwh6CIWDofFUuNxRI185D8X/y8XEdyNI0GicBg7OwhKSA7VUbPd2Bf+S8m+YTxkwBL8gSFUzX8qJSdRLdrEVOU1plxBEURGIyBTAx5+6D10tkfM/wXzSuz3cb6Zp2GT+y8g+20m5FKKZs7gn70eka8XQvvLv/xLptMpr3rVq77h3ynP8wNjtl+GwyGveMUrbnmM+++/n/vvvx+AL37xi7zuda+jLMunFO+UUnL27Fle+cpXHiG056Q9UxLXyTFKwqCDGc1w/TbGeXytsd0cOw773N7kIEzd1Sbs253g+m2sUiGQI4mwaYwfdDCRgl4LM1lg8uTAoLlOjpss8L0cW1TYVgrWYWuD62QgZRhLSkyeBBosY6Gb44YzXDsLwRp5eM9XxkInx04W+CaQw0UKm8WYZkw3XuA6Odo4XBLhkwg7K3GdHCsFLkswtcZIEWRnKg15ipUFNlFYGR6GLomwRuCSBCM8Jgp5UN5bdJRghKaSGdaWlDJFYnDeUaoMawsqmaJFSSETvINSwEJm1K5q6pKFiAPqEY65SDEULGRGy9XMRYIQjkhoZk3bXKRoKuYi4LLIu9AmJFMSumhmIiyxFsAIQYlgiKCLYEGIRhwAo2apcNQYp3mz5HisOU7jGTVSL1M8Q0JO2rDpNyIEgvhmzBoYCUW/OV7hMU2/Cm5rXtnxDAYd7HCKaWcNCvPYXjtQpA06mHmJ6eQIY4mqGtdr42X5rL0Pb8VH9i/xoX3uc5/jbW97Gx//+Md5xzve8bQG7dy5c/zar/0an//858nznLIs+cVf/EV+/ud//hn9jo8//jiPPPIIH/7wh2/r+Be96EV86EMf4m1vexvveMc7viG/y5FB+9e25GgdclYQdR0Mp004/ZyoCCStdlo04pgzZCOEqZqgED+aBef7eI6yDQVRbRCVxg6nRMZSjRdExmKL+kC0U06L8CbeEPvaRRWkZcoaOZyC64axnCVaVHgZkqDNdBGW92YlUa3x+EBFZCxMFyhjEdOCSBtc8+Ye2dA/HFcEoVAbfC7qyiZyaw85LVEeIusQXqBrjRoWuMojZxVREqOcw1vQVzVxz6PqitgrEluReM2VSYu5ilkyhjwqGzSrUc6S4LC2RHlH5ipi79ia6kBRhadFSYql5Uoib0htjcKTeUvXl0jniXQBThO5gI4Sb+n4isrUeDejdhUd4YMeGhXCO7zXdCm5ah5iW4/whGjFJTyp1/R8RdbctKoxYEtAJtusiphBE8ShgdQuWGrQ5YAQ6LEPGHJguTl+0JAVCzxtLDt6SA7c1X4RH/vLtxDPS5SxVN0Wnd0x09uYV0pbaOpoXobfWRvMeI6yFoazwNM5XTT/O4sczxBOPWvvw2cKoY1GIz74wQ+yubnJQw899DX7/+M//iPf933fx6te9So+/elPE8cxn/zkJ3n5y1/OZz7zGX7v937vjr/b9vY2v/mbv8kHPvABFosFp0+f5nd+53dua6yXvvSlvOY1r/nG/S5HJuJfH0KznTygqZU+Jolxg04Qq0xjbL+NjRRuqYtVEttvozs5upU1+xRu0Dl4kzZpjMmSIMYZKRi0g6BiK0XnCSaOcL08BGv02+g4wnaycL5I4nqtQwhNYdoZtp1hkhh6rRAI0MsxsUK30uY4Bf12gwjbmCTCZDGmnWEihevmzXEtdBZjWim2k4fQ/naKVQLbSoKgaBLhWmlArO0UK8N3slKCABtFGCnxaYqWCh2l1DKmEopSBlRUqgyDoFAphUwoRBz2CUmhMrSQzGVKIWIKEbGQORXqoJ7LhLkIY85khhGCmcwpiJiKlJlIqIRiKsJYE5E1fydMRMoCxUSE48YiY4Fg1GwFsHtQBxQ1bhBTSaCyqoEhkgmCMYI9BNWhtr0GuY0Pfd5tENcegWHfE6Rjwj5BgXjm5lW8P1cjTCfHtML8sE1/lrsH5zCdMFfcUjcE9jzLEdqdRjn2+33e+ta38h//43/kR3/0R5+273g85lWvehVRFPG7v/u7xHEg/3rZy17GW9/6Vj74wQ/eNpo6XNbW1njXu97F3/zN3/CKV7yC97///fzpn/7pbY2llOKXf/mXb6nvH/7hHx4htOdakcaS7k6IlzT68lZIrL6+S9yE1AsbklWTa0GaI93YC+HSzqGrmkgbkuu7RHoV4RzJokA89jjVeRWkWlxImBajOQKPMg4auql4c0S2KJGN3yupDW5ngjT9AzqjbDgLtGG1ho0hkdYkW2OSUiONAwGxtrjNYUia3hqRljVeKWxlAuFwc75ka0xcadz1y2HMypDMSmIhSBcVybRALgwmUiTaYkdzosLgry5gKwQcpLpmuJUz3lVMJhFjAalXdH0dpGOsI63mKO8ZmBnKB39YZgybM89IzoNgp5iTNAEb0k7InGbJBOorYQP5k7OWjp3hraHHmJavOSYc3jswJS1hybzluJvR9oYWQxyCjnc457haP8SenbOE5wQCB2RuxmmC1MvzkCwBFskA6MuU5zUI6zSGnveUbopG0MJztkFjZxqk1yaQDg8IMjAtAgVWn335GMNy53v5s4+9hny6oLzDeeVnBeLqTpD5ubxFUtaI3UlIrDYWmoT96OoO6bw88K8lZY29vou02b95hHY4pD3Lnv77fuADH+Dy5cv8wi/8At1u96a2N7/5zbzzne/kV3/1V3nDG95wYOzuvvtuLl68+LTjnj17lgsXLty0L8syvuM7voM/+qM/4t577+Uv/uIveOUrX/l1/Z++613v4rWvfe2RQXsuFRdFVOtLeDnC3XMX1eNX0WfWMbsTZFlj1peIvnwdffY49WOXqU6thRygSuOPLWG+dAl9Zh2dSiIlqTotfCfHLXeoru7iTq1SXdykapJco3mJWR+gL21jT61QXN7B9HMwDr83pV4fkMYKJQUmjij35WPGc9z6AH1+g/r4ADZH1J0cBLhJgTu5SnVpC3timWJjiE9iXCuF7TH6+BL64hb6xDJmZ4JftCCOUFtjzGoPfX1IvdzFzStqImglMJrjlrvUc02ZtxBxREcI6jSlsooq77OY1YzjHqkpiL1hHrXpmwmjeEBa7zKMeyiniZ2liNoUYo8t1Sf2Q7ZVl9wHLbKh6iH9HtvREpHeZU/mIdrRVWyrLrHTbMgBzo4YyhbeW3rCck32aLs9rskekRtztSEgXqXmuuySITiP5G4cO837/SrwRLM8+ASCs3hqBBMCWfB5JD0855EcF45JE5KfEsQ7O8B5AlvIPjkxzZhdglTMiwlh/tcR5MhnbF65Xgt3ao3q3LUw5mNXqFZ6B9RX+uQq0RNXcc+7i+LCBmatHyjVtobo08dIvjx79ho0vvFcjr//+78PwPd///d/Rdvp06e55557OH/+PJ/4xCcO0N6DDz54wGz/lEYgip627YEHHjgwkE9VZrMZ73vf+277u00mEz7/+c8fIbTnHkIzxDsjkn6NvhQQmr26Q1zWKGuprjvi2qCubhPXhvj6bvCDWUetDZG2qKs7xPUSQhuy8xfxyZyy1iSlxlzfI6kMjGaBzspY2BoT1RpxOVAUSROi0pJaY7fHSNMNAp+mEfgUENeGciNQX0XbDUJzgXA3qQ1mYxjOtz0hKzWuNtiyJtEGszUivr5NNJ4GhKYkrjJE1qH2ZkSjOWoU6K2kEBhr8ecryitjosqSRgWpMXgnmG0qkpYlLSe0vaLWUzJvqA3ENhAO982Y3BsGZsqshu3SMxeetYbCquUNK25Ouk9ObMa0fUBosdW0bAjnT73D2ymZd6zaMW1XU5jgX2t7wzE3Rfs5mdM4X7NOMGhb9d8ydIbT3nJaCHq2RBIeQh0OU1FZVgBkiyWg7TWnECS+5AT79FYhSGSf+qrVGLPl5nOn6Xe26bNPi7U86PB/vuN/IH7BE8zvdF45TzIv8bOCqllFMJe2SPcRmnNE2uKvBZmg6tIm2bygdiEd5Ab1VXJ0wx/ya+2rPr/4xS/+qn3uu+8+zp8/z8c//vEDg/ZMsNlfvXr1lgJO3vnOdyKE+Kr5Zre0jPsMUKs8awQ+q7LGLe6AgLQJJfe1pljcWXSUKWsi7zFlTXGHki9eG4RzVEWF0ebO1u1tSFzWqwOEHOLPrlNXGntyFbs7QZU19vgyuryGO7WGnpeYE6uYRRkYPY4NMLMCe2oNnQgiIajzBNtK8ceXqK/swIll6gs3EJqdl+hjfcyixB9forq2i1nqgHGwN8UeG4SEaSkwUUS11AalcKMZ/vgSZlFh1wbUm8OA0KSA8QKOL1HXGr8+oNwYhuTrPEVuj7HHBpiLG9iVLm40xyURJBFxUWOXO/x/7L17jG3XXef5WWvt13lVnXreui/bcYhJgBgIJKaVyQCZIRGop2kQUUAI/hhpUDTKH4wQzSAxo4EIwWg0dAs1M+rRjOhAggiBpgcYOg1MSIAQHmnHjhPHsRP7vut1qk6d136s5/yxdtW9FxwnvtdjO3Yt6Wif2muvtffZtff+7e9a39/3a0czTK8D0xKTKOjmOGXwvR7aWJpOB5kk9IAmKRBSYYoB1VwzTwdoW+G8Z5b26XjLLFuiWxum6YCJc4ylYy57LAXNoVqiE8YcyB7d0CCD50AtkVvHOFlGOsNIRBPPAZp9NaDwmpFcJoQxeyJD4ZGU7MkBW37KjuxReM+u6OCQjJFcQbKG4wrRlmW/RU1bRKPNPnAFEAgsglmbR3YFwUpbp9v5sboNVleIpJGrx2/BRHZj2vZ5XHcUnyaYlQEhz+7+upIC3S9w/Q7h4ib6i9cJ956hqTV6fRmOjWPPrWHKGn/PmdbgMyI0sTfGnl/HPzUluHjvhLu4p1/Qe/A4v/E5xIlvPqBfOKWQz33ucyffz58//6zbnDt3DoDPfvazd7SP8XjM+973Pt797nfz0EMPAfCHf/iH3HfffXzP93zPc7bt9/ukacpP/uRP8r3f+73POzhNJhN+9Ed/9JUR0GQIuC/dwA7vzuCzU2nE1X3M3tHdnZRjg88vXI0PzLso3caQXc9otkcI63CpirlbQhJEnBNzqUIZh09UTEJFRKNO6/HHdVLSvZqjjiTdj2aowRnEZwJZvU7yKYVyA6QPmDSaJvKYIq3OIj6TIH030qRTRVqdo/uYJHtiiHCB4gvrsKgxqSIzPfTjKZnukCoR84F8IM0UadXDP5WQ6i5OJe2c2Srq8ynJpTNgIHv6THv8oOwKJktJ6y6dpzISvUSWyLbOoz+fkjVd5BMZqe0DkfafmBXEEynp3uspLikS6wgCvJRk9QbhUkI6WaHrIfU+6h0KQdg16JEid5b0QJFN70F4yepkk9C8gXye0CkVQ1KS4LEBNIoirDOsUjphldUqpbQw09AgGbDKVqPosMY9yJObpULQDytcFAmZG/J1KCCQ4qlQdPwaW6TkYYUHPC16C7xOKJKwzBvokVBSi3htHfjvYOYdy8HzjQI6aDQx9y8Dvr1FaN/WoizhI4llhYJvZc4Shje0dZao/DEgGnUuEx2pj+uOhYvf3CKzNwHfwDcjHORPOYJYIt2foUwfeb2KTMPQIVxuwA7JRiXCDCn2G4SPjxD/VEnQQ4pRSba9inCe/FqCGxT4S3OU6cPODGUGqOvE/LLQQ11twAzJDmZI2yG9ZNsctgGdGxXZdhcWNfaJK/jZ9O7uwVpTfvYZzF2igGLW+bJDjsZbTJsED1C7F06L8vDwpmnxP5w/Oy5LS0sA7O3t3dE+tNb8+Z//Ob/2a7/GO9/5Tt7ylrdwzz338Bu/8RtfVfvV1VXe9773kWV3hqy/8Ru/8ZUR0LwQyPvPkX7znZtpOmNpHvki1YUNumfX7up46mmJfvwS9oEL5Hfph1Z/uqT437+FvFtEc81+BxoDUoKSqKrB9QrUPJpxiiYSJEgTRNVAr0DOK1wnQxxK5JNnyP/NOiJ40kS1hpvyRK3jNtNE60iUjBS2EEBJhHUopRDGI+qM9CPvABFIpYjDhq3BpxIxcZkQ64TzKCXjNscmjT6ukyZAU6D+9PuQKkQccUs7KWWkpbfEcUGIx+zbY2/fehMh2mOO7Trt72pfdxE+rhPWIWVUHAnEpGtsoCvib8iQCCdRvsfG7rvxODyyFYIScdiwPRIRAl5ICB6LPGGmBUSUsxISFTz+FmNKLyQyeBwyWsOcEOLj8cgQsAgkkZYPcUjSIVq1ji41JQ1NexTHBpoBGyIl398yD3Or4WYMnSCQLLHEhCkKj7nlARva7U2Lxo6NOsPJfuK6FFheW4oGrWVG/tG3wH+6cwQTQoD9mqAk2SffDA/fuX2Ksw4xK/GDguRbLxDO3nlwKG8c4G+MEN94H8ldeBKGEJj/7fTkGpb/AIF9ePuv+eD1v/r/5RlZluXJ9y8XMPI8uhMsFndmlXPmzBk+/elP3/Ex/tmf/dkdBzPgqw6cL/8hRyEoOhl075zVdGLwmaV0unfHjnLGEoQg6eR33Zf2Uc2j/Od/R9HZo1zqkrasPq8ExaKmHHTpTkuqQYesbHCpwmUp+byiWurRm8ypewXZI2skz3w39Y/8PcmFG1SDHsW8pOkWKG1R3mHylHzRUPc7FPOKpldEZRHvsXlKMa9i3aLC7C5QbQ6WLlLyytD0cvJFg8lUy0bz6DwlL2vqTk7WaGyagA+kxqCLjHzR0MgBWZhhshRERLk6TykWDU03i/NlSUIAUu9oOjl5WdN0CrJG4xH4RJLtjWnylKLU1J2MxJio7ScFWW1o8oT8cE6DINXRXdknCq411GlCXjr2qz79xUXWd97F7tbvsR+uMlUFfacpZRJlpTzUQtH1hqnMCI1l22UnMla1SFkODVORsRRiovOxBFVJQu40E5GxHDR1O0yId5QkdH3DfkjpY6ja8CRDxUQkPOgu8g77bv5D+jt81EYqdBE8UyFZCyUHeJbaYUOIQsMHwAYwalGVR3If38x/w3/P/8UvMWpNOY/nz1y73ahtd9giNt32u9z2uYng5/+H/5Z0O0f8xzehfmEneo/d6VC9sZhHvoRd3mLpgeW7um+aWYn83CXct99D77VJeyburFRZQpCSvFvctcnuWM5OXkL+IdZ797l/wg9uveVmEHINP/bIr70gj8hO5+bLvjHmWQOHMVEdp9vtviSP8btFWNPp9BUS0F7hxUuJfTDFNjPs61ewOwt8J4rpyssLzOtWME/uoe9fwm9Psd0cVrpwZYx/3Rr68V3qiz3CgSdX0LxF4y7sYt9wD/VT++h7zyDauQ5zZgX5zDbNAxeRT25TvebsbWy09E8+ibnvDOraiOqNy8hFHefmzgzh6gh73yZc2qMZ9uCYjba5jLo6wrz2LO6WOTR/OEOfW0Vd3qO+uAHbh9SrfVCS5GiB31oheWaX+uI6fvcI0+/E4cN5jb1nAy7vYy6u43bGUVS4m8Pjl9BbKyQ3DtAX1jDjm3No4nNXqZd6yGxCvTageXpCuUgIWcZUCKp0yCA5ZLI+wAnJUAS+kBxh86c46KyRL44YZ0NyW5EFyzzpsamP2M3XYDrmc36FLBhUsMxlj3vtAZeTNc7bMTsty7HWjpFc4qI65Jpa44wesSc6KDzBLNiRfb5OHPGkXGfdH3JJRk3ErVBxSQ6YzR7lP+ef8xf2/+EP1SdxwIodczl4vg14FHhNG4wCcAZ4gshE/DyRzNEAD+L5r3F8nEeZ8Rd8GskWgQWSBvh6HI8R+GYCn+V2luO1j/0r7OvOkz9+mfJiRfrZht5fm7s20gza4Pcn2Ps6cPHuvMz8pESMJy0ye/k9pqT4xwitUIpCKf5g5z/xB7sPv6AGn1tbWyff5/P5s8pEzefzE6T1tVje85738KlPfeo0oL3ci/Se5MaIZGBJLu+S1ho/r+K8UGOwV3ZJtSW7th/ZZbXGzivyssY/s0PWGPz2AdkigRDIDmYk6xr7zA55WROu7pHUGtVadqTakl7ZjTld10cnlimm1qTGke7EHDC/P2nVNgLN9iF5Y3DXDsgbgxi3LEdjELtHpNahrx+QVw2mRXyZtoTdI1JjyXbHZLWGw/kJy7HZPiS1jmz3iLzSUSEESJ3HXT8grzX+xiF5paPiftmQGYvbn5AaR7I3JdUW39an1pGO56TWkx0tUMZC4zDG0HEFvp6Se0eviUxCAfRcTRMs/WZC5g3eTMm9JcGjjCcPjmUzoQmODTclmxWNDQAAIABJREFUJZ6PTrB0gmPDxVyzDTcjw1MFj3RH9LFsuiMGWAglKgSaYJB+Ric4zvkJvaAxwZAAg+C44Ocn4sA9AvcEh0ec2L10gPuJjMRjPNJr1w1vqXNEsogAzrZ/v5bAADCtVFW/3f64/XKL0obwj66rdNY9vUlfwPLPtr6Nf7b1bSxsww986l++IH2+4Q1vOGEQbm9vP2tA297efsHmou6kfPKTn+R3fud3eM973sPXf/3XA1EJ5Vd/9Ve/YtvZbPaPVPpPA9rLtAQpMRtDEjdCn13D7R/hi4yQpyTXR+itVbKyodkcEvaPsJ0cv9xD3jjAnl/HlDX1xhCKnFwI9LBHyBLs+fU41HpmBXc0RzUGvb5M2mj01ippFfsUVUPyhadwwx42Vej1JRJtaVb62FbGyq4vo8wh7swQfXWPppcjvMdXoFcHZI3Fbi4jdo/Qy9GkUYzn6JU+WdWg15ZQdky91I32MdMKs7GMrTR6bYAYTSPLEUGYV7jNIVqPsBvLiJ1DfFXhZIosssiqvH6AWenjpwvs9oSQSJQL6NUO8nrJmJyiVphU4bOMRirqvIfQgS/oNc7rHmeASuUsQsK+XGJVHjFLuhjXkAXLTHUZzwKfD0tctEccJj2yYEmDYyY79IJhpPrkYcIl16EXNArPSA1QZswV0WPD1ewiUQQGImFXdEmp+ZxynPeGkchpxCFq8ShfEooLPIRvlTiuuCMsUXfxShusrrbzXYftfNcmgiscsxYjItAIRu21tU9Checygi2gRFIDBZ6rbQC7CgjZ50/+5n/BL/fQ/+C68nuS05D2fBHai2sfs7q6yoMPPsijjz7K448//qxB65gJ+d3f/d0vyTn5gR/4Afb393n44Yf5+Mc/HqdvnPuq6fyvHNr+K7wIHxDzCpVFvbsTfUJtYy5Pq2mnZiWJtogARoiIQMYzlPOoWYkyXQgBVTYo51t9PIucliRVNPl00zIqOEwWsd20RBpL0hj8rIp1syrur2xIWlNMN6+iluO0jO2qaM6pjEMuorYiswplLKqsb+o8tgoPclGjnCepbtVybPc3r6OOX6XhWMtxWpJYT9P2KXW0oVHOI8toTirKmsQ40AbvJMp7ZKWjuaY1JC2j0hhDEgTKxMTn3GlS39qxBEMSApmrSYMndw25N/G7aCD4mDCNp+sbUnzLgmxIQojrgqcXNEWwKAJdX5Pj6YWaLHj6GCSBAscATRoCg9DQDY4BhoxoN7PcqtaL1pZlqUVX3TbwZO2yQ1T08ESTzSGCghBzz9rtjgNQnyhdNWzr0hbd5e26tF12gbRsnvW6SnR+epM+33v6OaSt/v3Ow/zfOy/skCPAD//wD/Poo4/yl3/5l7zrXe+6rW53d5cnn3yS1dVV3vGOd7wk5+Rtb3sbv/d7v8fb3va2k3UrKysIIfjpn/5p3vGOd6DUs7PGj46OXjm0/Vc+QhOEXgfvo06hbTSuyAh5FpXxl7q4g2nUK6w0tpNFVflZCcs93GiC6xX4NAEhcJ0sMg6Xe7ijOX7QxTpPEOAGHfxR7NMfTuPflYYsIfQL/GQR9RBnkTlJCMgQCL0CN6sI/QI3meOKDN/6ivlegZ+2dWWDK1KwPmordvObfc4rbJGBkjjr4v7G8/hbGosroqGjMpbQ7+AOpuAMTht8qnB5iis1vpNjd6/haotZ1Lg0ISSK+ukFiwRkKXG9hPmRYKx7GJUxKQXjbJmNZkyTplipCEAZUpwQuCTH+ZpG5UgCT05grLqct4YmyXFUUdsxGFRwLMixoqQSGUZERX1BwDnPWKQI59kRgpzATCQoAlOO2BaWXDTMWWJbXOHJ+gopcBbBFEkT5ngCVZgzawNaQdRZNO1y2M53hTa4TQg0wATFMgFNoGqvrUXLcJy2btQLHA1wb3aOv33sl+k/s8P84gb5/uTLXlcuO30MvJAI7QfPvokfPPsmFrbhn/7dVy/qW1Xxv+r9swfCn/iJn+BXfuVX+NCHPsQv//Iv30b++PVf/3W89/zUT/3UbQSSF7N8+MMf5vDw8LbhUCklw+GQn/u5n6Pf7z9n+xdiqPRUnPjFeJsLAbGooiL5rCLRNiKqeRURyaw6UZdXxkYV+3l1gmSU86iyQRoXA1ClYy7btGzV8EuSWke1hnnbV4uO1LwiqSISE8d6eYsmIrSqbWNcrLMOMY9ISzWapDGx/7KJvmvzqLyuKn1zzq5sbukzKvCrFi2KRayTZXQCULWJH+cRLaITbV1iHKpp66p2f42J6iDGIbWJhp7meGlRIZB6R+IMSfCkrkGFQOYtqn07Tr0jCYHUHaO3hsxbMhwdr0kIFC1C63hNJ1iK4OK6EOgETRo83WDIg4sq+6EhC55u0KQEusHSDZY8eHoheq310RTBMwiBfogq+Ev4EzPNtJ3TGtyCyJJ2WbTIq98iraWTZQxa3bYNQLc171xq1w/a7ynhq76ulLanN+kdIrS7FSc+LgcHB/zVX0XK/yc+8YlnlataXV3lN3/zN5nNZrz3ve89YTX+/d//Pb/0S7/E933f9/EzP/MzL+l5eba5vS996UtfMZgB/NZv/dYpQvuaQGjxVeXEmj4IEVHbLd+5ZRuO6wFUNHoMMq7n1u1VfB8JKtLag4jzdceoEKPh0iWEsbFeytjHrccgojFnaPPCAgHav33wbZ8x1yscH4sQN3/P8XG1fSKPj0Xc8lui8v3xtjfb3dq3IiQJtDl40dGzPQdtP0LGfVfzlPG8R270yfEEYj6jBxovMV7e9srmkTyzUOyIlJ4PpOKmcahH4BEYBARBKuLjaGYCRw46PrAIHh/ikKETktCSL2ZUHLau0/0Q+9kPl3iyGnE+eKyQhGDRbnriO3Z8Tbj2E9r9BzyuHWo8/gRkuxQEkQIBH/RJP+1/LKYvAH/51/8anyb0RhPmz+e6Oi3PE6H9Y5bjcfl32w/z+9uPfFVDjs45HnroIZ544omT/LGPfvSjnDt3jre+9a38/u///m3bv/Od7+Rv/uZv+MVf/EW+4zu+g263y2Kx4Bd+4Rd473vf+2WH9F7sYq3lypUrANx///1fVZvXvva1pwHtayao5SkhCEKR4coan6XRuFIKQiePAaTI8PMKl6WETo5XMi6lIOQpXrUPnjS5WackocjwjYnDg0UW87Y6eQxGedom6VrI07guS+LDP03wzhN8gCLFKwlFFhmHqUJIEeuzNCYW53EbnyWR6t8eVxCCkCUEIeJvEgKvTOyzrfNStkOm4BvR7kdClsahSyWj/JU87gtCqnBG4pNY74UApQg4nEzwwuBQeJnEQCBTvAAjEo71GpyQcchRJlgkWiRkIjola5HgEBgRz5EWyUm0MSIltOucEDQhIYmObmgR+2pEgguCpjXCzISnFooOUU3EtELBCoEhGmn6W4LZ8d8NULbq+lU79Fi3daatO17qdvjxOFusaberjr/fwXXlktOBmhdyyPGHzr2JHzoXhxzf+TfPzfBTSj1vqvqDDz7Ihz70oZfdOfnxH/9xLl26xOXLl9nc3OTNb34z3//93/9VB7QXopwGtBdriKLWyDQOp50M8Xh/Qn4Q3iPbYbygDf6Y+LGIhpGy1tF+BRDaxiHHY0JG1cQhOeuQVYOaHKE+e4A8mCGHPaRxSOcQdTTtFI1pCR82Djdai237oorDhErbqA7iHKKJBBFRNidDV8L7k+FI4X38fd7HfDcpkD5AY5GC2N75SPwQoGYLhBLIqoEiQXkQwYOw8PQuYW+CcAHhHMoHmi/WeCnQ2xljmTPUHpVZyirjwBbUMmVZVKQ+DgGmwZK0jKrEO56aS64pz4b3ZCKyGNPgyYJpjUnjMgsG4SyN9dSiQTuHDw3GW3IZhykrp6l9YMaEkhJPRSoUCYGd8lPsCkEneLpCkAZD6hYk7RBjD06GHBOgLzo4oCczVkSKshN6WDIE3TbAZSj6CDIBfaHIQoy4xzSOAri3/5/x4b/4cbLJAtfo531dKXOK0E7L3ZcPfOADvP71r+eP/uiPeOMb3/iSHMNpQHtRoll8W/ZeRvJF1URSSJbGt+ReBy8n+G6OW9TxTbpX4KYLxKCD35O4To5P43BCaNGUGHRwh1N8r4MzDtD4btEitIh2fCcjSEMwgtCJ6Ct0MvyRwGUpOI8kxHVKIroF7miBy9L4MPQhHvtRSehmuLnC57Gdr01sN4lv/G5W4fOUoCTeeujmeNHWLRp83qI3KaGb4SYCOhmubPBC4PL0JkKTELIUp100j5QScDiV4qkj4hIBIxRWpVjX4FSGswIjEmz7+mxkghUCLXKMqGhESioifmtEikPEpZA0IkUIcMJRiwyHoBaRVFITiR8Nkkqk5EhKkWJEQ4VCEdDAHIFrlzVRLDgh5oHNToYYI/JatNv22+0tgjk3RYZDGwRn7fYzImGk4aaSSNUiwLu5rk5JIXdwSz/HHNnv3fg0/2770/gQXnXn5f3vf/9LFsxOA9qLdfF7TzKeofqedO8oJk+3tijKONL9oyiIPJqQ1TEB2WgTk653Dkm0JT+ckTSRtp9MSxJjUTuH0SRz/4i0bokiBxMS50jHdezzaBHRkfMY70mcJx3PSawjb0klwjnC4YzUWMzBlMxYmFdR+kpb/OEMZS3JwSyaf7bsx8R6kklJ4mOfqXH4RUMQkDWxXTyWOfmiQrZ6dKmxmMM5qXXYw3lEFtfHSCVJrSed17jLDf76BKwjlyIONwpBx5QsqoRxpcido0sktgQXEE1FsLCkKoqWtt/zmjx4hm5OD8eqL+kES/CefoAkeIa+RDiLMgukd0jv6GDJCKz5kiJ4UjdF4ukTcL4kw7AeLB0sayFqNUJgK3iUr9gMDX0CW60qfg84BxSihwqCvuhzIenhgdxOWQ8lBYFzKJZkRiE7BCC3E84j6IbA2eBZxmOJSvkrwz4f+J/eS/51T7G4i+sqrU6z0J7/kOOXn0N71/lv4V3nv4WFbfgvP/mvXzXnZGNjgze/+c23rTueR3u2cs8995wGtK/F4qXEnVnB6j3sxU387iG+k8fEar2HvbCBKWv0uXXCzmG0c1kZ0FzZw9+7hSkv02ytQqegEAKz0oc8w9+7RfPF69hjm4/GYDaHZKMD7OoKpjbojWWoNVJbwuoAU2nM5pBEj2jWBnHI0Fj85jLNtQP82VWaK/s0y91oxLioMRtL2Mbgt1aod8a4pWjwyaTEbg4xV/exm0P0jQOalT5IgZ+W+K0VTNlgNpeRjUbnSayblIQzQ/S1Ee7MkKZuUxWyBDmrsMMeQpaYXhdX1fhEEZRCSE2d9mFeM0/6uFBSyRSjClI/Z5Et0/GGSdJnScU5sIUqqJziMFkmtYccJAN6rkIGy1j16ATLgVoic5p9OUChCcEwEV2WgmFXDii8ZVdk9Ii2QnuyzzAccV126Lg5ezInCYEpgitC0UNwiWj1st0ON14ELgENAoegBK6hWt1FwWUEawQuI1AIJkg8glXgEoIegUstJqiJydgBcOvL2FTd1XXl98Xpg+D5D7p8RS7Nq41r82wB6md/9mfZ2dnhE5/4xIkG5Vvf+la2trb4wAc+cBrQvibf5rxH7h2R9Bzq+n4UIC4bvJKk2qBbW/t055B8UeO0wdQ6GiNe2yfVhmxvTFqlUf1+Mifd1DTHUlnbB6S1JvnS08hnMtJZha66USrqYIq0PkpfWXdiuJkaF4OgiYnczd6ETBvs7hGZNjApWyNGiz+YkViH3BlTLGq0jaSKtLHY0YTEOtRoQqZt9EETgqwx1HtHpGUVZbgqjdAKRERo7mBKZh12NCVrdPTcMpbwdIW9ZimcJ6lKMmsZ73bxIlBNuowQDJ2gGxZkzmJswEtP1xuMnlB4y8AuKJzBBRjNDHnqGLop/WCxdk4n2MhAcwuEtSh7RPCWVTFDeY8PjhRPYysycYANDWvCUuCYiSMUB3QwbPlAZR7H2AoP9Nwhm8TctAsIVhFksosC1kTK/Uh6soMysJR0WDO7UctR9hAyZ4DnPiSrAjoiavdnWM63AS0adSo+8mf/Kzx2D+LnQR5MSYZ3eV0tOqc36R0MOcqvQMt/PrT9V0Lp9Xr/aN0HP/hBAD72sY/x9re/nY985CN853d+5yt7yFGEQFVFfcM7Lc5YlPeExlDeRT8ApmxIvMeWDaW8OwZY0DYy/M6sYJtd3PkN6vZNmiLDNAZ3vjVNPLsG2wetOPEAbRxc3MDMSvTmCqJT0BECM4xGjFzcQNcad24dfzDFdXLs2gBTG9zmMKKxtaXbEJotm1inR+iVfhQn9oGwOURrC1tDdGNolrtRnHhRY9cG2EoTzgxptg9bcWIHR2VECJXGri+jjUOv9CNNfLIgbA6xh1Ps2gC9P0X38jifOKtgcxndGMLmMs2ijonceYpUNbbXwRqL7XXxVUWdFQSp0MJTpn26taFM+1i/YE6OTgpU8FTZEo3XzJIeQ5VG6r0sqIVikixTGMs4GdC4EhEsR6pPYjUHYolBMByoPgkmIjTZ44yYsSt7dL1lT3QZoJmJlG1Z0HVzdmSXAYJtEb3SegiucdM4MwX2kKRAiuCakOiWol8iuc7NObVrQrEZPNeEJCVw2NL1h22fSwiuEJBAvdRFLfdjqkKL0O7mugq7giwEqrIhvBLvwcYgnKNe1Hftbyhc+IpDjr9z/RE+fOPRV90cmnyO/9N3fdd3cfHixecMZj/0Qz/E7/7u774yApp/+gZ25e4MPvNKw7V97P7dGXym1pFpi33qGvYub4Bit4usJZ0/USTdc3Q/q0jMENfmhaX1FuIziqw6C59JSM0aXgqcSkj1OvphyKotxCMp2ZN9hINsf0K6rvFPXadYVIhntuOc2qLGGNuKEh9ExLQzjnNoIWCqKE6cXRtFIeHdcUxkDqAbTVEbqiv7FGWN0lHcN9EGraNBor2yT65tK04cSI1FbB+SWk++M46ixvsTEILEWPRVR2osxU5EfUnL7kyco752QLE7xn9xm8w4ghA4HR88zOY0+yn60JJ5SV+U0TMvpKzoI5TzpNWczDuGOIxr6HoDzZhgAgezkkEdyS5rfgHBcsYc0HGGVTcmx6OCpwiOPDjO+zG5s6y2SM1gCG5ON3ju9VOWgmUgrpAR2AhQOItuHiP3hgGB17Qea5JAhqBPyhtVnxUhOZuuINvE7ExIRH1EArzeXOBH1Q9E4ofMqURK1y/4Bm/oeE2DJQAZ9jaDzx6S/keX4VKO8ILscY1//Sr5QYl0eZtvZsAPyfdLglshHzVI1yMVAi9rpOsjtudgh3T2LNm1aD/kvnAFP5++4u7BE4PPxy9h79bgc975ikOO777wLbz7wrcwtw3f+Vf/2ymcbcu99977nPVPP/30KwOheSFIX3cB+a29u3o7rD/9FM3FzRfA4HOB/uwzuNffc9cGn83I0b20Qf5/bEVzzdaUM22TeoXzJK0Zp1IyoqXjRGLvSZWE1qhTWKDKMN11fHEN+8AF6ievoe/bohlNSPcL7NoS8toIfWEddWmX+uzqbQgteWYHfWEdcW1EvdI7sY8JZ4Zw/RB37yb1Mzs0wx7CtvYxG8uoayPcxQ2q3TFmdRDJGuM5+uwq6uoIfX4Ncf2Aen0JpIj2MWdXMYuS5uwKbm+C6eUgBdm0wl1cpz6aYYscN55HFJunyKShXhrg9xrK7hKNrvAyzqHpuWWaDum7I8bpMj09p5EpOung9YRJvkrXHrKTLLMqUzyCQ9VnIRJ20zVW/QE7akjPl+TBMVY9Nt0h1+QK9/gDrollBA0uVIxFl8IfclkuI/0Rl2SXQTCkBLZll56QPCES3hDsCULrt3NnHQRPCMX9wJGMHmvnvOOLIuU76NNlwA/zL7DHb/suojbVEj4UAd8OVz2bwWf2Pw9iTZmQffTbEQ/fnWagm5XYDLJvuwd/F0aaL9d7cHFjhL+2j3zj/ai78EMTwOzvxqeR6cuUr+RnliRf/tzXdc1TTz31CplDE4I0S0iLO3c71VKghYBEUdxFPwC20VFzME/vuq9mOCfct0f5Xz1FVhxQ9zskjSFISUgE2S1mnLqXk9Qm0tRTRVY11L0OnXmJ7uSkn18h++2HSPRhVNS/tENx7Rph+xppY1Da0vgJqbHonTGpsaT7k5gv5gNaWxJtUNsHZFWD956knQ9rdsbt3MqIrDYwXsR5slrDaEriPGF/QlFpxGga38a1xe1P4xzaXkRh4WAWzThnJXVVkzSGZH9KXmuUcwQE6RdvUF7dJ100mDwjnzbo/XhO7L6iObJ0gydvZuTOsT3v44SgY6EbZmTeMTBzusFQOEcTDDszGC8WrLvAqpjTC1EweOAqGuHoNkd0vWWNKZ1gqbUjEw7vDD2O8K6hYBTz2Ii2MlqMKVhghWYrCIrgOdRPIoKnHwz3Buj7BZvBIIG+7CAQDETCA0mfTQQrJAg8mZ2zhaCfD6makn+f/lseFY9Fd2lfMQmBVVcxwrGEo24VQAo8h8A6CUnnjSwHwX/3s2+ByRLZH3wT/n/cQd1v7uoanX/+MqHjGb7mLFH6+JV1D5aJigafRXbXBp/HsEx+FXNo8lU2h/bwww/z0EMPPetcGsAjjzzC29/+9met29/fv82V+2s7oL3Ciy8C+r8wyOYGzevvQe+OCe1cB5d20A9cQH1hm/L+c6THcx2rS7gr+7jXXUA/vkt5cYM8Tck+DGalnUO7b4vmyhXcaj/axyiFXV+K8ydbK5haYzaWMbfOoc1L3MYypjHotQH2FoSmr43g3Cr68t4JQvMCzHpkOYatFertQ+zweA5tgTszxNY62sFcP6BpDT69NXEOrayxG0twC0LzUhGW++ja4lf61I2lSQQuSbAEqqxPqifooo9rKqaqh5cK6aaU2QBpj5ilfYKJCM0kHSaUjNSQwu1zqPpsiYjQZqqgRHGYDMnMAQdqiZ4vaYTmUPVJnGZXDMipuSF7FCGSP8aiy2bY4arMyJ1mWxQMMIyC5wpQILgsJFkIXG/1FDdEwlUka0JxTXZJMYxlgfBxXu2KUEixhBOCZ9Quf6wexQnBkh7xDPBgmPJIcLwmGPbxeARbeD4PfJPI+MiTP4G8skuZHSEOErKPasI9Nbz27gKam89O5a+ed1wLCBG+4javtvKpT33qOW1iPvaxjz3H+Tq1j/maKNJ70usjkiVLemmHrNa4aUlQ0eDTPbND2hiKq3uxrmqws2jwWX/xOlmt8ddHZPPW4HM0JV3XuC9ep6gauNGQmmjiqXccmbHY66NolrkzjixL5zFVE1HbjZi/FvYn7RxaaM07Nf7qiLwVPxY+5qGJnSNS41DXDygqjTEty9E4wvZhZNK1BqGMphFxL2qaG4cnhqJ5Y0mMjfYxrbNxbiz+YEpWG2RtcdKgfYIv52TeU1QRoS2ZBU5ICu8YNBNy7xjqKYW3dLxFO83cB4I5pBssm3bKwEeENnQljbJs2kOWgkHYI3IcVbBkztEJjvNhQhfPRT8jaa1d+sGghOdev2AJy0Vfxbk3PFnwDPG8LnhWCCSEmGsWAolw9JC8NjSsAsuhIbRo8bXBkRNQIdDFcW8w+DYXTuHoEXgdnmWi+HBojUAfQLACJM9sky+iakrYP711X9J7+jmkr3772qP89rXPvCoTq9/5znfekWP29vY2f/qnf3oa0L4mEJqU6DOrKDvCXNjA7U9ODD7V1T2aCxukX7pOfXYNvzeOBp/DPlzbx9x7Bv2Fq9RnVqBbRIPPlT5ifweXr9MA+swKdrJAaYtZ7ZPcOESfWSG9NqLZWIqSV1WDH/bIyhp9Zhl145B6dYCqGoSLBp9y+xB7dgV97YCmX8Q8tKqJhqA7R9g2D80Me2AdYVKiN4dkV0fozSFq+5CmSFr7mCwiwVrHXLjPXUbbAAKyNMGuDqgvHbCYSZoF+CLFJQk+8TTdDkfbBfvZCrmtsInCyQRjF9yQK2wyZpL2cbZEy4RGFcxFxSgZ0jEjDlSfTZHiA+zTpRIJ+2pIYw64Lvv0fYVzcCC63BcM23JAguaG6CCpMOKQA5HzBi+5KjrkwfP3zedZbskk14QCc8QTBL4BxY7okgDn0hV2RcI6nuvJkGCPuFxfj3loIuWKSCgxWAEzLF8whzhgzddcar3XvoTjPuCAqNH4+J//S/T9Z8m+eJ3m4ibh+gifKHDLJ67Wp+XlhdB+5OKD/MjFB5nbhn/y8X/zqjknm5ub/PEf//GdPSO959y5c6cB7WsDoQXk0RzVcYjRhGxRRQ+wREVblYM4z5WMZ6S1jgHGeVJtMPsxzys5mqNapRA1r1BdB+NW3eNoTlpHqxc/ibYgcrKIfU/KaKBpLPq47mgRVT7mVWsoGvBHcxJjacZx6Rd1RGHa4iZlnGsbz0kbQ5iWUUXEOuTRIhpvHi3icS4iCovtFigfUNMyqnk0sS6xjmZWkTqPqBsyZ/FeYH3ABUGia5KQktmKwhmscDhvSYOnsBVJ8HRcTdHaxMjgKfD03II0ePq+phO18+l4jQmOvl/QCY4lX9ILBhMslooMz3KIy2GoERg0joCOSiGhocCzjqfbzptsBE8X2CDQBVbbIcc+nrXgyAWsB8MgBNZDVOLvCsl68CRE/7mcwFrweKAfAht4MmAdiIT8qOWYNAa9FxGyHk1Iq5hnFmbl6Y31kiO08BW3eTWV17zmNXd+PqW8q/anAe1FLEEK/LCHs4qwtoxuVfFDnuLmFW51CXc0xw77SG1OEJqtGsL6cszlGvZJstbgs9/BSQXDPmbR4Jd7GFHitcUtdXGLGr/ciyaeS1183SBrgV/u4qYlfrmHXTTYfkEoo9BwGPaxZQPDPnbRYHp5nFsTEjvs4cqGMOxhGoNdjghNWR/7nFX45S62arB5AkogQiAs9XCTErfcwyYKI6KNjPAesdTBHpSEbk6jHdNxgVMJPVFjs5wgPDYrMMazZ7o4qVgLM+qkg3U1lSo4rATbNqWUBRtiRpV0sb5iLgtqolJIJVMOrOB6KDhPxVRJD0yDAAAgAElEQVR2CB6cgIno0PEVV4QgwzMWXSQOKxSHIkPUn+YxkaCD4wCFxePtEdfaoDNCsAGMiUobqbfsicC6b3jaRiuQeb5KFgS5WiHIDoeL6zgcI3OdES5ayPiGPTzn8BwAq2qVP/27XyIIgT2aEzaG2OmCsLaEqXV0LeifJkO/XBHardu8msr73//+l7T9aUB7sS5+HyKSKRxyNCEr6xOElhiLOpjeRGiNQfqA8SG+nbd6fMnRHKVvIrSk2yImY7GTRTQMdR4/PUZh84jQpi1C04YA0dRx0qKpeR0Rmj9GaA59gtDicSfO46bRiPQEoc2qOBxpHWZSRrPQFsWl1hKeDaHZmwgtdR4zr0lap4DUOXJnscGTBk+iG3xQ5KYi95aOa3BekgZHx5akwdOxFT54eh5kCBTB0nMlGRGhFS1C63pNjmfgFxTBseSrE4S2TEUePCs+Loc0CAwGBzTkwHrwdAis4ekRcMAmgd4tCG2tnUPrE1gPjhTYwDNAIIMjRcQ+giEl0r/zts9jceINAhmwAfQIpLOKICDRNl4D2iJGE9Ja47U5RWin5WVXHnjggZe0/WlAe7EQmohzREEKXDfHaYNrfav8rMJ3c/y4VT6vGmyW4DsZfq7wvQJ/ED2tQtKacI728RcDvpNFFJanCOsBi8vjfnyR4cUCpwR4QUhUu66MqvZK4tIkBlvv8UWKn0V1fj+rsHmKaC1f3LGfWbfA1fHYhXM4bXFFStAa7x1ea1y/E3+nc7HPnUPcYYqvTFR1F4L6mTl1X8LIM7F9Oo3AK4FXip3DgqOsywolRiUkwWGkwgmF9xIrU67Xli/RZdlVaKFoZIoNmkakmCA4Cglzr6KqvZC4IKhFxtxVjLxEB0EdNAcIMhwL0WFOw7YsyfHkCBYiIUFSkmBxjM1emw8mmCMwKBYiIcgMKyOFI8k2ECIh9xWegELQV/cTqDkyl9gVCcYtEQg0zjBljgNSPHMCWX6ev/rbn6cYTdBZAlLitY3Xh4rn3y9qnJKEPD29sV7KIUdOvGOfc5vT8uKW04D2ot0B8lmdnqNrcOsyfav8gJQnTtfRSDkmYse6ViWudXs+3uY2+YLjutscotuPvH2bgGj7EDf7Pj7W4+1Otm9drm/p/9Y+w/E+j39PuzxZL1p67sn8wi3b/IP2PIuhfTje/rbPzf0FIfCBWxydxe3btHNTt/Z1vI0XgtC6Tp+sO+nnpjnnsy1vfhcnBp7+tv23/d/6osPthp98uf/pybUjTq6hU5r9y3fI8YNXHuODVx97VbIcTwPaq+UGcB6homml8D7OT8lImRc2Wp0IF+nwwgdoE57jMrY/froK3z6KW9kq0VLvY9t2I9vWtfuSPrTbh2ieGUJs59tHvfMQQtsuHoPwN78T2vY+fnABEbjZ7vhYfCBwSzuAEPAHNabRAOQhgA8IAUo6vBPsT/oYqeiFBhECc5NwJBK61qKEJwiBPAlHMWlVCUgIJHgqC2XwNC6gZCReBKAynhLHwmsSXzMVAYKhQ1TkqEXFTFZoX6FCQRMOmekdDoVkhWNDzjikqACJIAUy1WeQ9OmKBKM6qADeV3ihUSScTe6j50dcsU8ig2WgRzRCAheIhHyNxKGA1e7r+Y9/+y8YXN1jdvL/jnJgN89tey14j/CC4P3pTfUSB7QvRwr5sXu/iR+795uYWc2b/t//8/RknQa0V+Cwo2qRWZoQlCIkClLVrovDYyFNWgUR1X4X7Tax7ngMIxyjqETF70k0wJTCn+yHpG2nZDTcDAGS9hgSGdFCovDWRR+1tq+TPlWLDKWMQ53HfbbHh/ARTSWqrZMn7YKUBCEhaVGGuolKA623mZSxvZQn67yI67yQSOLfXkhcu4woJ+r6OSFxiLgU0WrFoQgILPH33Yq+LAqPwKJwWBwB0yIx0yJA2w5PWkG7LhprOgSGKD0liAac7qSu3VaAC7R9giUen2790Hy7/a2o7ri9O/7ft9eHF8RroEWcx9cJWRwq9kqCUqc31csUod26zWk5DWivvIs/BNSsRPU8ydE8mnEaG2n7LhI+pPOk05JERwNNvCfRFjWO5I7s0cdIrrwmkkLqJpI7WsJHMitJtUVah1tEYWF1NENpS7KoI0nEtSjHe5JZFY0+yybax/iAm1Uk1qNmJYn1+KpBBCK9f9Eg29+QGIufR3WRZFGRhth3Mq9R1pFWUbIoubSDvSKRpSYJgjR4nPUgBHYkaSae1EiSVJN4T+4tMngWTUJlA0M8XdvQ8ZZEOFyQbJcJN0rHmgv0VYNyDucDQQTy4Bj4isQ7gqlw1rZjeZpEeZZCTRE8yzT0sVTiEEQCaFZCTuP30HpKTqAAvHA4M+JYxGelJYBkssMZkdBXOZsyJbELMjdDAmv5fQihyNwMb7+AcyUdu0DhSX3FEIHCIYEMx6Mf/1eRJFNr6vEM5TzJZEFqHCzqE5Fn1RqyqpY05I0jLKrTG+ulnEEgfGXaPqcB7TSgvQKLlxK3PsSaXdzWKs3eEa7IoMiwVYPbWsXNK8zGMsJ7bCcaMWrjCOfWMLMSM+wj84RcCGy/g0gT/MYypjbYtaXIbtQGuxrlrNzaAFM22JUBttZI62LqwKLGtfJYermLLBuk8/h2nd9YRteGZtBFeI+v2z4rHeusj4nVxqKqGrsa6f52tY/RFr3UjfJWeYLvFdhaY5c6MCpp8uiH5mXAd7poZ7FFB9c0VCrDqBRbGxZpj57TlGkPb0u0UHiZ0IiKiewz8JqJ6tFzc6YyZSEL0uA4UgMGvmEsu5QkeGAqMiokB7JP8Av2ZRcdarRI2BU5y8GyKwoSIdgWii4xR2yEYgBcR7BEYIeoeF8A15GsItgWKV0h2A2tOLGQ7IqcvphzgxSJjMLFAc4CN25BaRWgV5ciej2cEc6tYacL3JkVtHXxPAoBR3PCuTV0WePPrtE4T0gV6MHpjfWSIrRTg8/TgPZqfZvzAXkwQXUdcndMtqjxtca1tH25dxRp+23irLQOYyxprTE7h6TaRGp+YyEEknlNagzNaBpp++OI+pTzhPGcxHnU4fyE7i+tR3mP9iGitcM5qXHYSURcIkB9MCXVFj2akmkbqfkEEutxLUIQoylZWUPdRCcA6zDjRdzfeEFqHe4zz+CBzFhqD2K3JOwa/KHD6TgEmXmHrkt8KdmbJPSspyM0ibfoIOiakhRPxyzoeMOlRY7Fsuo9yyzIgmfJleTB4rwnCQ6nNdj/j703j9U1q+s9P2s94zvv8Zx9hqpTE5QMDQ4dB8pWiFGE26k0DrftVoia1otJaYzIRQw0BaiQ1mDEQGQQGTS5hcnVaBpuI41yhVwaHKooQGo889nz3u/4DGvsP9az9zmnilPA2VWW1N0rec+7z/usZz3TWs9vfdfv9/t+x1inmRMFLQwC6HnFtquI2CJDseAEXTQ1Jiz7uQ2EPoPEcgyJtCWYXfpAhuMY0AGOAm0gEynILITo2ymLcY+OHBABfR802BKvmNcTWq5k0U6IgTaWFQS/+9v/B8nv9fiD//gLFLtbQQy1rKnWdoi0JdrYDYTQ3gf0VmvU6jZJrdFrO2RFFRKrR9PDgXVYnlHlz//8z/nJn/zJb32DJrynmFXYAwxSZ2xghC9rpgcc7Gpa0nGOaloyPWCkkq914N5bGmD1Gm5lAbW+i20FhKaLKoh/jmeY5TmEddh2jp8PiEccX0KPZpi5DlGehCW7bo5IYjgSqKXcYo96OLsaoTXfZr4LlQ5LnHNdzKzCLfTQZY1uEJuwDr/UR1UalvqoSqH6rRDgUarQVlHD0gBVKUwnBeOIhlNsg9DsQjegvnYgIGZWwaCNkUNMnmNHFXWahkUYr3B5Gz0t0WmXyk+wQmKiBF0ZiqRD19WUSRdvZoxlCyNiOl4zjjr0bM04atO2jrFMKGSLltAMZY95X+0jNA9MREopJNuiQ8drtmQb7UuMiNkQOZEQrIqYRe9YEzFx4/PaQHCkQVVzwFrz3SIguTkcqyLmCJKhSBrvXcSGyEmbOgmCNQQJnhjBJcA1vkadxKj5XvBLbo/xxxaxwyn26AJab6IGnTDF353A8SX0rMIdW6C2FhdHCNUF7ymnBWJUH6iPShXyAw86bv7NjsFKIa2lGM+CfNNB3lUmBOMI6RHy6/jQ5OGS4zdT3va2tz1zDJo/s4ZbWr3+NpwjqxRc2sbsTA50Pqk2JMqQ/X8j4ukQG4f8KWFCTlZaaXSWEGkTHPSANBaTpwFVZQmRMiAl8XoPWUS0PhkTt4/T+lJMrOdwMrzYkvoY3J+Qlsfh/pREL2GlwMUJyTmLzlfJKpDJMsmZJYSFbDQjXtTYhkiYSzsB6SmNrhRJrcjWdki1wW2MkMYGgc9KkWhDurZDqgzskxODurhDXin8xW3y2hANZwgPkbXItV0SbdEXt8iLGl0EWqxUGfx6oGXK1oeBnHha4gF5YUp1ekqsDLmeIY1HqAqA3d0WxQg6NqIjRqTWMtIJVmja3uD1iEvTiJ1ZQctblphhEbS8ZdmMkNbSMkEGJhaG2imEV3i7Q8tZOnpIoo8ggWfrORbFszklEhLR45SFjAERRymRpG6J21C09IRbfUFCiGYsgQGO5zRLjd9PF8OUjD6FS1mULb6bnHknsS5DAIW5yK1A1z6L417Rw1M2PrMcz3cB8QNLCAXpV+cRPqQpJDpGZZKkOE77/oRELZHGIVAoNjnRvYK0PIK8NyKpF0KwyKiFrCTy0VWsPoDx8J72tAz5gV85e6B1sqdiDCaPrgbuygOUVqXIKoV94DzuIOrX3pPPAkPLEylW708UDoNC9svm5iaf+MQnOHv2LMaYx20fj8fcf//9z4wlRycE6bNvIP7O7nW3YbSh+scHqW88Svf4wcQFy3GB/ts1sve/DDmriPI0UDYpA60MOSmQnRxRqRDxh0BqQ9LJEbOKqJMjyjpEptkEcW5A9t4XXyXwyRMIfMZNzpFQmiQSYBy5lAgroM6o8wVcmuBOHaE6u4E+toAazYhmJWaxh7ywjTqxSHR2k2plLiA0ZfALXeIzG6jji0Hg88gAOa0CEjs6B+c3mzY3qec6QYh0VmGOzhGd38LeuEx5fhPTTsE6XCPwGZ/bRB1bgEvbVINOQGgbNTZvo7ZHVP0uYlYykzkgKGRC0ZpDFLvM8jlUNWHoc3SUMqemjLIBpZiykczTNUEixoiYSA/ZSOZZMlusRnMs2AmlaBCa3uFSvEisNrkg2txCn5w2/07/JGCxCAQOK0D6EIofVLAdBt+Ia/r99DgHJI3PK0XSps+UMd6GbXETYRn70H8F4H1YxozwaPaEOkOJaAQ6/7yPmObE/+lFRNmeIfD7Qq5X9YFmspdEEqwLIq/W7ecGCueJT9xK8p0HYw2ZffkMAJ3n3XSgdp7sMai++AjuOTeSH1Dgc3JxC39hk/jbbzswQttsBD4Poxy/8fL5z3+el73sZQyHwyeUlnnmyMcIQZxEkB6M/UCFxCbSg7aTRMhCBob6/+XzqJN1Q0Okqds57XFB2c3JisDqAYJEacpui9a0pOy2gq9DSlwUwVpEHXfIZhV1t0VUK7yM8JEgLWrqbousEfhMKo1pBD6zs+eo85S8qFFZQvLoCsnHf4REDUmVQV3YJCsq/MVN4trs+8kSY1Hrw4DGNsfIJspRaROi5dZ3g3zM1iREOQL16g6ZMsxWd0lrhdgNuWqRsbA+JKlq6tOrZEWNrBXCBYTmNkdE59aJNndJq0a4VAik1pSmgJHHjmoy5WnLcB+VE9gqkC6rSUVsPQMqjFPkztCtx1TeM69HDU2VwiLx2hCbEZGzLPkxuVFYp7HUCF2Tm22EV6zgSJlQUvBXyX/mYvRFtkTEwGsmIiL3DusnzJAMvGIDR1+P2dxHaJ4CWMKzDfyPvJD/nd/kI7ydS8k6pWxzRGSMREbL7jT40eP1iAkw5zUbWOYaBpAIyc358xiKmLf++x8l/uiLMP/rf0M9Zxj6ldaoPCOfltSdjLRUmKTpV1pTtXPyoqJq56RVjRMSRj3S//JcokWID9jfp03C/EHHzZM9Br0QyCQ+cFuiSRuJk/hJEPjk6xq0Dz76FT50+ivYw8RqAH7jN36Dm2++mR//8R/n6NGjRF8j5WQ0GvG6173uGWLQ/g0WF0lkK0OdqCi+M4JIEm/N8DctoL+0jnrWAH9hjOqH/LBsp8I+e4n6gR3MsxZx5ya4JMZ1U7i0RXVrhnzgEvVzTsHaEHeFwGf17JPIB1Ypbz2OXt3ZF/j0f3cWd2oZ9cga5cocNolIPgF60IY0RpxYpD6zgTk6F+Rjao1Z7BHXGnt0Dl1p1HL/KoRmShUi6fQW9VLvKoRWX9hGHF9AnTGPQ2i6rOHYPPXqLmauA8bB7hRzZIB54AKm30GpMXUT5chGics76E1DnXbAFdRJYDIsZUydD3B6xCzp49QYKyQ6SqGeMc361GLKbjJAmymqQWh9bdmMBrS9Zivq07VjdkXMTLZoa82qGNBxijXZ5ZRIcHj+OVrnbHwfX4563OomnJVt5pzCuw1WZcKzzYT7RMxtdp0v2vF+lOMGgu/Aci+QARrL5/kiDyYX2I6Xeb6LOBMtccQ8wHlviYHUrnKWiOf5in9wipvxrOJIiXno4/8z9U0rmI9uEWUC9W27zF5WNP1qhL9phehLl6iedRJ7YQvVD0g325lgnn0SHthAPesk5twOLokROwnpp+zhQH365uDXXJ39uVufy8/d+lwmWvFt//eH/7u/VxsbG9x7773E8RObm4985COHBu2pKtI6ZFGTVgouFcHXoQz1QxdJlcGeWSMra5JKNWS8mvKhCwExPXyRtFlytKMZWaXwp1dJlcE8cinkEkUznBRB4PPR1fB9dp20UvhHH8UkMVlRU53dJFMavz4kLRaC72p3SjKvsWc3yYsacWmbWNtAaqyDwKe9uE2qNG5tGK7FXRb4TC9tk9UasT7c96HVypDXmvLcJnmliLYteIitpb4UfG7m/BZZrUOwSq1JLm3jL26ROEe6MwmCnQ9s4hHEtaUqJyTO0SqmuKnE2PAG6HmFrHaIvaNX79JyYbHP2Jq1acSkKGl7yxG9S8sbjKuxCKQ3HDO7xMbQN2G/lJrKVwivwO3QwTDnNsncEgJY9jN2sNzsRnTdhGN+SNs7hDe0nSPRuxy3Mzo4noUMLCAyDjIuTnE70CUiRrAi2tSixVEvaPkdFs0OHTPmuNNIQLiaGEHHa74NyxwJJ9vPJhEJ2ayCM2vEejkQO9eK9qXt6+5XbuNw6B6Wp7783M/9HKdOneLuu+++7jZOnTr1dY0ZwB/+4R8e/L19+MiujdBcK0XlCcXRecpji5S9NurmFXQaU91whKrTolgaUC7PUbVzzC3HqVsZ+uYVyn6bYr5LeWyBupVS33gEncaom1Yo57oUR+aoTi6j0hh16igqjalOLlPFUGQxaq5N3UoxJxdRSUy1PKBuZXghUIMOKokxJxep85R6ZZ6y36Zsp1TLgxBBt7Kwv18x36Xot1ErC+gkpl6ZR6Ux5VKfotei7GTo4wtUWYI5sUiVpxQLPcpBh6qVUa/Mo5MIc3yRspVRLfUpBx1qKVH9FjqSqIUudRpTpDlFllPGMXrQRUtJ0eowkym7cZvduEMRxRStAaWMmWRzTKOMcZwzSrrs+oQLckBJxGY8x47M2Yo6bMZ9ShGxFg8oRcQF0WNXJGzINqvRgKFIuCDnmBJxVrTYESHKcVPkTBCclm12hOdhEXFBCLZFxGmRMvaOB71h7D2PIDgvJKsi5mGRUoiIR0RC0bB+DGXGtmxxTg7YwfMQgh08Z5FcQLDlHQ97xwzPA3i2gD/9x9/gg5/7Vep2Rn3jEWzSRDlmB+tX9fLgcJA+nRNe6b+hz7dy+eu//ms+/OGDI8ybbrqJ8+fPf916Dz/88CFCeyoRmqg1iTKku/V+vpBr8oXizeFV+UJprdF7+UKrO6SzCh9JbK3DbxtDIm2RaztX5aEl2lCv74acsc0haalwsyrkoSmN3ho3+WQz4kpfkYdmqDdGJLXC7DTsI9bBMOSMyZ3JVXlo0rkgSWMs0V4e2rgIsiRCUO1MSbVBb41J1J6IJyRlhXOOuNawPSatNYxmiEqFPLRxYB2R45LEuHBPADG06HGFHyVUwpMpT0vUgEBVktJoEg2ZndKyCiskiTPkXtC3M1Jv6dkpXafYNQYpJLFzzDV5aPPMyJ3GOIMRCnxB6hzOlywg6TQpzJkY0cJxxFX0vOQ4gj4R0/JRciDxhmNAC88KIXE68w6JpyNzTiBpu4zIS5bjARO/SeIMbW85iiUzU+ZcjQRaGFaAtki4NT3GCZGSbI8R1oY+sL6LNHMhCEQb0t3JdfcrPzzMQ3t6lxyf2UEh29vbfPzjH+eGG244cFtvfetbueuuu3jDG97Ac5/73GvW+73f+z1+5md+5tCgPWU+tDRBpzF6Pg3chjsT3NGFIMa5NLjMjCGCoCUrC+hpiVtZQBuLSyJsp0WkDGZ5Djua4Y7OozaGQQ4mTzFFhTsyhx3PQpuzGaad4ftttDaw2MdMSsygQ5TF+3loUkpY6KKLCjvfwY8EkTaYucZPthByzsxcF65kCpmW2PlOyEPrtfcprvxiD10pWOyjixrVayGsB62xgzZmVoU62qL7bUQcIZMIO9fGVgrbb6G1QedpECHdUSjRQbuKSdLFiRlVnAXCYC+YRj0ibVBJh8o7rIzQMqEWmknUZuAqJlEgntoiQhOTERhCWqZiSBvrHbteMCGnxZBVkdAXnm2REwinYEuEAI9NmdPxFdsixXnNxJVcQjQ5ZoJlBOsIOghaCDYR3CBbbIsETYqwMRk3ULLKtszxVrAmJLE3bHhFDMzhWAOOiIi/ffD3iM5toBd6CGPD/T8yj4vEfh6anu9dd7+i7h4O0qfVoD2zmULe9KY3cffdd/Oxj33sG6o/nU55xzvecc3tJ0+e5Pu///t54QtfyO23306apldtn0wmz5yw/X+zCE0FhGZ2qjCTrhRubYe4mUmnlQo5dBDyzy5t78+o0ybK0VYqIK31nYCO1nZIixpbKVwkA1ff+i6RtiSbI9JSEc0qjLYkyqA3R8TakgynJPtMISXxXMgjS2qD2Z6QKBOYQhqEFm1PSPaEQRsCYmVd4IDcnpBoi224IAWCejuwjqjNEak2MClDWHitcQ1TiNyaNAitCAjNBraRyDricUGi7b6PJzYWbUqk8+QqCHXS0Ct6H1OrKZm35A0biPMG7QzZPkJz9O2UjtPMeYHxMohw2rDfvA9sIB5P6i0Cy7KbNXlrJZ0m/2vea0ocR11FF8tRr+g2LPceTwvB8QahHWsQWoonboJDjmPJCbx8XSwDbzCuJMOz4jVdPEcIYfktaNoCsboTWFWavpQqg1nfQdr5fYSW7Iyvu1/54eRwkD6dBu0pSqz+27/9WyaTCXfeeefTdm333HMPP/ADP8CRI0e+qf3uvvtuhBBPGJr/6U9/mk9/+tPXmACIQ4P2VJU9FnsTSXSnBZFEOo+d62J3J9h+B1MpdCvDS4G0DjvfxUwK7FwXU2tsHGFbKUmtMYMudlxgBp1ABpzGuDTBzirMoIM/fwmrRpjRDJMl2G6OURrXb2GnJaaTEyWSTAhsnmLjCNdrY8sgqsm0xBuLaWfYWY3t5qHtdobbIy7u5rhphe22sKVCtzNcJZAebLeFKermeAU6kkjpEVmC6bawRY3ttdG7E/RoCs4RSYlpZ6gHdql6AjktGY1aYanMK2ya4oVCxSl1LRn6HC8EHVFTxznGKuo4QxnP6VlKJRMWZUEZZThXU0Y5MZ6ZkGgiEqu46BOs9lwkYslDScxEZOReMhQZi5Scj8bc7KZ4YCoiSixbQtD1MBQxeCiAXWBZRAxFxnEhqeIe4HHOMEGykN3OtmzTUaew1jMUNRf8RS46wZHqHGec5VkYho28zP/7qXdQLQ3oXdxiMtfFlDWm1w45htpgBt3Qr4Q4cL+inR8O0mfQkuM//dM/8frXv55PfOITvOlNb3pCg/bII4/w5je/mfvvv59Wq0VVVfzSL/0Sv/ALv3Dg61pbW+PTn/407373u7+p/brdLkmS8Ku/+qu87GUv+6aN02g04qd/+qcPDdpTZ9GARmNMWovf0xrT5mqdMucQvlka0vayvplvlKCtu+o3jA26Z1Yi7eX6wGV9Mu8Rxn1NXTTgMfpYQS9Len9ZG22/zhVtOn+Vdtne8aR1CMTl9pvjStcc/wodNWxAPTQaa1yhxUajqya9xxGuAR/ORfgg4iLxwTXkQTa/Ce+QvtE3a+pLH0RWIu+I8ETe44RvdMlCnYjg54qa3yQQN9ti7/eZziPv97dJD7EI+8im8wuCpppo/n/lRzRIbb+txnDF/vL+0RXfwl3xnJt+Iozd/21P9w44eL861EN7Riw5DodD3ve+97G+vs7nPve5r1v/3nvv5Qd/8Ae58847+fznP0+SJHz2s5/lpS99KV/4whd473vfe6DresMb3sDb3/7269p3YWGBt771rY9bTvxGy/Oe97xDg/bU9djmHyFCsvCeztiV2l7isto0V27b+75SbThqNMWiRlNMiv0k5McqVnuuUJjea7/RJ9vTYr58LkAkLqtC79W/4vy8sM22ps2oUX2OInwUgXOX29/bT1yhSL137vsK1o0GmjSX70tzv/YUp8fTnEnUYc5OIW6uy19WpfZCsKsT7q9azFv3GFVqyVAJNixULjBxNOavMVlB56zwhh1RMCbhOA4rPM77Js051DO4feXojeJ+LnhDgacb9QAZhDtlC3xNaaYkMudU+r30RUrqJyS+Q+IzPJ4pY6ZqgzGwQNBm8z5oq8m9PhNd/by9bJ5Tg/qvfNsdtF8dlm/9MhgMeO1rXwvAhQsXuOeee54Qxdx5553Eccy73/1ukiQknN9xxx289rWv5e677+ZFL3oRP/uzP7u/z0033cTZs2ef8BxOnTrFmQAXBbgAACAASURBVDNn+OAHP8jLX/5ylpaWrutaPvnJT16XMVtbW2M2mz0peWiHo+LrwrTLSE3s/U1AGfgw096rs//ZU3i+4vc9heF9ZWl/ua29uuJKW+qvPgWuXJe+su3H1r3yt+b8xLXaxF9xDpd/f9zE8rHHw3+NtrjquI+bH1xx/uKqY4W2rrr2KxoQV5g6cdU98o/Z5+ptlzv44++taDq+uGLbY///tdoSVwwa+Zj/X3n94rH94THP+cr7eqB+dVievtL40J7owzfgQ7tyaS7Pn3gZ+Y/+6I84f/48P/ETP0Gvd7V80M///M/vIyyt9f7vn/nMZzh9+vQTfj7zmc8A8KEPfYhXvepVdLvd/c+5c+f4nd/5HbrdLn/2Z3/2lCCsRx55hDe96U289a1vpa4PRrR9iNCu1dGc31+SiyqFlxKpDbJhp4/KIDDpao0XTSL2nphmEcQuZWPEIueJShXam1VEOgR3CGuJNtaJd9aJhjNkv0VkAprylQjEwGWNdJ6o1kgTlvkiY8NxyiAZE1UqJFYbi6wUwjlkpZDOIWu9HxRim9+iJsQ/qppt3iPLmkhrovEsyM0oE45rLVGlEaMpYjhBFjVRliAKhT87wWclakOgRp5ECZLYhoRyBxGaWZ2wqxO61pHIoPkc4UmcAhyZ0yQ4oiYIYlQ7plLR9ZaWV6TeUWiHEZZSazQlY1cykyUpmgyJ8aDELoYZWtR0SEgbA9EmYnf2RcbesSBzFmSXPp4URx+B8DWJnoFMWEyW6MqMk7LNQCQU7jSaMbVYDEumriZxNW0gchUdHL30GB/7m9chnCdSGllU4f7PQh/Yu9fSOqKiBpc3y40H61eu1oeD9GldcvzXD9t///vfD8CLX/zix2274YYbuOWWW3j00Uf55Cc/ycte9jIgRBd+o+VP//RPKcurhWNf/OIX82M/9mP8yq/8CkePHn1K7uUdd9zBHXfcwbvf/W4+/OEPH8gXeGjQrlH2wvZNGqMHMURRiDxbGmB3JpiFEOaueiEIQlqHX57DjGf4pUEQy0wakcta4xb7QR5kaYDyPoTtZwkmjnBzOWZaYgcdtHGYPMH1WmilA13VuMD028RJE7afp8g4ChIzZY0ddPCiIFIGO+hgS9WE6FfYfhtX78nHdLCTcBwzqzG9Fr6sA+FtE3jg54IcjO7kCOfwBdhBG3tJ4Ns5WofAk8DCK7GtDCEtJssw1qDSBC8kKhKYpIUUBVWckzpDJdPAz+cdKm7jxZRZ1CbxFiMklUiRaCayzYKrGMs2wheMhUSLmFjUDGmRiwm7IiHFMSNiLDK8l+zIlKNWsS0SCiFxwETEVE0Y/rIQbAqJw9Hy4e95H6RiVhBsCYkWERORMBRtBIJtkaIIbc0EjIVgw0Mf2AROItD9TvApTkvsYh87LvDLc+hKhbQJHYJC7GI/aJlJgUli9KBz3f1K1J3DQfq0GjQQ8uvXebLK5ubmfuLxtXK5nv/85/Poo4/yiU98Yt+gfTPlxIkTjzcQcczCwgK33XbbN9XW1tYWp0+f5rbbbmN+fv4b2ifPc4riYETbhwbtWisKziOUIVaGZKyC1EulsNvjgFp2JiRKw6RsiIsNanMYEpW3RiSVwmmDbSLc5N5+2yPSosJqgyujkJQ8mhEZRzQuiJVG+CYJWlvUThDsjHenRHVIuI0rFUiDd6chtH80I6k1kbZBudpY5Ch8R3v/dx4/Kog8yHFJvBf+rwI5sRvOiI2jHofvpKwD07s2IbzfecS0JN6ZoU9PEN6Hc68UkffEdU1sHdPNBC8gt4aEEomjZUsyDMIF/9mZccxW5Fi20I4KWt5gvSAWDoOj5wq0dgg7A6/w2uORRN7QFyWJt/S9IqEkQpEQ0cax4BQZniMeul4ggb735HiW8XS8ZwlHH08uJAbBIFngOckKNyBY9CdpI+g4gxMlJY55X5FgAQP1Km3GzAMrrdv4+H/9dTrbY+pJ0aQ4KMzOhMhaxNaIuFK44TQoKihDtDNBun6oqw3JuLjufuUnxeEgfToNmvwGDNqT6ND58pe//ISGB+D48eMAfOlLX3pa781rXvMa3vnOd+KcI01T3vjGN/Kbv/mbj6u3vb3NV7/6Ve677z4+85nP8Jd/+Zf81V/91be+QRPeMxsXmJ3x9SMqY8msw88qxgdoB8BMS1LAp3GD0BJoZD388hx2e4xd7AdByyYBVjqPPzKHHs/C7FwZXBxhO3l4sS0NsMMpbmmA8lxGaJHEDfIGObUxxmKygNBMrWCht4/QorRBaK2A0FgICM3NddCjAheZgKaKGjdo77fpKo3Qpvmtws139kPKfRHUp/cQGvNd9KxBaE0ko+23sZHEt1P09gyTxyFs3zlcnmGFwWQZ2hrqOG0SgsGkAaHVcYvUWcooILRKQBF1qF3NLOqQXoHQRIPQchqE5mAkQBMx8IqRaNESI3ZEhkQxJGYkErresi0zjlrFTkNb5RH7CG0DwdIVCK1D+PsYsC0SjnvHrshReFoiZiRaCH8ZoXkEE2DcILMCGZ73pED3O9AsFduFHnavD1QKM98DbYj3EJp8LEK7vn5Frw3eU4xmsFMdqL9HtQ6BPAccN0/2GOxYRzmaMTYHI2H2RVCBn+1Owrg5yERX22suOdbWUtvL5zo1T96y8M7Ozv7fj/Wf7ZV+vw8EMuAnq5w5c+abqv9bv/Vb/P7v//7le1LXvPGNb6TX6/HLv/zLAPzu7/4u73rXux5Hh3XLLbfwQz/0Q88AhOY9/sIm/qFL19/RfEhCba3vhDypA5TEWCKTIisVZFY2i0AUW2vqc+vE2pBd3CIr6+APAxKlcWfXySqFO7dOVtR4KbCzMiTOXtgMs/ILm4GA+EvncM3sPK0DlVW2OSKtTWDLLxVZpXGrOyTGkm9P9hNu03FFsmjQq7tklcavj0h08HlJGxKk0/URibFkW+NAfeU9ug7yMen6MFzX9jj4ZoyhVjoQJK/uktUaOZqF8P1HLkIaE9eGpMxIlYaZBeNh2+O3SxLvaFUzcmfo6wKPYFYkTAtD33h6fkLbGRJv8UCPBGeHdDAsmxG51WxrAEXHG5btmJawrNgJbW/AWawQaD8l9iMEmpM+oYUhQzHAsESMcI45UryrGHiLwHBbYRhEP8wLRMIAmAlBBjg9oQCWky4/qr+dAYZCJFinqSgoRYS1N7KC4CZ3hJSI7+b5LKKZACftjbT+IiItjhAnCXhHbLvEaUpcHqf1LxFJuYhJEvCeROeI+zKih/oIA4x6ZP/SGCLXI7lUY9wy2T87hBuQrjXrVX6OZKMGt0CypRCuixSC5GLwy8nzG1h/MOORT4LfpHrowsFe9k/yGIy1ITm3/qQIfKaVwjy6GqJwD1DSsnVNhPaOe7/E2+/94lPyirxyKe5akYRZFgT2ZrPZ0/Iav3jxIm95y1v4vu/7Pu68804WFxe5dOkS99xzD294wxt45StfyRvf+Ebe9a53PW7f+fl5PvCBDxw4ufrfhEHzUpI/+wb8d/Wuuw2tNPU/PEB96ij9E8sHOp/ZaIo5vUXcylBZSrmSQxxhtka4UyvoL59GnTqKP7+BHnRBCuzOBHvbCeoHzmNvPUF5di2IcHZyWN1GnTpK8uB59E0rmPVdKHqQxkSXdtAnFtFn1qmPzmO3xtg8gUEHv7qLu2EZ9ega1VIf38pIhEDNtfFpjLthiersJvr4Ano4DRRbiz2iC9voEwuoMxvUR68W+NRN/ej8FtXyAFnUSKXwR+epz2/hblii3hf4tMRZgp7vEG9OMMt97LSm6oqQGzXUVJ0uyWRM1ekiplMmWRuEZFrDJJkjc1tMsgFejSmjrEFNnu1kgUhts53O01Ejtq2kFAnYKevRHEd1EPEcuBlr0qOIWRAzzso2bTvinOiwjGUHz0imxM5xRvZo2SFnZc5zfZc2fX6W1yGsxzSdPQh9hlBCB8RaIExG7D1WiDC5asQ/hVdYBAmSLgNeyeuxaCyQqJjObwWJnSvFOGMpLou2WkciRYhadI44ihDaIcqU1qe+G/7RXD+CKRUuViTfcZL8xutHMN57pl86DULQe/7NBxo3T/YYVPc9gn/OKTr9g/kLRxc28ec3SF94a/BDH+BebXxu59pLbS98Pnc9/zn7/58ozXM++p+flHdkq9W6fJ+1/ppGbS+6sd1uPy3v8fe///288pWv5I//+I+v+v31r389P/zDP8yv//qv84EPfIAf/dEf5RWveAULCwv7iPNFL3oR3e7B6dz+zfjQoljCAWZizrnwQpKS+IAzuiiOQsJxVZMoTbZR4mWgKKrOrpFoS3xxK4hdGrtPImvPrJGWNebsGvm0xMkaO6vC7PDiFrG2ROc3Az3U7hQfyUA31ZATJ5ujIBWvDLrSZLOKoqlvt8ck1WKY7Y8LknmDurRDVmvcxjD40KyjvlLg01iSzQaFeY8ythH4HJIog20IjKU2VGtB9NOs7gR6q91pEPhUGoYz4p0Ct17SqjVeRGBCUrStZlSjhHpmiU1MW5QhyN4maDcm9Y6OmjCaCbZdMCQdb1F6SMdrlB7RcgrtoCMU0mjadozWmtzskHjNEQSawJt4zClSoVhgi663xHi6zjLwMSfclIgxzP6ZiZPMGPMB/i+2oofZEglztmYItIFuMs8MyXHZ40TrBqqi4LxQxBg0JaWQiPKrjcDn/8D/xuv4IL/FRjbCyWWeTZcf/z9fQGtWopMECH4x1crIZhVVr01aVJgsAQepUtStjOxSgvyv34e4+xzceP0hytNLW8TbG6Q33PgNSXM88YQy5AkedNw82WMQIZBxdOC2RMPOEj0JbV3O1Xh8WH4mJVkiee9XHuB9X3nwSRX4XFlZufzsp9N9Y3BVn5gGVPxURSN+vfJ3f/d3fPSjH3082k4S3vzmN/OSl7yEu+66i3e+851P2TkcBoVca3BGEpln6DShPppDJHF7CG16GnNiibpBaF4K/M4Ef9MK6oHz+FMrVOfWG4HPFvKSxZxcRs9K7A3LVOu7MO2GpTxlsEfn0aVCLw/wW2NsK4V+m1obOL6AqhRqsY/IUzIh0P0g8MnxBeqzm9gjgfh4T+BT7wl8lgq93EdXGmksfqHXCHzOodQWaqGHKWqk0vijc6jzW3BsgVptovYQWpqg5zqozRmu16F0DXly5RCjGtVu49AUaQ9hxxRp8P3MKiiSPu1SMU17TIqKHdnCIRj4klEyR6a2GSYDjB+xI4MPrcuYDdlnmYJLose8n1GJGEXMvBhzUbbouJKLooVlxoSEkUxoOcdF2SUxO5zF81wcFsdn+BI78p/5kmxxq5/wEIJFHDekt7EmMr7bdSjmEibqEv9NemJRgB+zLTMWy09zL4IMx09g+DxfZCMV/Kev/DvShy+ib3eUD2xQLw0QxpJMCvSJJeQjq+jn3YQ5s41ZngNtcBtD6ptWiD69Q3qfCcbs1uv3fdlkRiRmhwP1aSpPxBTyH553O//hebczVooTH/rok3K85zznOfs8iaurq1/ToK2urgJPDuPGdSF0rVle/trI/I477iCOY37nd37nKT2HQ4N2rRlik/eTVgouzvbFFuuHLlwtxNjkA8XaUD14gWxW4R+6EHxpQuBGs0a08xLZpUu4rQ0SZXA6kBOnSmMvbpFqg1sNQpq2UthJSbov8GlgfZekEfjMdqck8yYIfJY14uJ2QFrWoZW5LPCpDW51N/haEOhCBQLhC3sCn7vhOp1DKUNe1kHg88IG8dlAwSQrRbTtSI1FzSYkhaHasjgDZhjjx5rMWTrlmJY1DIdh+avjHMLtsltG7BYlqbUsEV7AKQ7UNi2ryKY7xN6w7D2GCrzhhN1FesuNbkjbG9b9mFhIYjHjBidoobnFeXrAMlBZywCHdBPawvMsb1n2HongRpEhZM7zZcJ80qcjJC3vOeYHHCXimG9zs9vhIQw3+BGFu0RRXqAnBF0M34aggyMm4qb0ODdjSR6+GJ7zgxfIi4poNdBWxcYiz64HpPvQRbKiQlcqkBHXGk6vIm37cHA9Ewzav3KU48LCAi94wQu47777+MpXvvI1jdZeJORLXvKSp+WePNFKQRzHfMd3fMcTLis++uij3HLLLQc6h0OmkGvNgCOJa2eoPKU4vkh5cpli0EHfdgKdxtSnjlJ2WxRH5pkdnafqtDDPOkHdydG3naDotykWehTHF4PA583H0M6hlrsUeUSx1KdamUelCerEIjqJqY4tUHZyirkO9fEFqlaGvXGZOokpj87tC3zW80FM0964TNXKUMcXKAZtym4e2kxi1PFGGHRlnmKxRzFoo04soJMIdWIRlSWUiz3Kbk7RzVEnF8PxblimjiSzVsY0TyjzlGqxh4oi9FyPMk6Y5h1maYeZSBllA2oZMWv1KKOY7aTHVjJgHOWM83kmPuZCNM9QpGzFHTbjLhORsJkuMhIp5+MFtkTGlmyxGvWYipiL0RwlEeflgA2RczqKeVgmjPA8ErWYEXFattkSMauiw1k5YEjKaTHHFMnDImKroctaizKmMuMR2WEiO5yJ5liPeozpsSqW0CJjlAdh0Edlm0c9nPOGf3GGKfBVYIpnsNjhP/7+v+c1/8//hL71OHUnD8+7nVOsLFAsz1H22lQ3BrFWc9sJyn4n9Jtji0Hg86YVXHQ45J4RRV77856vPMB3ffSv+YG/+C9P6iF/6qd+CoC///u/f9y29fV1HnzwQRYWFviRH/mRp+eWfB06tk7niX2hr3rVqw4R2lP2cPYFPjXZZhXyhcqa6sJmkPlY3SErFdKOQYRoRXM+RDCaC5thBi8lpkFx+tJWmMFvBIkYVylcFJFoS70+CmKcW2PSSoWlwypEHZbruyTaBBHPvTy0SRl8aOshItFtjkiUCee8PSYxlnqj8aHtTANCc+6yD20zREXa4YxYG4SHemNIqjRmfUiqTVhS9B55cYJdL4gKhUggMwZdlmAE0sVkdUHqHbkqyL2lo0P+VO4MTk1Q3jJvJ3TRJC5wNipl8GaEsIZ5MabrakorkELjjSK3Q0pGCFfhveaI02ghaeE45srw7SvmvMehaHvLrL4PKyTGW07JhAVipBUclQnInJtExlHRJhY5XRy3knOEiL6wPLA6xDFm4Hbo+BKFJUOQAyfxQQ7G+SCuOS2pmkhVfX6TpFL47XFAaMrg13ZItKU6v0E2KwPJsPOhX6xuI116OLie4Qjt1S+4nVe/ICw5HnvfN77kuMfScS3i6V/8xV/kHe94B/fccw9vf/vbrwr++JM/+ROcc7zmNa+5KoDkX7MclLbqm00RODRo30RxkURmQeCzXhoEH9r2GH9iCTOeoVcWEBc30f1OIIzdncDJZVRR4Rr/2h5TSGQs9tgi5qsRbnlAvTPBpQlkMbpSuCODkBe22ENsjjFpBP1OePEfmcPMavRCF5kFH5rpthBpjD8yh6oNdmkQfGjaYOa7mErjlgfBh7bYCwKf2oZcs6LGLoVcJz3XwTZ5aG55gKoN/sgAdWaVOhcNS3+BSjISp/C9NnU5Q+U5ToGVUGdtWlajsjaJs8ySViARNiVV2sWIKaOoS+QnTGWGF6B8xabsk1jNbtTDO8cISUlCyytWRZu+0JyPMgpnqUSGIqLlS1ZliwVrWBU5Eo32GSOZYV3BaSIG3rGWDJiQ4q1gKNpo0WMnGnDCRhTMkVKx0G8TRR3MaJuzPmdOaM6JYMRdk7e2AFxAUBECJ3Qnx3ZbuBNLqErhTy6jy5p6oYewDjctMSsLmFmJP7lMfdahlwaBSd857MoC7qFDv9czwqA9yQKf29vb+5yKn/3sZzHGPG4Jb2FhgY985CO84hWv4K677uI973kPSZLwhS98gbe97W28/OUv53Wve93Tdk++8IUv8OpXv/qaUZYPP/wwv/Zrv/Y1t62tre37AA8N2lOF0CpFogz55qTJQ1NU5zeItSW9FKIcIxNyq1JlsGfXwkz8/EYT5ShDlOPGJrackdSKaGMYEFqscFLuRyTGxpJujUlLRVyDqTVZrbGrOyGvbGtC2iC0ZFyQLhhUE5HoNofEtSFyDuWCLydqEFq6NQ4cj96jlCHRhnh9NzBODEUj8An15ph0YwcznJAUdRAa8IA2+ElJrBz+0ox4ZqG0SAexA1PNqMqYWhsSE9H1IQ9tVAp2y5q2s8z5CR2viZuZ59RbFsyIltN01Yi2V0gPXa/w3nDUTfA4jruCvreUvkILQQvHSVfSRnCjt8x5j/WKjrOMveeUsHSAk14zcEFSZkVEbBBxymmOuJy+hLaPmUeROs+GVbRZx/g15vU2kSsRXtMCBskCz0bSd73gB5uVJJOCag+Jnw1RrWz7fYTGpRDNKs+tk01LhA0sLWmlsJe2kfYQoT3Tyx998QHee/83FuVoreV7vud7+OpXv7qfP/apT32K48ePc8cdd/AXf/EXV9V/6Utfyuc+9zl++7d/m+/93u+l3W4zm814y1vewl133UUURU/bdRtjeN/73nfN7d57/uAP/uCa2w4FPp9KhCZF4HKMI+q5JpJxOMUcmceOC9TSAGksqhei+sRoijm6gC4VZnkOZV1gCmnnJA8/jOlEGCkw811ghs1ifBKTKI2Z72LLGjVoI6xDJxGu2yIyY+xiiExUgzYyS0iFQLczRBxhF3toZdBzXdykJNIG1W+Hl22D1NSgg1AaqS2238bMKvRcl6TS1L0WcVkjnMfMd9EPX8DkCQaoW1lYLosjVCslmWqquIU2NSPfRuBpi5o6zVFjy1bcw7oJRZzjBWw7WJM9bkAzjtskZhoQGlCLmmHUIbOKdd/GOocRIQ8tQ7Et2nS9YEPkOGpGOJSQdD2si4wlrxjRJ2PGTMSMRYIWcAnJIp41L5hCSPCWHaxvMRR9siin05+n4ypMZKmiFhOGnI8c82rGeTul5Q0plk3g83/1WiY3rdD96xT/doHJUmwrwxxpWECOLgTexUHDFFLUqMU+WVFjjsyjjEXN94KOmQ1oLXu4OhxczwiIxjUjEF797bfz6m+/nXGtWHnPEy85RlHEP/zDP3xTh37BC17whDIzT2d56Utfel1pA6urq/zN3/zNoUF7yvqrJwhnWkdUGbwURMYiZlXwLTU5aNEVrOhiVgYev4ZRXziPl4HhXlQqiHCWDQ8j4JwPnJGVCiwflQ7HA3ylQo5b2WyrNcIEgU7ZsIJQqn0kGWkTIhZr3bSpg4+6DsuN0ljc3jk035HSRCYss5lSETkPtUZMa2Rh9sUkA8IDYUxQDnAWrKeqYwonSbDEzgROR2/wXhD7oFot8aRO46zDWINHEONInSbGk3lFisGYAAlLZlTe0ceR+5oUQxsXuCcR9L0k9ZIWBsUOY7fLCMkCET0hSfH0opgMibCQe48SMX0fkUmPdJrEWR7crRgKjxNb1G4KtqLtDTmCluxSE8Q1RVERuWSfIR9jMbMqiLPOyisUDnz4u1nCFQ3bvizr8EytDUz8h6ovz4z3w79ylOO3Qjly5Agf+9jHrg9AOLfPRXlo0J6yGZjARRKbJSAltlL4VuAjdHkaEFgSgZS4SuFbGS6K8O0MO45wcYRLY5wQ+Czs57MkhOUnUWD7kAKfJjgpcFmCm9W4uNkWScjTsC2J8VEQ0nRJHJJh8zSwt2cJVhnw4LKmzTwNvqw0uQzrs2T/HJwIbVrrAl9gHs6BNMEUFk1gvkgiAWkURDKjGCcsTkYYJ6gMDGXOMhorJU6AFRFOCIwALRIcAi2C4dv1gV9xgETLGINAiYTaSYbOUQgPYsyWNCw4F/LPvKVCUguJ8DGeLjBFiYTK7LCtNhgimJM5SsR4byGeR/gQHqyEJCYnEl1kpCiJiTBcZMwmGQO3ybYtmLcFhdcImfP3f/82zHwPf3Y9PNMmMddFMjyb5jnTznFRhEuT4EPTBtdEovpWGvpCnmKNxc1k4O8U6nBsPSN8EtdGaH907wO8594nN7H6W6HcfPP1M81IKQ+0/6FB+3rFA65BKMripUAai2j4FGXd6FxpC8LuIyVh7T5yAvDKBFSkdJjxK4M0LqhIE1j9UXqf3T8gInA6tEmDuKQ2CBvEMKWxQQCyDohONBGO0jlEHZChUCaIYDbLjXv19s/Be4Sx+zyP1GEbKiAt6UN03n49CP4g75HOEjlBRETkgj505EKdyFtkg9Bib5B4Em+DBpq3eAQRjsQbYjwJe9+O1FsskPnQVoYlwZPR6MAhyQhtZd5igAzIgYSAxmIgwxM3wpyJ93jhybxpzsGQ4Ejw5N4SAXmjON1q2pLGIurmeVUK4dKrEJpodOV8WYfnpc2+dt5e/6BSAcXVOmxzIWpWHI6sZzxC+6XvvJ1f+s6w5HjkDz/63809+dCHPvS07n9o0L6uUQvK0sJa8HJ/GVJ4v/8tncM3HIAYu19fuMDGLVx4Ge8x12NdMDTe4xsF4rDNI5oXo2j4AAXNfjSCo85f/rtpU9C06fxlNWwAG4ze3n7CWmiERcO57+3v4fQlRJaAMpAlVyld621QqUfsxox9TluDiC+rLMtGOVo21/TAOPA1dpwiEuE4Eofk/2fvTUN12c47v98aanrHPZ59pnvuIOlKnoLaqJNY7g/uTkM3hlYCiSHYiNgGCyQ6GJsI4uDEMnQgYBIMwpJJ8i2xE2OaBNHpDmqC+4NbbVu25bZs6Y5nHvbZ0zvXsMZ8WHWGK18NfY8sWdJesHnPeatqVb2rhqf+az3r/4soEsSzsYHGezYusAgtWTBIIfvlKRgFLDFKQnRIIdFEZBRkwMPwOrfdit3gUIAmUmU7jIVmEANlfBe7XAYiPtbsyJJLWwNmZzPu2DXjaDFigxEaaec4tyRGi+wDmwgpiIv+3DyiR4tHJOlHbeueauNHZOoQntru0Xl7+ho4D2nf7QrtLet8D5WXX37527r992CT/zvEMgFohe8TO/ywxOcaJsPUzTSq8JnGVQWuKvBawXSYuiCnI3yucUWGG5Spq2pYEpQgDgtcpvFF0kQClgAAIABJREFURhj0XYajkiAkocpxWiV8zDDVGUclXgr8ICfkyd/OFxleirRMK+KwwBcarxWhSl2UcVimbsBBkRI9Mk0cpmOJwwKvJL7K07EolbrIpIQqT/vTGq9lqiNLXZReZzgpcSrDygwvJFbmeARW5jgh6URGKzM6oehkgReCTuYYFI3IaITGCkktCzokGwpaoWhQbESGQbISGRbBWmgaIdkgWQndf5eSVpZIWmANLJAYYCUUVqR1OiQRqPvvOlnQCcmGnAZNK1L9DlgABsGSlEziiowwGaTzPB6k9hECnylcnhEnwyfnWytclePKHN9bnQWliJMhLkv4ID9I5ymMB6mr+Lx8Fyg08Q39nZdvbTlXaF8t0kfA+QTJrA1RCLRx2MUa6T1yVaOsQzddWuY83WKDsh6xSM736rXXcFqhjEMuNkgXEOsWbRwhRIILKZFj3aauq7pDOw8tOEhJKOs2JWLUBmk8xIjqTA/c7BMPNh2667srmz4ZZNOiQkBu0tQC6Rxx06auyU2H8gHVGLRxSO9xTQf3V4RTi+w8OktJEZGA8jYlkTiD7yQnmxwZI8NoyHyXuvJ8h46BMlpCTN2GReioTWRpDdvBMxA26bkYGISOgsCIDhkNM3FEg2QfxzC2aDyjaBhEx168hEUyjBtG0ZIRmRIoSeDsSKAkMomeLEZGKCZoFIrnwj5bxZJcNxzHmihavLDMN3/MEsE4tEzwVHLElz/3PyCtS4k+y/rJefaqN2p2CGNx/XlmsUE5j+4TQbR1uFXaTizWyadz3SB8SOdguUGE83fI7/by6T95ld/801fx4TwD6HsyoIkYWc/XuOP5O64jOE/pPHFVs3iGegDcpiUHyBROK/yoIiqFdR62x/jjBWGaJinbQQkyzedie4yfrYhbaRl5llRQawnjirBqieMK50NSe7nGr5u0bLYhjCqccUkhjCpca2Bc4Wdr/KB4otDKpKIYV7hVQxiV2BgTsXpU9nUO8IuaMCqJnUV2Iu1nsUnrrBr8oEhTDrSCQVJtscrxrcFmOnWjyUjIc7xo8bogyA6jckQM5MFhdIF3LUYXOG9oZE5AoGOgVSWF2FCLgiGWWmQpy1E4alkyomYlSjQtG6FYC80kehYi4yAKFiIjJxLIMCimNCxFzgTBDElFAm7OkNRIFkJjsClh5LFCyxgJQVQVLYqlyJAxsgHmCC4gmCEwJJBpaA2hs8StEf50SZgOnyi0IsMXOWyP8Is1bI9xsxWuh6GKCH46ws/6ZZsWPx4gnMd3hjAdAg3BOuqzJWHyDNTpdZqmsTldIp7RTku1KVHlWe+bb/Y9OPKBZrZi0T0jKPOb2Fay5x+m8YC3X+ejH3gvH/1AGkPb/59+5zzKfM8ptBjhcAY3D9/5hRYCmbFUrzjkF84QMWLLnGLT0o0qinWDyxPmQ1mPLTPKuqMZVQn5kmeIENHGYqocdX+IPBEUf76HOOpASLRN3o56fZnBlwry7gKZTukHmRsi/jyjqA/giwV5uweHFi8VmbHwRoZutiivF2R2iyAVQQp0u031eo5uJlRvZGR2N2VWKknWbSNey8nqCVWRkd88QFhB+eVd1Om7CDdy8maCLLKkAACdabJ2m+p6ga4nVK9nSbnFiMs0up5SXc/TOqcLdNAIXsZoTX60T0SRrSwxJFXSLjKQCuUd2zpDmohwRUrHj5HhRjHbSFQc0YgN7xMSEOQEmlajzB6TqMm8o+mDTGcMY6GZxi12RUbBBU7FLg5BheMlodiNkeeFYhADVdzGI6jDq+S+Zit+H88BE6mRakoLXPMHLIJmKxqWQvBi2KdA8ffVC9xaWM4WmhfZsI2joOQ94YM94HPMP/+1/5x802H+3wLhK2RMLxx6fZnBlwuy16YIB/K4ItyboO97fNxDn1pC3CM7fcRRq8iPwMQD9B87iFs9qFPh4x7lkUcfDqA1cPekD8fvrBRNQhuZW4cgn+0hXa57wOcz3H9P34PlyQK3ebb5dnlP+db3TojZsz2mvpltlbfFk8Ga8zG084D2tvFMSsr3XIEffucgP2s95l/cofjUP+iTMyK6zJF1hxqWiE2LzHSfhOFRZY7atAzGA6g7VKFTVmNnkYMCfRSQr14k3vqPUDqly4sQyZREOI9WMgXAp+COmZIJ+KhkSgDwnihED3dM3w2VhBD73IC3LpNSImIAUpq4iIFMpjqVlAgroK3I//k/RAiH7veX9XUC6H5/A/VkO/oEj7xPNlGPlvVJJACZEOASrFL4SNm/fY78k2PZFqmuAx79ZlI6u4csDrCy5pELnSASkEgCDomMgT6FhdjbSykiHoEk4vFpPl8EL0BHcEKkLEtUn7NoelBnAnYqL8BLApCh8CIpQ49AoygY8sHNP+I/xJNyMROcUwIRl5SkFQz+yfjxOU3szwiPz/MTKOfg//sA/PE7h3J655HLmjCpGHzgObj8zlP4F3ePibePKN//7mdmfC2/eAMETJ4V8Gk93edfoXv+gOmVvWeqq17WmD97A/F9zzOcPBuh4JvZVof/5vQtY2hfs+fpfAzte1ShQXrIPoNti/eB2GlEZ3H/6R8T95aYQUm1qqknQwbLDbbIIQa09XSDgmrVsJkOKTcNtswRPpJ3hnZUMfj8FHFnD/sTf4D5/jkIevVWUq5qumGZlF2W5nlpa2lHA6p1TTc/Je8skYiXitw4uiqjaCzdsEhjK0oRpaCoO7phQbHp6AZ5AoVKhc8VedNDITcttsrJrl8k/xf/EPPjn0VeuEk3LCk6gykylA3IGLCZpmg6ukGZ1GmVftcj1VFs0v7yTYedLVHeE89ajFYUnaXVmmxhsVFBhHae0SmFaiMncUAVHQ0KSaCIgVpkMH+O71v9J3xp/BkeFPeICKwNLMnYCh0LkZM7S92zoo0xLEROGdfcURsm0eOJGCEZRstcaK6GihklQzyRNGetDV/m0HfsxcApMH1KoV2WO8yEZi94PGPeFa7xj9x/xr8e/jO+4P6IIyGQ3XXOoqOKEUnDBtiXY/6b//anKdcN3bBAupSV6IqMct3QjirKuxp+799HfeLeM0E521WN/Mub+A9cY/icBp7h4dqbCUopn9nuKIpU37PW433A8c2p61EwEOrZf983s63eor7OFdp5QPtrVXqkycPNS4540RCf26J745Tw8i7tayeYvRxcJFu12Csj9BtH+B/Yo7m5wO1XYD3xqMa8OKW4WaO0wL5vRv0PNqAU+nRBfP4i6i/v0777Cv7ucQJ8Cihma9x7rtB+6R7erPCHM2KhCWUOJ0vMlV3U3VO6Fy5gTleEqoBcI++d0l3bR906or26iz9Z4soE+AyHM/y1feSbhzQXtwlKkv3LSPuDM7KD67iXLhLvnGAv7aQEhc7idiepzuf3kTce0l7dTfPienNideuI7to+4t4pzWyJbA3xzjKNE85W2K0J/taCWpWIENjIjKYcomcND7IDqm7JRg+QMTC2NYtiSl4nlXRY3OXLo3sJcVO3HMkpL9hjbusdxt2CU4p+et+S23KbvXCfP9QrroYGi2YtNM+FDa+rIT/qBrwh99mJNQ0aKxTYP+QLdPxQsPyFELwgMly2y0xoflgccF2O+QG3ZCGew1rNjxN4Iz/m8/wZf6EqxuYPeQ3HrghUYcM94P1ih+4//inkaw9oX7pM3DRI44j7W+hX79O9/Bzy92fkf/LsUM6wqBGzBfFSx3k+1nd4EQK+igL79B++wqc//8p5Ush5QHvGa4wEpBzMN8Rqg+l6EOPr994exGgc7o0exNi9FcSo7AWE92SdYXD/9K8CPm89/KuAz9fvpTf9wyMK44iNwus2qbX7yUjY3zkhMw6/ap4APu+fkllH+WDWAz4tfp3gou2tYwr7NQCfnX0C+Aw94LMz+LsnbwV8xohtOvKbh/jDBPgEUCEQO5PQMmcWO18QTgShn+M2cBbVrIhBMG7nVCEBPTsvOa4lm03Lc3gkgSp69t0qJWOEgPQe7R1TNwPbUYY0VpNFB2FGHi3v9hsmBFzs2EYwEZGX/JpBLHg+LBjiuR7+Is1tczXvjpapKPj3shFToZFiQIvgOV8yDpH9OOA9ueVFIHSB9eYEoR5w4CNldLwcHRWwO3iZy0iuyT2KGw/SObp1mCZHh4hbN2TGpWVtdf6kOC9foSC/+sTqj/3I+/jYj7yPZWvY/e//j/PGOg9o71yhhTKn3hoSp5b43AXEG/dwL1+lffUOZm8KzpOtauyVPdQb97DvvoK/eYjbn4L1lEczuhcvkX8+opTCFgnwiVbYk6TQzF/eoHv+gPA2Cq37yw53ZQd/tCSWGb7MiSdLzOUd9O3jBNk8W+OrHDKNfDDDXN5F3zqivbSNO1niv0KhdW8e0hxsE24UZD3gM+Qa//w+ba/QzNMK7c4x5vJuUn2Xtt+i0PRrd+mmA8TxgmZrlBRaYQiTAXa2wAyn2JOWRTZExECBTQqtbVhlW7huSZNV1EayFIZjvc0BioCkEYpjPSYKSWcbjuSUS/6IO2rK0M54IJL11R5dr9Aa3lBDroaGGlgLxYvR86YacCkqbskpO7HmjRjoELwYA68gGAnJLb3FtQhGDFnInINYcV9usRVmdMMtYl3ggbtSMY+BV4TmOSKvAbtE/u/P/pe4g22GNx5Qv3gJ+dod2ucvfoVCu0334iXkvQ3nHvnn5bycB7RvuUITnaVYNTBq6O4ckTcd9tZDitYgThb9fCFPvH+aQIy3H1JuGkwICB8S5uPeCdJtI0Igs5bieEEUJMV0+yGZ9ej7pxR199jiqrh+nfrhffLZGq+hrA2hc/hNR9453MMF2nrU4ZystfjOJnyMdZijhI/JTpYUjcFbj+0sRWupHyTApz9dkrW7j/Ex2bbDPOgBn0fzJ4DP40VC0jwCfB4vk0LzAWsdOgTUfENmA/bGCdoHhPG0y5rcecx6TeFh4JIJcxYDsd2gYqTsVgwez0mT2ABTt0SziyBQxgBNDQjG3uHjgiJ69vwKjcVFSwQ24kHysxcNV0JkO1pG0TPBcyFuIXxGFSMXw5oxlkvRYREMiVyLyaz4SjBso4DAOBguS0EmOraFYLFc0LkL6Zg4JnNzLkQYB8NzeMZAuWnoHgQy41D3jsmMw94/SdmiPmCMTefr3gmZyc6fFOflrUV+9S7Ht6xzXs4D2rMotFhkdKMKRh3h6j6ms3DtAl1r6HYnCOfJ1g3u8i62buHaAe1TCk0czXCXdwk6ZV/aLKPbn4JShNMF8doBblXjLu/SPaXQxKsGMZxgTx3xwi7tw3kyEa4K5MkSvzfG1S1+b0I4W+FHFeQaaxz+whauMdi9CfRjaHE8oPMzuLiN7bEkokyATzsZQJnD5R2628f4C1sJ8NkrNNsa/IWtBPjcmyRfQeOIO2OckvjtEdYt6LIcFywil4TJgO7YEodDzGlHLYrUvektbTkkb2rafIx4pNCQNNKw0GOSS6KkFZKHYkhAMJUNMz0ltx0ncszQOo57hVaLjhtSo73jnhxACLQIVkJxNU5YiSlWzDiUI2zc8EBoOgQ5kdtILiC4J3NUBCcyFjLHq4JObROd5Y4ruRQkgcgRsAyOGwgyPLcJ7ALtsMIdbKe2urKP3bTYS+makJ0lXtjGrRv8lT3sjXOFdl7OA9p5QPs2KDTZGsrlBoY15uYhRd3irz+gaDrk8Tyl2juPuHNMZj3mxgPKdYPtqcJ5awh3jpB2Lyk0YygPz0BKss7S3niANo78zjFF3Sa1B5Stpb53RtEawoMzitYSpCPUhtw4wuGMzHn04SyNpVlPkILMOly/rHi4SMtai6s7ysZQ3+vHwk4W5O1uUk2LmnzHYu+eUrYGDmfJ8SMErJ+TO4+7f5rG5x7OEsJkWWPvn5C5QHa6IjeOctWiQyCsPd3CIWZg5h2FC4xiiyDSNBmusWgnGIYFdJF1bYkBBsGzY5fk7CEIVDGw79fJgNhbrAsEaxnGGYPQPU73P42Wa3HNNDqe9xu2oscS2MIxjI7LYcmKG8h4Cxc9l32NA6Yy571IpqriZTK2kcggqWNgJAx78YzcO6bhjCIeIAhM3DHD0PIisKfGKKEZEalWNcZ5MuPIbqfx1KTM+7HINrmoZLcfknfF+ZPivLz1WXOOjzkPaN8KhRaKDDMaEEcGd2kHdfMQd3Ufc/0+3U6v0DYt3cUdspuHuCt7dHePkwKyHk4XmIs7lFoSpUgKbW9KVAo/W+Gu7OH67XlwmgCfUiAyhd+bYIzD7k6IJ0tinsbQxGyN2ZuQ3zvF7k8Isw1+WBJzjX44x+xNyDpLtzsmnq0eO4WIkwX+YBvbHtFtjRCPAJ+jEpFr/MUtuntnmL0JblmjjMNuj9Cdxe5NcJ2l2x4l4+D5Gq8luZKYrSH6xNMNi+RMspTYvMJZx7KcMmJJnSeH+Xmds5JD9uKCTT7GmpbbcYzCsyUaZnqE7S2KDZIzOSAIgXI1D+WYXb/hlii4hGUhkovIBsVdWVKGNbdlhg8Bg2YtFBeF4J6sGNglryI5iJ5ZtHQIRmrAabbLNTJWXGaMw4iKFTnLKDiUU1Q03BJwlYgn8tB3rKLlBnBQvov/5wv/NWq2oussZm9K1hnMpV2ypqO7sJWc9I3D707I6y4tu9ly3ul4Xt4ardJUgLcrn/rcl/j0586zHM8D2jdBoQnn0a0htgY/WyfPvbMl2vrkqxcC2ljcYp1gnLMVurOEZZ0mHVuffBfDGEJEO4daNSAFWWdxZyuU96jFGm0dsW6JgHYBs6yT+lulDLnQu60r55HrJjm5r1u0dYimI5geyrlqHq+jrYeYvBy19ZhlnXwXN+0TL8fWoHyARY22DrtqyFqLso6wqh/XpUJEbTpUYxDGEesuoWjqDhUCqrNolyaAO2PQEZRNnoy5t4gIWVQUvkvwTtcioqcKHYpAjqfyLTbxSnEehqojRIGInlFoyIgMafE0mN4Zo4yBrWgpY2QrWAYxMBQDKiRFDExjB0S28YwJxBgxRApgB8iJDGmookzjYSKioif3GwgOLWcIcQkJDGOgQLBDZEBEztfoOvlb+mXfVvN1auNljTQW5QNxnq4POV+j3HnX0Xn5xrscP/Z3foCP/Z0fYNkadn75fztvq2/lafluU2hRJbd6V2TJjy9TyWMxU7hhiRuUyWF+0nv0bY1wucaNKtywd0WfDIlSghQ4rfGjCj8e4HJN3BoRlErbP3LbH5Z4LWE8wPUO+S7TuEzhSo2XgjBIUMgwHWIfOfT3/olh+MSRP22TEUYlTisYVckZf/iVXo4y+TxqlbwciwynE0QyCEEYlo/366oMl/VO/Fo+dvL3eZbc/aUk5skt32fp06oMq9L8L6OSa35QBVYoOpXTyRyLpFUFtRcEYB2gFjm1TA76G1HiEKwpOBM1D5hxT8xphWQhMlohmAtFJzQ67iPiRYyQLCmwCBYo1kgWROaAFYpajPBozgQ0QpHpEUpPWAY4jRlLPIesWZBcS5bRY4A5kpbU/q4qcLnGjyu8Ur2zvsSP0zXgyvyJ237vqH9ezst5OVdo33qF5j26s0Rj8fNeoc3XyRV90z5xRV9uUD4te3tX9F6heY/aNH/VbX+5QVlHNpsTAeUCrJuk0HoVFnpGlvI+WW+Fp932A0GrpNAeu+C3b1VozmMeKa2n3fZbgwoBHiu7lswkheZ79SU2LdJY5MkcVbdI75NJ8aZDyjVq3SJXPrVBiI8VmrSGYAXeJ2urPHoK3+GcZNFECheogkHGQEag9N1jJpqOkHmTun6dQ1CjiIzoEAQGJKp2Hj3j2FHGyJTk3DHAIyM04hgvFqhoGEdBRSAKjUGQI5hER45gJ8IwwqDPnIyxQ4U1noYyLNEhjQEO8ZSyYBfJRFTIxQbdmtRWqyapsGWN9AG1ah4rtPDIbX9Zo9z5g+K8fOMK7S3rnJfzgPZMKk0Igkr92zFL9lJkuv9eIoUgSk/QyUGdTBOlIOqkfqLg8b8f/7+3qQr9elGkT3H4AOpN2m+MaR14y2dUMu1HP/p8VJckSPn4uKLo15WCqJ7eTzL0jVKk39IfX6Rfpz+mIET6bU/VRdMRm5bgAkIIopT4WQpOft1hVhnBC2SEKCRRBKKU1DZnTokgUuAIQrJ0ivs+Y9tZvJSPvShDb/b6aLRg7QUegfOOUxTT6HHikadjJAAeT4fH4jEiwwM+CqwQ1O4ex0JT2jUbIaiIZMUlIoJMZKmuqKniNiUeh8QhWbPiRDhyZiy7E5qwAMBiuTT4AP/nv/kvqA7PaDJNlOZxuz06l48/QyDE+BXLwvmT4rycB7TzgPat73JECoJSKXAUOVFKYpGl4JFpgg8pMOVZemAVWepayjRS+sfrP3pAByEJmUpp+6qDMu+3S3DOoFLACUpArp8E0H5ZePxg1KnuTD35PkuO++Qp4MZcE/rjf7ysD7gh00SVmBWPAiy5JvSBO2hFcKn+R4E69IEtxIhAQqYeB+jQB9IQAt4KnFYIIlEqgoh4ZG8wLPBCEYTDC40XAickIgq6KGljxiOORhBgkfj+z6DoCCzxVARM7+XoBHQ9x9qR44TFRtlvS6/noAMsPFZoHjBCEaPCoXEEXIQNEiccG+Gx0dPGiIuJju1QFFGncyr7NtYKESIh10/OtxCEXENI9PBH36XtzPmT4ry8tTdIfAPmxOI8oJ0HtGfuckxJGNF5RNMhvIemSwgVYxEhpu69zian+cakriVjEX3KtmhTBxeAjAFpHMgE+xSNQcSIbE2qx/lkfOojdBYZAhiL9B66mNzitQYSMBPjUC4QccQYkSEijEvrde5xnaGfKJ3qjEjrED4CEeE8IvTLnEc2HapLxyOse7wfGSPiEUTUBbAuvVgGnz57x/31omC9zhh7h/BpO4VHEpFEVEzHqqNFx0gWPSFEFl1k4Ryi73JUEXI8noAjkGOZyUPOMFyMgUIk13wdoRSBHMVlLrIfW5xw5EQMUMWABEogB8ZyjEEyiJFprBgEjVIaHRtO44wVGhkfYkKG8WuyUCNCx872mP/ln/xj8pdeZdWkSfDiUZt5n66B/nzL2JMWrENZj2/TeRZtskQ7L+flXKGdB7RvLBDFyPJ0iXtw+s7VmfMMnCMqkQbxtSL2iRhiWBHUAl/kSO8JzhOqpN4YlvjFmljmROcJdUeskokuoldoRUZUEt8a4qBIb/NVUmi+754MSkCZpy64MsdvuqSAMk0Intgna1Bm+NYkdZBrwkoQyyypxiIjNIaQqfRvraDKk2rLnyi0kKm0n/4YYpERjEPAY+XJozpVUj0RAXlGIKm9pNAUPkacEASl8UISVYYXFidUCmwi4mVGEB4rcmzoMFITY8QLSyd06v58rLw0AYFD0omMIkItFJZI2683ENAgcQRaNAaJRdAKhQc2Ih1zjaAjkiHphMTFQNOrxFZoJJIOSYsmQ1ALheu3s49QNbkmKIkYVni1IFYFvrMQY0qgkZI4KFMbl/mjV2vioEwKrUpQU+Uci6M5YbB5x9doqFvGzlMfz7HPyAtjkcZwVw9nzwyt1HUHQjB7hvvv0T1YWQeLDTP9bHX9TW0rZex5QDsPaF/vTohwuoRnuKFkiGROIDdQ/uk2cSdDlgVFrYhfqig2F5FZAnxq6xBVjtpklK9W5M0FdJEhAmRmmNw93pggHGjvyRcbEIKsM4TjOcoHstMlWWsQmw4EZNZjz1Zo49Bna/LWEpXAOY+OAj1fo0JAzzfkjSFYT2gM2nn0fJPqXNZkvbpz/aRfe7ZGO0++6dA2dYdldYd2HnW2JrMeP9+QWYd0gUiN8qlO7QJZl5JGOG1S1+SRh3lNNI4iA+0DJii8bVmvc+a1ZOwjA2EQQBY93jYYImO3YRDSDR0DdNGzHRo6n5JVnAu0NiXJDPDsxogQkQvRUgULIrnyVzGwLzpKBLuxJmfD0t9ObiDmhAmCUhZcFZopAR0WlAgGYsrzPmcaIY8tnpaMBRWSYE4ZC4kILXthw4AWPBRfGKCOL1G8kq4BURUoWybj5DJDb3KqV6sE8xwWiB4f44sMtb5C9WpJfneK2ADHMyhW7/xm66dp6JMFIds80y2T1wla2R2epe7nZ7j38iYhcZr7J191btU3fA9ah5+vsebZKNN/U9tKm+I8oJ0HtK9znUjJ8N1XEH9r9I7rMMZi/u0pg5v7FP/z3wWg6CGNmVYJvPk0jLOHXWqtkoejFBB5DNyUFmhynCvp9rdASfzpkvDcBdy6wV3eo7t7ByuqpJrWDfHCFsac4PcndMfLpKSqHFlb/P4Wrj3G709pZ+s0XpNnaHOG359+hfVVRpwMEIdz4sVtbGMw2yNEmSXrq3GyzYoXtzGdxV+YJusr43Db42SntT/FHs+x45IYI2w8cVAiZIcdDjB+RVuWKGtpVIYpRnQrS1uMyVrPRpeIGCi9oc5HhLZmmU2QdsFSD4g+EsWGMzXmGpKAoEVyJCoCkp3Y8FCO2YqSeyJHiMBZb30VsNyVJZNomckRu7HjWChWQrID3Eayj+C2UBxEkELTItlHciiHHISGIzFCU3MkMhYiZyAEd4RmiuAOYBkhmoLit/8DBE+ugUwKCG8FnmqlUnbs04BPKR9/J3wgKsnk6rvhb63f8TW6XmwwX3gd+d5rTKbDZ7pnZneO4NZDqh96kTzPnuEZHVn8+XWigK0feumZxn2MsXR/9Arm2gW2n7vwTL/vb2pbPfjXJ193vU/9q7/gU//qL84nVn/PKjRASvFMb4dCCBga/IvH+L//l8SdFbYqKdc1zXhIudpge/cL5Ry2KijWDc1kSF43uF6h5Z2hHZRUXxyjf/eDaN2Sny6SQmsN7b0Tsjevk9+4TlG3SCXTMuNwxwty63GnK/LWEDuBay2ZkNiTRUK8nCyTvVabkka088jjtEyfrcg7i3IeZ1yywTqao60jm63J2tRVptctmXGYh3OyzuJPlmRdSjcnrshO53SLFXrVoLscuemgNdgQ0CGi64bHH9bhAAAgAElEQVQ8BGb3QAdFHhwhbiBKCrOmDA56c+K764yV9Oz4yEStGAWLdBtijLTRs+3XZOwiiRQE9mKaaL4UN6mjYyd2HETFGIcMlojgefEcRSy4HC1Z2DDGYaNnGAM5cJXAWA14SVVMY2DCBayQHPicSkSyaPHhHkqcMYxLiBJlZ+whKIXkR8Z/l8v2XcS8o/2pP0FfuUszGVGuNnSDEmVdUsFFTrFpaccDynVNNyjTWGiv0MpV/QTw+bkPoKb+Ga/R/lOKb07CQA+tFM943zwCfEopn/FwRN9V/+y/729qW30jY2gf+3s/xMf+3g+xbAzbP/+/fscHiRgjb7zxBu95z3vOA9q3tOGBOJI0f3tOvDQnXN2HN49wL1+le+2I9ilzYnN5D/nmfez3v0C4dYrtzYnD0YzuhYvkbYfSYDOdsDOPzImv7uP+rcBNSox1mGGZUulXDexPMZ0l7E3ojhZELQlVgWwsbi+psLA/pTtbEYoMck3WOUJvTux2xojTHvA5HmDcDA62sZsOuzNG9grNjStEruHiFqY1aX+LGmUsbmeMfXhKmAxwmw63NSSGXqENS5xscYMK4z0bXaG9RcqILYd0a0OXj2mDe6zQVkIxVyMqb1npCSrOWekhIXiCqJmpEabPWOyQnIgKj6AG7gjFToT7MkcHz4lI6SOXGbAUW+zEMx7KIT62nAjFWih2gLtIrgrFoawI0eLEmA7FReE5kWPysOFQ5IwRHEfFXGi2iNxBsEfk//r8T1P8yzH8d9D97RZ/9SHu+wra148xzx8gTpeo1uAOtpE3HiSI52sPaF+8RHzKnPitgM/z1P3z8hUR9+sFx+/QLMcvfelL/OAP/mDq2enLb/3Wb50HtG/5NUYyJ64WG+Jgg+nsY8BnUbcpU/AR4LM3pHVv3k8mw08DPm8e9oDPQNbZtwI+37hHZj3lwzm5sehHgE/vae+eUDaGePeEwgVikeNdS+YD8cEZmXXk90+TLVafNv8WwOfh2wA+b/eAz6M5WfMI8Lkh2zL4m0dUdUt33/eAz5gAn9bjjxZkiw358Tpl97mIMw4VAuVqTeE8465GxcCqKWnXhsJ5RmHGwFt09IgI05iTuQUVnn17hvaOTZeyI/PowM3J485jwOdV1kTglA4VLYPoeVeoGUfHoDemmWK4FmYUYsnYXyePlh1zzAgYIngvkRHw7tAxInIQPI6AYkUZl3hRsx9BhwUirBgjyKLjfcAoSqq7x+RrhYiR/HhBtmcIr9+j3DSIGw/QNmWQ2s4kFfwI8Hn74RPA56Y9B3yel6/+rJHfQNr+d+gY2q//+q/zG7/xG1RVuu6zLOMnfuInzrscvx0K7RHgky1HuLr/FsBntzdNCm1VY6/uo964h3vPI8DnFlhHeTSne+Ei2ecjSveAzyt7oFK3YXj+IvbV1+j2hvjjJXZYgBDkqwZ/dZf2zgnu6i7+eEmYjAiDgvJ4gbmSIJ7myi72dEUoM8gz5P0zzJVd1M2nAJ9VAePqCeDz+iHNwRbhepkAnztDQq4Jz6X92YvbCfBpHG5njDxbYLaGyPmGZlSA9Wl6wahE3ze04xFitWZVDtHOMOtKmnzMKCxYl9uIdsZGV4gYWEjJXE/Q5oyTYpe8WXBXDJAisBs3HOqtx4DPjVDcYURAskZzQ2gqv+Z1kXMtRs6EIiDYIuOG3OIgLnhFKC6Fhnn0rBC8KCSvoNhB8oYs2e8VmhGavbjky0rz/T7yuszZDXBMsrU6IPIqgvcTaZ7bJ7wyJBcCc2FKKHPcy1dpXr+Lff4i5nSBbA3+YAd5/T7mpUvI1+7SPH8ReoXGhS3UK7fpXrqMvLc+x8ecl68YI/nuTAo5PDxkPp/z0Y9+9DvytHz3KbRHgM/hhu52IG863M1DiqZDHM+TQjOOeDdBHbubh5SrBtMrnLzp8HePUW4nKTRrKR7OiFJQvHGd9vXXyVYbrDUUrUF5T0SQW0d9OO9hnnPK1hFEg2+SCnA9xFM9nJO3Ft8YouoBnw+fwDiL1uCNwzZdAnzePyN3AX+6ImtND/hsyKYO+6DH1TwCfB7PEcdzsrrD+EDmA3nTIFpHXHqMNugQyTYJ5jnoanQMdF4RuxVVsDizYNMIFv08tFHw4JaU0TMxc/Jg2O0nHwtrKP0C46YQA8EafPZlvIDt0OEiVESuhpZ9kbMtRkQEo2C5GBaMheda6JjGkIyKRWQSBS+IyFhmvIRmgqTiBBsFQwIvBEeJ4YLfUPo53i4ogCvFZTSKi0KSH56R11lqq7MV2Z7B3jykqLt03luDdB7jT9JY5J1jss6S3+/xMT5gO5tArnePzwGf5+VtgtU3ELC+A51yP/nJT/K7v/u7vPDCC/z4j/84P//zP8973/ve76jT8t2l0IqMblzRjgeEaweYqiC+cJGuKuj2t2h3JnTDEndlD5spwvMXaUcV5uIO7f4WpsxxV/fxWj4BfF7YwlzcoYseBhkuRtzOmC7XtKOKblLRFVka0yo08WCLtsppxxXdzghTZAniqRX+YIt2VNJtDzF7E2ym8Qdpmd2fpO2mQ/yFLbpBAVf3MLnG7I6xZQ5CYCcVNtdwaYeur7sdVXQC7CDHSonfHWOVwo4r2iKnFgU2H+KkSFmOWlEXA2qdU6uMthjTSk1bTJiTcShGHDJkLTPmekInFMtsykrmnKkRJ3LAPGruM6buHUVWwA06bkTDMXBHFtTAbaFYioKGy9RcZik09+WYJYrbsuBUSA6F4C6SpRDcQmFExZHaZSHH3JWKOzJjg+SBHLOJgttCchwsd4PlerD89mf/Kz5743/kf/9n/xhzcQczqFJb7YwxRU584SKmKnBX92m2RrSjCnt5D5tr/HP72FxjL+/R7U1pt0bpu0zhrqZl5+W8vK1C+3p//47l937v9/jMZz7zbftZ73vf+/jFX/xFtra2+PSnP8373//+b+vxnCu0fgyNakNn0/hYeOMeZd2iHgYIIRkI3z5K87yu36fYtNjeRSTvDPHWQ/RTgM/q8IwoBMWmpVvXZM6THyU1lrkE+Mx8oLl3RtFZwv0zCuMJQuI3LUVniffTGFp2L32GTUuQktw6XP9d8TDV+WgMrTCW5vZxGt85WpA3CfCZn67JxwZ/54SytfDgDG09qjWY05DqPFqQe4/b1FBbQhexzuHnkrDuCE4w8ht0DFgnEGFBFSyhneOCYDeu0/QGApldJFeRzZwiWC7Eft5ZtFzyC4o4RhIYRM+13iy4ihblOkocL0bPltQMSRmQXpywzRlZnHHVztiKniHQEdmRBd+HZEsUvDcERlFTxyUeQYXnSjihiDXXgiEPlgrHHlBuWto37qUM0nsn5Gud5lgdL8h2Df6NNI7KzUO0sUmFWZeQQDcOE4T1ztETwOemTWOsNw/PAZ/n5a+9/Omf/im/9Eu/xGc/+1l+5Vd+hQ996ENfdd0333yTX/3VX+WLX/wiVVXRti0f/ehH+bmf+7lnPo4Pf/jDfPjDHwbgM5/5DD/zMz/DT/7kT3Lz5k329vbOFdq3Q6G14yHNZIC9dkBXFdjn02ezN6XZmdAOS7ore7hcY68d0I4q2os7NPtTujKnu7LXKzSBzTOa/S3aizu0VY472MIqRbc7oSsymsmAZjKkyzXuwhSTadzelLbMaEYl7c4Ik2u6gylOK8zFpNCarRHd3gSjFfbiFjbTSR1UOc1kQHdhSlfk+Mu72FzT7k3oeh9JO64wucZfTgrNXNiiGVe0ZU63PcRqhdmdYJSiHVc0VUGd53TDAWuXM5NbrHzBpqjY6IKNLlj3Cm1dTKhlxkwNmKuKtcw5y8asUdwRU45jzrEacSKHrIXmoRpj+rGxRijuiYzbIueYyJtCUcfIDaGZC8WhKDgUJYdxzZfpOA4Nr4WOB6HjSGTclTmtGnEv2yIw5IQLLOOUu1JxU2oWON4UijWeG0ROCNwjcJ1AVxW4Fy5iioz24g5mUIIQmO0xpshwvUo3Tym09lJqW9MrtPbSbrpGpqP0Xabpru5j8vMux/PylW/PEuTX+fsGkNXz+Zxf+7Vf47d/+7f5gz/4g6+7/p/92Z/xwz/8w8QY+aM/+iM+97nP8clPfpJf+IVf4CMf+cg39Sd+6EMf4p/+03/KZrP5jlFp331ejtaTNS3UHe1xmqdl+jGmsNykibTGEk6XyZvxeE7WdMTZKo2ZGYc9XSLDBBGSq0i22BClIDeOZr5JcMxlQ2YdbNKOM+Mxs01CvmxashBRjUlOIS6gejcQOd+QNSb5BTYC7QNilvA2arEh6/0gXY+5MWfLNEdtWaONS/iYpkW7QNs7k9j5hqw1KOMI6xa5aRH3TlGLFuEs0niUA9MCUZCZFh0CYROJAQrvMDTk0ZPbmiJGhnTIGMmDZ+gbshgYhZoyWGoPMQaCMyi/YiMgEmjEGdvBEoBRjOzjqGTGZVGwRY7q1VsHXIiOEXCByBSBJ1DE5K6/Hz2CjpITcuHYiR5LoMCzE2qk3zBxDcNoAYEGMmOxD2do69CzFaqrUlutG7R18HCW1NjJgqxukc4T+7aVx4u03dkSaR3SeSwkkOvJAm3l+QP8vLx9l+PXW+frlOl0ysc//nEA7t69y+/8zu981XUXiwUf+tCH0FrzqU99iixLL1o/+qM/ysc//nE+8YlP8MEPfpCf/umffrzNCy+8wK1bt77mMTz//PPcvHnzbZf92I/9GO9617t4+PDheUD7dii0mClsWSQ/xr0pdlXDhS3sqsaOBwifuGVuZ4xfbNI6TYfbGiGcx1mH3xknjz8pEqhzOiQqiclUgmouG/ykwlqLHRREkcjUbA1wncVf2sMcz5MDfpXjjMNPh/hVQ5gOsCHicw25TnPTtob4dYufDnA+4KqcMKpwxsPOGLdscOMKlSkQ4KsiAUW3R7japDpl8nj0wxJ3b4YXOaaOtOTJdFkHQlnghcXmBc4bTv2ILBikjLiswniDzQZY0VKLAhkDMRo2qkLRsVYDpDcchpwYAiqsuSMlF8IST2ARlpwphUcQMZygeY8ckYmX0LFmJnvsTZScyoyJl5wIzQBPh2AlBHtCcyYL1rHmrpB0mJTliGQUVjyUmsJtuO/XSAJLYE5S0lzYws1WuK0ROtcJhjqqcJlOy9YNfndClCLNQ9se41c1YW+KW25w22NE0yGNI+xN8fM1fneCz1rOQ9p5+esIaE9P1i7L8muu+5u/+ZvcuXOHj3zkI4zH47cs+9mf/Vk+8YlP8Mu//Mv81E/91ONg9/u///s497WBflp/7TCws7PDwcHBeUD79ig0R9Z20HR0x/PeUSO9nYflBhki2lj8Uwotbw1xtkaGkDzkTpdIP32i0G7fAynTvDAf0D6gljWZ8UALiOTlOE8KTc6Tl2NQHu98Gt/qFZqab8hbg7eO0CanENVvp+ZJoYkQcY/V4grte4XWwz9V0yWg6NmabF3jgk/KznrCOqkvWXfoEMisQdiQXEtqi46BzLRkIVC6jix6ZIwEV+OsoAmWLLik0IgEH1CxQYTAmA2D6JiGNpkTR892aMnQSCAnshstHhgFz54I5AS2Y0seWwa0BAEiBvaCZUjk/2/v3YMsO+46z09mntd91fvV3dXqbsnyU2iwMRgsGDAMfgFmbViHJhyDvR5QEFgbLGMcihnDLJglHLsQO7sDVuCwI+wN7zhGLItm2IXFXgde1hIYS3htYwm5JXWru7q7ut51q+6955EnM/ePPFXdLbUeVkl2S8pPxI176548eU5lnnt+55e/zN93Hse48DIxGdDGMes0iZBMuYIeBuE0FYIMx4zVJDjmsfRQpDIiQxCXjYdWG+KtAVHVbrKqXPLQolKj1vvEeekVGTb9NSDXL3loSvtM/BV4r3m9T6SDYnXgCZboO76w+pOf/OS+1/R4jh49yvXXX8+pU6f4whe+wNve9jYAFhcXD3TM3d1dTp8+zVvf+tYXxnPGi85DUwoTKUwcYTotTKSwXf9usoQ6jf3ndua1wjqZL9tOqbMEoySmnYIUl8Q3l5awZ89irG2y7AtMGvuycUydRBjVZOCX/t3EChMr6iT2WflbPrO7aSXUkaJOY+osuWKbbaX+3JIIkyWYSGLbqZ9ckibYyHeXjaNLxxnmmFFOvTvy55NGvq4mo34dKco6ZifP2Cna/n+KvMaalhG1kGghqWTMmo45q9sMXUQpI0qhWNOSZR0ztJJSJlRCkYuYnAgtJCMRNR4Z1Ai2XUXfaXLh2BUS7WBXSPpixCrbrLptKgQDodBCMRAJlUjQskWpWhgRMRQppTPsCMcIywAYIKhw7ArQztDHolXKX37pv+ev/7//eb+frZTew418SjLTZNu33RY2ajzYJG76PPNt1fHvpp1RZ4nvs46/Pkwnw4Qks4En3DnlM3s9R6ytrfHII48A8OpXv/qqZW666SYAPv/5zz+rY3zlK1/hne98J3/xF3/h76fO8eu//uv89m//NocPHw4e2jXhsj3uScldbvye7Cnqcd+5J6tTPME/fGJ94ulP76rHebrCPLWA4JPVZaykthJj5eOqF/tPOLIRhLm8hHNQO/9+5XHEkx778m3usu8NNbVTWGcRQvrU/U15e9X6HFZYjCvRzgH26v31+PfHlXHfRluFtLKB78SQ4zPlgQce2P985MiRq5bZMzrf/OY3n9UxxsbGWFpa4l3vehc/9VM/xYkTJ7j11lt505ve9ILplhfdkCPO30adcwjrvNhlsxAY5zPt7737bc1duikr4AmCjsI6nMTXUxv/bg3CWXCmMQaXH8ft3xX367r8OPjju+ZcaMqIvX0f/2qGUqnNJeuyt99l++McYi9b/N5+DoRs/lcc23nKlslw2nilzX1b2ZxXcyuXzee9NqmsZbs0xNYixCXz5I2fuMLld827uswwysu25dUGBQqNRakUifRLLhpBUYlDCdmcAxiXY5AMigsMbYnFoJB+v6aN9/p5v/8e/+Ri7X5/i8e1LdZe1q6Pu2asI/hngWdCqWtKbfb/3hmVz1ndm5ub+58fHz+73CABrK6uPqtjvPKVr+T+++9/QffBtSPwubqNXlp79pUYS6eu/ZO4ELhG3NIJAZGCZpIHTl657fJ35/y+Sl55P5Ri/0WTXR/pE+26/bH0y+tqbuXysrr29lMSK2jOUTaL57wvdOk4e9N+9+oE1CXvb3+/aG+b3D+Pfb0n6Y/rGs/ECYETEjDNd/5v/36pnG1MVGMafM7JRpPasldG7Jsxg7jCXzIIDGCaIUiH2C+zJzQqwYuKOl/GNj6XaY7hv3OX7SeafaHeP47fZ7+Npe9nJ8ApeWkwXTaedKT2rwXXDCezJ/a4t62px0l5ZXnh1b77yxuY5Nlrc7m89KKVFzep+gfT+GJrl6jS7JxfP7BoZTz06wM3l1YPdk7G0tY11dYumwcNH1yjbRVV1ZN6aB/90y/zkbvufV7ukaPRaP9zklw9EVua+vWSw+GQlyrXjsDnzhCxufPs67AOZUDmkHx9Bnc2RbQy4kFMerJDvKMgTRDWy8fQSlGDlPTRLskwRqZeWiYpeth2hnykh9AQn5zBJdf7xqotpDFyNE+6lBJXGhF5wxHFCfF6SjQqSVdS4qJq4lWKqKhI2ylyOEN6NiWqaj+LUgnkqCI947dlZ1PiqkYJiYmVl4Y5naIGk6RJRPzYAsJI0ofnUP0bSc6mxMspLlYobWBllyRSsD2JcjFCa9pRhCshziNSqbADgcwT2kaTSEVsYaVK0ETM2opUpYyZklwoBI7JAhZkTKsuiG1Ky5RsWIempHQlEsHL7MuJUbzcvpwRFRaYkhMUdJm1mg0b0XGHGFJ742oXeZkQTDvNdVozAai4S4ngqJ3jBllwhIwbbELbGUphfJzOTrBIyWHZ4z//u/eRFCXmbxRRHJHkGfahNlFfkrUzon+cBANyrU2xsEj0j6A5RPQIQIoBVB9y2kQPQ8Ei6jT4aSkQrUPOUaKHHdHFBGEMbA8QvWcv8Ckb0UrVH+Lygz29R8PCT2jZ2j3w0NZegm1zkN/f3m+wUbOo3cEGba/VtpJ7adCuEiP71+++hX/1zh+8wkO77v1/+JzcIvcSBQNora9q1LT2/dhut4NB+67aMynp3nAYbn72Qn5a1+ivrhOfmiX7ox8FIGtEGuNI+aTEzQUonLsk7tgIfLrHC3xWwCAj+o8/RCRe75/yrSOREmEtnUYoMr4sXhMr6UUkldwfBtyb0h9JibQWJaUfbgSvG2UtcVPn3rY9b21v274wpRaQt0n/4q0garpKgjbEcs/FsbimzgSJcJaWkOAcznlvCeuwQviZjcJ7WccsOOHL77/vD0T6tFbSOeqmTtN8DzUGQYqkwxg/X/8yP9sYLYXECUnkLLWQSGf3PTmBoW4uvroZkhRaIFB06TJgiMRhhEA4cMLho3yaGkdkBd2P9PxQcPO0LKwjbgRdIyURNYg8ofe574Uvm2d/bVqH3R5gWyljr12Ew9WzrmvQH1INHiZ6+SKdsYOLVoozK3Rec5w4PtjPeOvrj4KAyZtvOFA9WteUf/eP6KNzTC7OHqiua7WtLvz12pN6aGkak6YxH/s/7+fOP/97jH3uJIcWFhYutc1gwNTU1BPbbODFZ18oU+xfvB4azQSHg05z7VSY69eof/IB3OQA3cnIdobk4x1a/SE6SxAWVK2pWhnZ7ojRRJd0mFOnCcJZ4ryi7LZpfb1DdNcb0bf+LTq+38vHaEOVxbSGBUUrJSk1OvLDf3GcULQzn4Kpk5HkJVZIbOSn+5d727oZUVljlR8qS4YlZTcjGzT7VZpaSmwSkeYVRSclG+RUSURy6hDxX7yV4qc+j0q/SZklpMOSKosaD22AjhTJdsmQmHjX0LcZ0jmkdVRS4QYwiFLadcVIxkTOsVomDETMmCnpqxRRaHbwHlpsLQMZ09YF592VHlrlzrIpFK+vT/Auczv/m/pDvq6+hQVm5BhD0WXG5awLRWo2GDjvvWW2Yh3JjK1ZcTWTCNJkjuvsy/mv6l/ms8l/YCAfYU3EdJxl1+1QI0jLc1yk4ojq8W/+7XuJixKrIkwakwxzirE27b4X8YyXU9Tnvhf5316E68oD3aT11x6letkkE0fGgIMLfD4XApiX13PgusRzeE6X/54P9q9dm20FT2rQ9vjAO76fD7zj+9kZlUz8/O89J4d71ate5QVUnWN5efmqBm15eRmA17zmNcGgvRhwgOsIiu/bxh3awhyZRZxaob5xkfKRVcqpHjRDIvrwDNGpC+hXXoc7u4aeGffyMet9iuvmSUY5KgH9ik2KibM4JfyC6rlx4rPrlIcmcRs7VG0vH2NlRL04Q7W0jl6cxq40C6uzBLGxQ3lkmmhpnfLoLHrrksCnXN6iOjpLtLRGuTiDXd+hbiW4XgtWtqkXZ6gfW6Gc7oEUxLGjeuUGsXiQ+tAkXNymmukhBgUi20B3MjjTJ0/HqC+M2BaTCFujrKFOWhhRsdmaYLzosx13iU3F2WHGdjTGTLXFejKFE9ssuxYKS8dWbKgeM2KTf2CKiWqbx5yiZIiz3+BRmdCzJbUx/KP6Fp+L7scgOKGmWJezvNJs8IBMmeIcF80IC8zKim+JiFdQ8oDTHMeRJdfz6jrmF2rLV6Nz5PIbPKh6zNqCi26NEsm8/hZfsyU/ICcp3vZfYi9uUrcz7EQXd26N+obDVA8tky/OUv/DkM692huzG4pnf01VGrvWx863gDECgcaiPYPUVs/dtP2pqSluvvlmvv71r/Pggw9e1WjtzYR8Ic1KDAbtaR40ZanJdobQGVFpLxtjT/kkxbI2COfH+eWST04cP3aRbFQSVRrhIC4rWFolfjRHVJr04UcRNw5wCOLaUF70Ui/p+g5pqf1iZyFQWYY7v+HlXPaSFEuBbZLc2otbPgHxxU2fhmtYeoHP2mAu+uTE2co2caWxpaYelqSjAtdIm7i1PvFoxg+X7gyJ2waz0ie5sI29uENcW0RpULUhsYZ0d0jsDJ1qiNWCoorQQpM5Q7fcIbM1E3pA5CzjBpS1dKzGVluUtmbe+akfg8KQCENVV7TsKqmrOSIEBQUDLCdsRYpDAR1nebWcxAJjLqJjh7SxHLM5EZbYmcZDq7kBw6SU3KymmEAQO8Uh54dAj1jDBWk5boZ0sAwHD5AB4/EEb2id4ISYITu35heo5yVmd+Tb6tQFn8j5wjrxoBvuuYHn0Z49uYf2sT/7Cnf+H/c9p0OOALfeeitf//rX+dKXvvQEwc2VlRVOnjzJ1NQUb37zm1/KjxkvLg/NZgn5RId8okv9siMU7Qxz4yJFO2O0MMVotpFaaRLZmpcdYTTWJj86x+jQFGU7ozy+gHHOJ7cVjny6RzE7xqidUh+e9Ml/58fJW15MdDTZoWilmOtmfQLjozOMuplPXDw34RMIH55GxxHVkWlGY21GMz2K+Qmq5rsqjigPTZG3M0aTXarDU5StBHfUy9wU815OxglBNdGljBX28CS5UpTtNsM4Jk9jivEulVKUY11KpRi1uuwkbZ9sOJ2gEopBNk4uI/ppl504o68yNpMpBjJmK51mV8asqi5rqsMGMWfFOLtOcVqOsypilmSPc6LNNpJHZUrRzELcFZKLcpplOcOGSDktuwyRnFYtNoTkjFCcERHrwENCsoVgKV6gH01yUaSsyhSH4KJsM0JyWnW5KBJOUfMwNSOR8B8f/E3+pz/9acpj8+S9NqPZCcrjC+TdFvblR6myhHxxlvyAcZdA4NnygXf8AA984gN85d9/e8mC8zwHwD6JIbztttuYnZ3lrrvuumLWI8CnPvUprLV88IMfvGICSfDQXgQeWrozQnSGFGe8h2auIvDJ0wh8SuvXm8W1xW4NcU0C4nKl71NRre2Q1g6lbdOQjtGFTdJCY5Y3SXM/y9HkJUmpMU1aJrWyTZJX2LzCSnFJ4NNY9Oq231/X1LkXEB1d2CCuaszGLklR+fPvj0jaBn1xm6yqsVUYg5UAACAASURBVNXQy9hs19jtGpVbYj0ksZZMD4kriTQRpauJnaFV7pI5w9ltS+IEXVth3TYdW1NV29ROM2WHSCByFdgdUmoO2R0SttHuJBGWNpajV3hojgWb4wS0XY21hgzDoi1IrAZb+MTFwAnnmBCSxBmmHEQiZsH59WjzVlNLyyE7YNwZFhFooCdALfl+i8+vk45K6lJTDwvSUUl+epm4rLzA56Ad7qyB59lDk09f5hmysbHBPffcA8C9995LXddPyLE4NTXFZz7zGd75zndy++238/GPf5w4jrnvvvv46Ec/ytvf/nbuuOOOl3S3vOhiaDaNKcfaMKZxR+coHz4HJw5RPnSWcmbcz4LbHXnhxkfO444vUDx2kXp2AnQNq9vUR+ewchclJTqSlJMdkBLTH8HCBPXpCj07Bts51cwESEHSH8HhKcozq9hDUxQXt3CRwrZTxFqfen6SuljFLkxSrO9gsxiSmOjCJubQFPqxVeq5Cdx6H5MlMN6mPFcjDk+ji4tU0z3IEhIhqMfb4BRibpziQp+61fJDb1sSrTIUA3S3A7sDiqxDhWNkI+q4RWZqyqxHmm+zIsdIbYmSlkE8Tuw2GCQTmGKTTdVGYhkIWJVjHKJkWY6Rsskpp4mcYxHJkkwoGw9tKAQXZIZBMEPOWZkxbkrOyw7jwIVmHds8gseEoicUK7KLcCWKDlvST5lfly1GCM7LDqXNOYekAGZQ1Edn0aMCfWQGt7xJ3U5haozyzEU4cQg9KqkWpnBrkiDLGfiuDDn+p7/jzv/8lWc05GiM4Q1veAMPPfTQ/vqxv/qrv+Lw4cPccsst3H333VeUf8tb3sKXv/xlfvd3f5cf/MEfpN1uMxwO+chHPsLtt9+OUi/tvKMvToHP7SG0BlSlJhsV5CeXvMDnxUsxtOqxiySlpn7YCz/qovJTv0sNp5dRxntoiTawsXsphnZ+w8fQLm6TOog2/bqkqDYUZ9bI8gqW1n0sR4AZ5CRVjbuwQaxr6nPrPoY2kFgpSHSNObfh42zLmySVxuQV9aAgG5UUewKfK9vEo2mEsSRLa8RzNXZ5i6TUiMIQGYupaipjUCOHGOWo0tFhl0wLIp1QmYrUGbpFn5atmdE7RFgvE+MMtjLYaouW0cwxQOKIXU1itskwHLNbWKHRtkI6QxvDCVOTNR5az1mus0McggxNYmuU3WLerNEyOUmT4mo86pAIyZxQjLmCcWdR5MzZHIFj1u5yrvombeezhlyPoAbGhSQ9tew93jMrXsxzmFP3h6RNPydFhTu3RtwPQ46B59OgPXmuxg+864f4wLt+iJ1hwcRP/3dPWY1S6tvOznHzzTc/pczMS7pbXnQeWpZQjDcCnye8qKO54QhlO2M0N8FoZpyik1EcnUMnEfr6Q+RjHfIjs4wWpijbKeV1cxjls4voSJFPdimme+StBL3gY2jl3DhFKyWf7DKa6lE2sbMyS6iOTJF3Uh+bmxmjSmOqhSkfQzs05WNoU12KuQmqSFEemtyPk+WtlNFEh3Jh0sfjjkxTJRHF7DhVO8UBVaKolKKen6BIIsqJDqN2Qp7G5L0WuYvYUpMMXcIw67KbtNiNMnbTMR9DS8coZMRG3GNbZfRVymYywZqJOCMm2RExa6rDmmrTFzHn1RgjJEtygnURc1omPCZiNnE8ItS+hzYQkiWZcUZmrIuYR2WLbVvwoMlZc4azQnJGSEx8lPX0FdRqgTNynA2RcUFErMgYByzLmH7d50GzzRnT54yIeFTEjEREeWzet8fiLHm3xWh6nPK6OYpOC3PDEao0Jj88E2Joge+Mh/Z0r0Dw0A7ioYlKEw8LGBaUy5teVuT8ms/csTXwC6d1jV3dQmmDuLBBMipgzSGsJT17FrO1hrQtcBZlHPFO7gU+S03RyLmorSFJ7bXVQBCXNXqt7yVf1ndI8gqnJHVVE1U1cqMRk9zY9XG6QmGj0sfVNne9iOfWgKSoULVBl5qkrKnX+pekacqqkUQpiNSQoqp9GZMTa4Opa1yOl40pR8ga7ECjDLSM93YiZ0irIYk19OoRiTNeJkYPKJ1hzOwitEY13pGqS9rCUdgBtVql6wbM2ZLIObrOsUBNS3j5mA6KWVdhEXRdTWUdmTMccoZxAcrRxNAs87agi2PeFky4GkHMVJM3csKVZMAhYBKHiHpUCCblOGpli0gborVt0rykrg11pUmKivr8GnGlidf7JKNW+HUHnsebzZNP2//Yn/4td9795ed8lmPgJWbQvMBnhG5nuE6GXZhCjwrc4Rn0sKCc6CKMwQ5y6tkJzCDHHpqi0vX+OrT4vk2sGsfKLkoIjBLoXsvnUtwBN92jHpaYiQ7VTk7VbTWrQB1uZgydV9jpMSpj99ehRbrGTveoRyV2qke5BTaJIW0EPqd61IOCeqKDqA0miXC9FlWlYXaceligx9uoNCYVgrqd4EY1JmtTIjHdFjYvscqhsxQhCnTSJs+HbIpxpKhRyqDjFnVdUSYdKluzG7XITIXEMoy7aFGzo3pUtuSiS5FYaldyUcSMyT4P2z7HXMWqiIhwSDQrIkLJCRAKIadYFytN7kXLqkzJhOCiUKQONqXCAgskrMsuk2bAqkxJrEC4lF28B7olEgpgGZ/78d77PgpZQufsCqP5SczOkHpmnMrY/XVoVVX7ft4ZoafHYFkSh9934LvAFUOOb/vt0CDBoB3EQ6tJhjkMC4oLPpalz6/7tVxbu/uzHN3qNpE2yAsbpKMCseaz88dSUo90M8vRoYwl2R3hhCAp68ZDc0Q7OYk2iF0/q2/fm2o8tLSZxWhK7T2s9cZDW+978c9SY0eSuDZUzbZoc0BSamylqXXtY0WrfSJtSLaHxIX25z+qiKSl2BmR5BpTD4mNwdYW8oLIWZJiRGwtbTNEOYtyjsIZRqWkMBWJkfTqEakzXitA71I6w7jZQbmaSZsjgYKa2o6QwnHIVYw7i6MictB1jkNoYnwm+5SaGZdjEaR2l0knyJzlsDOMAxEWB/RwHLIlXRyHrGbCGSJnmHA14OjaLTIEiwgmgHRr1+fE1DVqeYNIG+LVbZK8ROkaXVYkeUl9fp240iTrfeLgoQW+E0OOT1cmEAzagTy0SFFnCS6NMVNj1KMSM9WjHuTobgthLFCgxzuY3RFmqocuNXqsA7VBfc9NlIemad13HtVkXtet1OdWdA7TzTDaohemUJsDqpZPEiqtw4y1vfc21kLr2ot3ZglRVVP3WthhiRlroxlh0xgbR5iiph5rY4YFdTdD1fW+yGhdasxYGzPI0Z0MFUUkAnQSgRXYVkqxWjKyMVHliBToNEGIiipOkKKgkCnK1kTOUkYZW1XNRXrMahipFOs00llGqoWVNQPZIqNkVyQoHBpJX6R0EWyIiJar2HCOGEgQbAqFdj5bf4VkEzACErPFWefo2ZpNEdHBsN3McqxI2REdZt2QvkjoUlGQMBIxFsuK2UULxbpT/hy6LWwS+Taa7GF2RujxDqo2XpCz16YuKsxUD9MfoMc6iFQFDy3wPBq0ZyDgKWVop2DQDuah4RzCGK+JVVYIa6HUSGuRtQFjvX6Wrr3WV1X78rpGGO9pCO1laHCNjqdrXkiwPk+dqH09svZyLMJ4iRHhHGh/fCkctvYeENrsb5PG4oxFiEbree9cmjoFFupGv0vX/rthDqVPjCuN9adnDLL5f6V1oJtEvg5k43nJxjuTziGd8TplTdxMYVHOYizUTV3KGRSOCIvCYXHEjahM4hwRjgRHBM0syEtpjCWWGId0oICkSTwc44gQpELhgMQJ0iZGF2ORznjT6bw4jLIVSiiyZl9Z+2ws+/3V9JGwFlE3fWcdlD7bi9A10oSbSeC7Y9A+9if3cuef3BtiaMGgHdxDo9EZc1JAHHlNq+bdKr9w112mj+Ui5ctHfv3G/nfXH8fFMfUN12O+fwYnBXJnhJmfxH3l6/saXHu6ant6XFymsWYv10OL9rTZLtPcUl57DOX3c5G8pJOmLitfa+zqAPo+g/m+MkCkmv0lGMFuP6GIU6S2uOySHprPqr+nf2awSGyjPWYRrFaCdalYcL6M1yDzKfwv6ZMJaiEwDjRenNRg0c0w4l77143+mQB0o2dWIxCqxUR0FItA2ARBhnAlFZZKaHJyBmIIWEZmg/nu6/js3/1L4s1djPL9s983+zplTfs2Gme+n70emlNhuCfwfD49P0Vy4nf/MB949w+zMyiY+PEPh7Z6qRk04Rz95U306QMIDBpLT2twDrXSxdUWNewgVytU3UKsjKH6be/NVKnftqZRro3aqFF9PxwpdyVR0UFuZpe8PmsRNNIuplEyNpcpIDde3P4220hg2uYFYC5Xxm5UsE0jp7z3JLfnIdpL6suYpvwVStiXqWBzSYH5csXpfYlO5/aVp2nWgYl9JelL6tnysnKSS+rRe0rSgPfyAOX8ujOvSr3Xh4Lj5kZe3xhEZQ5zFMcxWzMrJPMkwBwOmLEp0zJjzg4Zc44JW6KFYdHcgCTie/gnpLUh+ds5okEXGcU4JVDbLeKlcdR6Qnymhxr0II6QrRTV7xA/1kOuRcTjHaJzMWIE20trGDk40HXVrTR6vc9GbQ52nRcVPV0zOr9OuXEw7TG5PSAuK3bOrFwSKn2WpE0ceOP08sF+yC+BtooKE4Ycg0F7OtfKIYoKMXz2WdGxFhFrhHUk//v3+R9qs2lPsPzymEryuG2Xy+V1rUPtNMZAalSpvYdWG2RewuwcYmoMsTNEpon3+PIKpscQ7b5/Hx+iHjuN0zXSOmSlvUEo9f4QGntDgaVG6ppoVKB0DUphq9onU85LL0pa+aFKHKjaIpVD6hrVDMkp5/zkD2Moy4jtMmVCW6LI+GFE54isQSKIbY1yjtgZ/0KQOE2/MGyQ09UVIzQSx0X7NdaEZNEZ2iIiwU/FT2TErDqGEQmdKqNLh5/Xv8B/ofeGWXwiYoWfqi8b00jz2T8iOExjML2GmtdD+zU+jCwEvQ9l3ng3kh/COZJm6DFu2m9fZ8Q5skbnLd3bBsg1g5052HUlrfPXwEGuT/ySEuEcMi9x5mDDUar017oYFQe+cfrrkYP9/l4ibSWMuuShPZ0UjQijBC9Jg+akpHdiAW569jPTqkpT9v+R+n/8BhOTcwc6n9HuCPNX66j/9CPUcxV6rA1Kea9qegyzseMnkxSVn7YvhY+LzYxT7wxxM+PoUkMWY7KEutTYsTZmN8eOt9HWYbMEl0SYUYkd72C2B5huC60NJo2xvRZ1oWGii9nwkjJRrEBAncTgJK6TUasCkyZQVlQyQsd+UohWGXVdUsYpytQoZ9BRRi00edRC25KRTLEIRgKGsk0icnboEIkRO8QoLEMEmyJi3hk2RUQbw6ZQJEgWkGyJhIEoGDDi7vh/4SvxKQyCWK9xEcfLMJwhZlEkaDWBRTDvMi7KNgt2h8ekYsYVVMB19kb+Zflu/gc+SiezfODf/zRye4BNIlwcka1vUyxM01peJ5+bJN4eUKcxrtsiWdtBH5oiPbdKMT1OfEaSfu7VjL1uAW6YOOB1NaQ+MsPU0YNdV4P+AN0fEt9wmO74wdQANs+uUJ019F517ECilc45tr7xKAjB1E0nDnROL4W2uvBXa8FqBIP2ncPOF3D0YE+Htj9CzOwgREWka+KdCicFcVFhNnZQxqC2BsSVxg1zEIKoqqk2doi0QWzsEBcV9sh1kMTI7ggx1UNEPZidQLVHiDjCRgq1NUT2h15ufpATNx6ddo6orqmabVFeeRFP45CruyA09WBAqi2KiriRjbG1RjlLanJiDFldsFtGbBYpI6mYdiUtkxM7S9uWJLam5QRdmyOcpceIzFnGqJA4BjgmnffyxsyQFj6ZcCwEHRzTTiOcBixL8iG+Zj+PAcakYUVIamdYQpFHPRJxDIegdI4LosVI9Dkpc3pmjfXRw3wPP4rhXSzxD7QU1K94JcnuyMfGIoXYHmCntxDTfezUFmLXt6NppYj5AfX0JtnEFm68A3EL98VXXJsX6TX05C6udS/iWm2rp0hO/LG7/l/uvOtLYVJIMGjXkGGUAplE1ElEPR7jlPQe2sy499Amu+iiQjcLq6WxMDuO7g/2PTQbKUwnIyoqzNQYZmuAmx5DG4ttpbg0po4i7ETbe2i9Nrq+ioe23qdup6jGQzNKYZ3AxhlVUWPSFKiopELHCYiSKs6o64oqzhhpxVBIRqrNuCnIVQttvIdmEBQCBqpFLEbs0iYWQ/rEKByjZmr+LLCGpOMMG0KRoMhRbIq0mTQCpYD1/WFEwQYRixjWhWIKiRZeHiZzmm2RMcYuGzICA30s/SZWt40kQj6hrcwgx0yP+7aa7KF1Td1KcRNddF76ReibO9QTXWQqrxhGDgSeU54ql+M//zE+8M9/jJ1BzsQtHwptFQzaNXC9GossKp8YeM0vrI5LTbm0SqRr0uVN0r2YlxBElU+YmxYVdmmVdFg0Ap+5T6J7ft17e3vClMMCpyTR5AxRt4U8mhK1EpKsh1GKOo6I4h662yLq7ZA9ukRSanCQVBVISzIcwiaYLY20jpbRyMIiraBTDkmcoVsOMXWMtopE1yTOMKG9fIwe5eAsPeuQ7KBdzYLrk7iaeepmpqJFWE0Lx3FXMokjcRaFZQzHda7cl49pOcdiEzvrAtJpxmSLV6keC3SIrfHTUcQO0+TEjDhqNJnzx5oHJBGvzI4zrfpPaKu4qknOrxFVNemyF1M1ReXlY/ISe2bFJ3le2SIehlyOgefzBhEWVgeD9kLy0JTEtlKqNCFfyCBS1Ot93LEF9AOnqa6bwy2tose7Xj5mcxd7w2HKk+eoTxzCnl3BJjG2k8HyBtWxeeKTS9THF6hXtnCtFLIE+dhF9LEF9MklyhOHscsb+5Io7uwK9sZFyo0tislNXBoTC6jaKcIozFiPciNnkIwjq5IoqqnSNnFRMErGiEdb7GZd+jZiuxbkUYdWuc5WMkFUbrIse7Qa+ZjtyKfIuiCnmDKaCyREWDaEZEkkpKbiUZlw3GouCkUiFNMozsgO34PACBgKyWMoDIJ5ZzkrE2ZlygU1Q9cItOhiESixzaMy43qTc0qmzFjFKjADjE1kfPhj7yaZ+Sqjp2qro3NPbKuXHaF68AzFkRnMpiSYtMB3w0O7okwgGLRrxUMTRUVcadLVJjlxUVGcXSHWhqgRmNybsZiUmvrMik/BdHaFbJBjZYkZFk3i3HWfauvcGsmoxA4LrJLEpaZqxEbjC77OqNRe4HNUMnrsInHWxnVaJN0WQgqSdkScRdhU050uaAlDbAzSOMqooNyOycpdEmdol0NqHVMZRewMibOM6R1armbKDEicpV8YjLAoXdJinR2WKMmpcUw6i8N7aIu2ZApBV42RCEUXw2E78guoHXSc5SgWg2BMSASODpLrrGbCRQi8wGdJyYK19KhZtDVd55BIZpv1a2q9TzT+LNsqCHwGgkELBi3wRA9NZgk6iSnnUogUdr2PvW4evTuiPjJDeZmH5jZ34fgC1beWcMcWKM6uYOMI220hLxgvKDrMMYuzFCtb2FaKyBKiUmP3RCsPz8DyBnUng8ke5dkVOL6AHpXk/+xHsG6MJEmofvyHsEfGcK8+hjl5DnF8gXq9jyoqxMIU9j3/K7nokZqaUdph10TsNB5a11bsxGOktmZTdWnZkjVXsyJ6jLsR52QH5XLO2JwYryp9TsR0KTmLIhYS1DFKLD1bcEG2qRDYxkM7LxIMfjH1OZmxiOK8bNF2gpLMr44TknPSJ0Y+L7vM2F1WEcw3q+jM7AQ6Vs+6rYLAZ+B5J0zbDwbthYQyFjny3hUXhj6GVmnKh8+RVDXmsYukeekFQYFI1xQnz5EOC9zD53wsTQhsf+hFJ09d8PudWiYuNUYOcEr6+Nq+aKUXHbWjgnp7QJqXFCfP+f2X1kh2lV+Ltdonnq6wJ8+RDXPEqQtEukYaiy4r0lZBXa7QTjVdUTJGRk8mlC6nF1W03TqdSHOx2CF2FusMsalRTnPMbjHEIJ32C6dtgRIlLad5uXPMENGyOQroYLnBjIhdjnSWzI64QVofQxOSti3oqZRXGcuUlTiRA7BDxfW2T8usM5mvNJ6d4DAC4SC+sEHSO1hbBYHPwHeLj/2HL3LnZ/+fMMsxGLRrB6Mkop1SZQmjwxkohd5oPLQHH6M8No89t4Ye7+IEpFsD6huPUJ48h37ZEcxlHppb3qA8cYjo5BLV9YeoLm5im7iQOLNCeeIQ6uQS5bEFzF5caLKHXVrFNHGh/Ogs9qEOiRBUs+PYLKG+8QjFw+epjs1Tbeygigo9P0nn37ydsZcfpXVyCXXiEN1RwWKpcXOTdL51luHLj5KdusDn3neali3ZEN5DmxSaM3KcyCnOiJgIR8vVnHURNznLSZlghETIDhGWI7bkMdnleldjgD41j6kMA8w6w5JImEGxKmaIRc6uaPvkxELyiGyzYAseMLscQ6BFypRTOAH60BQiiQ7UVvV2iKEFnj98er2rDyn+yr/4CX7lX/wEO4Ocydf916GxgkH77iONRZTax9DWCr8OLS8pz615gcnlTR9DMxaEX6NWn10lKSr00irpIMcpRd14cfrC42JooxKjJHGlqc77uFC0vEE6LIgqjd6LC51d9ZIoK1vEoxicI97eJZ6tqM6uerHQC+vEeYUyBi56eRzV1Blf3ETVPstIpWsibVAXvJzOUTEkkQYVWTIGJBKMKChcBykjFI7KbWGF8TE0VzMlIlKXo3B0neWQHZGSIoG2g8O2xgiYFDEKRY8EZXM6rsShvao4gsVm5uR1wDQOGfVYsC2fT+TxMbRn01aDIB8TeD6HHJ9BDE2EGFowaNcIVklkGqOTiHJm3MfQNvrYxVnqnSF6YQphjJedaWJo7ugcVV7iFmcpl1b3PTRVb2AOTVMPcsyRWcqVTUzjdehSYxoBUr0wBRc3Me0UN9mjOmvgujn0IKeam0S0MlpC+LhdmsB1c1Slxhyaxm7uooqKen6SOi8xh2eohwX1whT1qECUGjc74c/h0DQ6r3jnX/4oaneEMBa7OEvy6AWqGxdJHj5HMT2GqA0/9YZ/y7lGl+wcktSBok2EJRIFy7LNq/DprXIByyKiFtCSM2hxhMgMWJc9nKtYkRqLYNq2WJc9JpGcxasYfOnej6C+eRz3r8BOj1HH6kBt5VZEkI8JPI9PvGFSSDBoLzQPrVmHZtd2fQytqCjOrHjBzWaWnWqSsMZ7cZ2iwpz1Hppfh9bMctzz7JYar6rx4JJSo5uZe3t1Xr62yjx2kbjUpBc3SUaR99C2BsRzFVUTx7Pn1ohL7c/ZGO/BXDYbUNUGYSy61P4czq2RlBV2ZYuoka4pG2+vPnORJC9hbRvhYFYlREh6TnKDUMyLyOe6BHouQjhDis/Z2HZw2GmcE0yLmp4b0nKWQ3ZISoW1Xv4mZsCsLWljOYFgBkG2PUBsDZpZjttEEwdrq+ChBZ7fG0RYhxYM2gvJQ5MCmcR+luNE5CVJtgeYhSnMIKeaGffDeN2WlzHp+20693EsYS0mUth2hqwNem4SMyrRcxO49T4mS3BpQlRW6LkJ6mFBNTOOWOtTtxLMWAdZb2AWpqiHBeVUD5mlIAR6rO1TPi1MUZUaPTeJ3R6gyopqZpwkb+ocNXXmFbLSmOkxzLBAz02iS0011cMMcoR11POT6LLy/0NRUU50Ecby2f/r1yjnJ+mdXWX3ZUdIzq9RTY0hdE22uUt+ZIZ/90/+EgMUQrAmIgzQFood2syKIWuiRZdtVoVfdN02u5yWKddZwwUUkYgouy1Ur+UlaCZ6RJE6UFuxEoWLOxA8tGDQAnBJDkbWBpVrnJQoXaN3R0hjkMPCZ7svKhACZSzs5ihjELsjVCM6WYsSZSxikCONQQxyVOWFLG1tUNb5bdYihwWqNriiwinlvb/dHGksalQitfcGZeG9MXZz730NclTpcz3KYYG0e8dr6mwy99vLz6E2yFGJqrxQZr07unS82qCKyh+39nUKa5v/y6CGBcIYVNMOMRESQUpEr5GP6bgIhyFzkjFRkzpoCz8DUpghiS2InKaHIMPH/Si1l7PJywO3larCNRx4Pm8Q4uljZGHafjBo184FCyiJVRKTJaAkpqxwnQwrJbadYndHmDQGIbDNNqOUf98dYSOFzRLM7gjXTrFS4jotTFFh0wSbRFg5wLUznJTYdoYZ+uz5tp1i+hK6LawUmFaCjfwPyCYRVvltZqOPa6cYXSMc2FZznHa2n+0EIbzwZTtrtqX724y1Ximgk2E2lT/ehsKmiVfE3sulKIT/3/tDTCvxcbe8wrZTPvzbbyX+/TYfvuPt/Df/7IdBSeLtAdWhaXqPXmD3ujn+9Q/8OTU+1jYsz7ECTCAYihQtFCZWyCTyoqRpcuC2MrEK13AgEAzad8F2aBj+3zX10gEeq52jvTYPD7TYaVcHPB+JengBsRET33Oc1qMWJ4X3Wrpt1PYY2VibeDiDTHwTRpXGjXVJ+j3cWJdoMOVvvHFEPJoj67VRO5Nk4x1UPoNTAhspot0Z/11/gqzXJhrNEsUSk8QkwykY6xJvdWl1WyQne6Al6b1zRCcN6WSPZKcHnZbXfDIW0UqJdqfJxjtETZ2yrhHGEbUSf5yxNvHuJFm7hWw8SdnNiHfGceM94n4XkSZee03X0M5Qu1Nkf98jGkwisgRpLHFZknXbyAdaiEoS//0ircHwqm31Rv1GXiFyHFAww/cD8wjWXcykk6R/fgPi/AxCS5IvzaCmX3mgtopXYtRGzOBujZ27dq6rZPMQo1OCnfhgdSWjNtn5YxR/m1Ae0BPo9I8iCsVg/oAPAU7S2rwe2W4xaB2sLlF3SbZvpPjiGIOxg51Wls+QVC1GjxpycbC1YdkD3TDkeE2PrLk9+eNAIBAIPBU7OzuMj4+zdfJTjPWunl7tzk99jjs/9TmMsZw8tUy/32dsbCw0XjBogUAgrhvRxQAABZFJREFUcA0atEc+/aQGbb/s7ojJl73vBW3QBoMB999/P1prfvInf/KaP9/gEwcCgcC3feeUz+z1AuX06dPceuutvP/97yeOY37iJ37ihdEt4coMBAKBbw8n5DN6vRC55557eP3rX88//af/lD/+4z/mlltuQb5AjHOY5RgIBALfLi/S1FenTp3iZ37mZ/jFX/xFfuVXfuWF5ziHKzMQCAQCAHfccQdVVfHhD3/4BXn+waAFAoHAt33nfH5iaF/84hf5sz/7s+/Kv7S1tcXdd9/NiRMnuOOOO3j961/PzMwMv/zLv0ye58GgBQKBQDBoT89Xv/pV3vKWt/DjP/7jfPWrX33Kso8++ii/8Au/wGtf+1re+MY38rrXvY5PfOITB/6X7rvvPowx3HTTTfzhH/4h999/P3fffTef/vSn+dCHPhQMWiAQCASD9uRsb2/ze7/3e3z2s5/ly1/+8tOW/9rXvsbrXvc6nHN85Stf4W/+5m/4gz/4A37t136N22677UD/0vr6OgC/9Eu/RBx7rYof+ZEf4ed+7uf4+Mc/TlmWwaAFAoHAi8+giWdg0J4+g8v4+Dgf+tCH+P3f/33e9ra3PWXZfr/PO97xDqIo4s4779w3Orfccgsf+tCH+MQnPsGnP/3pK/Y5fvw4QoinfB0/fhyAqakpAJS6MsvL937v91LXNY899tg13y1hlmMgEAh8uwjx9MmHn0FKMnFZmSzLnrLsH/3RH7G0tMRtt91Gr9e7Ytv73/9+fuu3fovf+I3f4D3vec++sbvnnnuo6/qpjUDkzcCNN94IwOrq6hXb9xaFP/6YwaAFAoHAi8JD+87ncvzkJz8JwI/92I89YdvRo0e5/vrrOXXqFF/4whf2vb3FxcVnXP8NN9zA933f9/HXf/3XvPvd797//sKFCywuLnL48OFrv1vClRkIBALXNmtrazzyyCMAvPrVr75qmZtuugmAz3/+88/6OL/5m7/JXXfdxdraGgBVVfEnf/In/M7v/M4Lop2ChxYIBALXuIf2wAMP7H8+cuTIVcvseVDf/OY3n/VxfvZnf5bBYMB73/teXvva13Lu3Dl+9Vd/lfe9733BoAUCgcCLkZ1B8QSDVZYVZXkpXrW7O3rOjre5ubn/+cliWXuxrsfHwL5d3vOe9/Ce97znBdkvwaAFAoHAMyRJEhYWFjh+7N3PqHy32yVJkgMfdzQaXXEOVyNNUwCGw+FLtn+CQQsEAoFnSJZlnD59mqp6okBrWZZPWKvV6/WedvbiM6HVau1/1lpf1ahprQFot9vBoAUCgUDgmRm158JIfTssLCzsfx4MBvtrxi5nMBgAMD8//5LtmzDLMRAIBK5xXvWqV+2vWVteXr5qmb3vX/Oa1wSDFggEAoFrk6mpKW6++WYAHnzwwauW2ZsJ+aY3vSkYtEAgEAhcu9x6660AfOlLX3rCtpWVFU6ePMnU1BRvfvObg0ELBAKBwHePPYkWa+1Vt992223Mzs5y1113XTHrEeBTn/oU1lo++MEPXjGBJBi0QCAQCHxH2djY4J577gHg3nvvvWr+xampKT7zmc+wu7vL7bffvj+r8b777uOjH/0ob3/727njjjte0u0onHMuXE6BQCDwnccYwxve8AYeeuihK9aPzc7Ocsstt3D33Xc/YZ9vfOMb/O7v/i6PPPII7Xab4XDIe9/7Xm6//fYnZMoPBi0QCAQCgRcgYcgxEAgEAsGgBQKBQCAQDFogEAgEAsGgBQKBQCAQDFogEAgEgkELBAKBQCAYtEAgEAgEgkELBAKBQCAYtEAgEAgEgxYIBAKBQDBogUAgEAgEgxYIBAKBQDBogUAgEAgGLRAIBAKBYNACgUAgEAgGLRAIBAKBYNACgUAgEAxaIBAIBALBoAUCgUAgcA3w/wOIA4YXs3zFWgAAAABJRU5ErkJggg==;" vertex="1" parent="1">
          <mxGeometry x="-140" y="200" width="231.25" height="186.17" as="geometry" />
        </mxCell>
        <mxCell id="9boe2PsTS-l3skZUsSW5-3" value="" style="ellipse;shape=cloud;whiteSpace=wrap;html=1;fillColor=#dae8fc;strokeColor=#6c8ebf;" vertex="1" parent="1">
          <mxGeometry x="370.11" y="-140" width="299.89" height="360" as="geometry" />
        </mxCell>
        <mxCell id="9boe2PsTS-l3skZUsSW5-1" value="&lt;div&gt;&lt;br&gt;&lt;/div&gt;&lt;div&gt;zarr &lt;br&gt;&lt;/div&gt;&lt;div&gt;store&lt;br&gt;&lt;/div&gt;" style="strokeWidth=2;html=1;shape=mxgraph.flowchart.database;whiteSpace=wrap;" vertex="1" parent="1">
          <mxGeometry x="430" y="17.5" width="70" height="70" as="geometry" />
        </mxCell>
        <mxCell id="9boe2PsTS-l3skZUsSW5-2" value="" style="shape=datastore;whiteSpace=wrap;html=1;fillColor=#f8cecc;strokeColor=#b85450;" vertex="1" parent="1">
          <mxGeometry x="509.99999999999994" y="-32.5" width="40" height="40" as="geometry" />
        </mxCell>
        <mxCell id="9boe2PsTS-l3skZUsSW5-6" value="" style="shape=datastore;whiteSpace=wrap;html=1;fillColor=#f8cecc;strokeColor=#b85450;" vertex="1" parent="1">
          <mxGeometry x="559.9999999999999" y="-32.5" width="40" height="40" as="geometry" />
        </mxCell>
        <mxCell id="9boe2PsTS-l3skZUsSW5-7" value="" style="shape=datastore;whiteSpace=wrap;html=1;" vertex="1" parent="1">
          <mxGeometry x="509.9999999999999" y="60" width="40" height="40" as="geometry" />
        </mxCell>
        <mxCell id="9boe2PsTS-l3skZUsSW5-8" value="" style="shape=datastore;whiteSpace=wrap;html=1;" vertex="1" parent="1">
          <mxGeometry x="559.9999999999999" y="60" width="40" height="40" as="geometry" />
        </mxCell>
        <mxCell id="9boe2PsTS-l3skZUsSW5-9" value="" style="shape=datastore;whiteSpace=wrap;html=1;" vertex="1" parent="1">
          <mxGeometry x="509.99999999999994" y="12.5" width="40" height="40" as="geometry" />
        </mxCell>
        <mxCell id="9boe2PsTS-l3skZUsSW5-10" value="" style="shape=datastore;whiteSpace=wrap;html=1;" vertex="1" parent="1">
          <mxGeometry x="559.9999999999999" y="12.5" width="40" height="40" as="geometry" />
        </mxCell>
        <mxCell id="9boe2PsTS-l3skZUsSW5-11" value="" style="shape=datastore;whiteSpace=wrap;html=1;" vertex="1" parent="1">
          <mxGeometry x="509.9999999999999" y="105" width="40" height="40" as="geometry" />
        </mxCell>
        <mxCell id="9boe2PsTS-l3skZUsSW5-12" value="" style="shape=datastore;whiteSpace=wrap;html=1;" vertex="1" parent="1">
          <mxGeometry x="559.9999999999999" y="105" width="40" height="40" as="geometry" />
        </mxCell>
        <mxCell id="9boe2PsTS-l3skZUsSW5-16" value="" style="rounded=1;whiteSpace=wrap;html=1;fillColor=none;strokeColor=#F66151;strokeWidth=3;" vertex="1" parent="1">
          <mxGeometry x="499.99999999999994" y="-42.5" width="110" height="60" as="geometry" />
        </mxCell>
        <mxCell id="9boe2PsTS-l3skZUsSW5-39" style="edgeStyle=orthogonalEdgeStyle;rounded=0;orthogonalLoop=1;jettySize=auto;html=1;exitX=0.5;exitY=1;exitDx=0;exitDy=0;startArrow=none;startFill=0;flowAnimation=0;entryX=0;entryY=0.25;entryDx=0;entryDy=0;" edge="1" parent="1" source="9boe2PsTS-l3skZUsSW5-19" target="9boe2PsTS-l3skZUsSW5-49">
          <mxGeometry relative="1" as="geometry">
            <mxPoint x="240" y="160" as="sourcePoint" />
            <mxPoint x="80" y="280" as="targetPoint" />
            <Array as="points">
              <mxPoint x="240" y="170" />
              <mxPoint x="110" y="170" />
              <mxPoint x="110" y="233" />
            </Array>
          </mxGeometry>
        </mxCell>
        <mxCell id="9boe2PsTS-l3skZUsSW5-19" value="yt_xarray dataset" style="swimlane;whiteSpace=wrap;html=1;" vertex="1" parent="1">
          <mxGeometry x="140" y="-80" width="200" height="220" as="geometry" />
        </mxCell>
        <mxCell id="9boe2PsTS-l3skZUsSW5-21" value="yt grid hierarchy" style="swimlane;whiteSpace=wrap;html=1;" vertex="1" parent="9boe2PsTS-l3skZUsSW5-19">
          <mxGeometry x="38" y="115" width="122" height="70" as="geometry">
            <mxRectangle x="74.32" y="160" width="110" height="30" as="alternateBounds" />
          </mxGeometry>
        </mxCell>
        <mxCell id="9boe2PsTS-l3skZUsSW5-22" value="xarray dataset" style="swimlane;whiteSpace=wrap;html=1;" vertex="1" parent="9boe2PsTS-l3skZUsSW5-19">
          <mxGeometry x="38" y="35" width="130" height="70" as="geometry" />
        </mxCell>
        <mxCell id="9boe2PsTS-l3skZUsSW5-30" value="zarr backend" style="text;html=1;align=center;verticalAlign=middle;resizable=0;points=[];autosize=1;strokeColor=none;fillColor=none;" vertex="1" parent="9boe2PsTS-l3skZUsSW5-22">
          <mxGeometry x="22.840000000000003" y="30" width="90" height="30" as="geometry" />
        </mxCell>
        <mxCell id="9boe2PsTS-l3skZUsSW5-27" style="edgeStyle=orthogonalEdgeStyle;rounded=0;orthogonalLoop=1;jettySize=auto;html=1;exitX=1;exitY=0.5;exitDx=0;exitDy=0;exitPerimeter=0;entryX=0;entryY=0.5;entryDx=0;entryDy=0;" edge="1" parent="1" source="9boe2PsTS-l3skZUsSW5-24" target="9boe2PsTS-l3skZUsSW5-19">
          <mxGeometry relative="1" as="geometry">
            <mxPoint x="110" y="180" as="targetPoint" />
          </mxGeometry>
        </mxCell>
        <mxCell id="9boe2PsTS-l3skZUsSW5-24" value="1. load dataset" style="strokeWidth=2;html=1;shape=mxgraph.flowchart.start_2;whiteSpace=wrap;" vertex="1" parent="1">
          <mxGeometry x="-120" y="-80" width="145" height="60" as="geometry" />
        </mxCell>
        <mxCell id="9boe2PsTS-l3skZUsSW5-37" value="" style="edgeStyle=orthogonalEdgeStyle;rounded=0;orthogonalLoop=1;jettySize=auto;html=1;entryX=0;entryY=0.5;entryDx=0;entryDy=0;startArrow=classic;startFill=1;" edge="1" parent="1" source="9boe2PsTS-l3skZUsSW5-34" target="9boe2PsTS-l3skZUsSW5-49">
          <mxGeometry relative="1" as="geometry">
            <mxPoint x="100" y="310" as="targetPoint" />
            <Array as="points">
              <mxPoint x="100" y="95" />
              <mxPoint x="100" y="275" />
            </Array>
          </mxGeometry>
        </mxCell>
        <mxCell id="9boe2PsTS-l3skZUsSW5-34" value="&lt;div&gt;2. yt SlicePlot&lt;br&gt;&lt;/div&gt;" style="ellipse;whiteSpace=wrap;html=1;strokeWidth=2;" vertex="1" parent="1">
          <mxGeometry x="-122.5" y="60" width="147.5" height="70" as="geometry" />
        </mxCell>
        <mxCell id="9boe2PsTS-l3skZUsSW5-49" value="" style="shape=process;whiteSpace=wrap;html=1;backgroundOutline=1;size=0.07079646017699115;" vertex="1" parent="1">
          <mxGeometry x="140" y="190" width="282.5" height="170" as="geometry" />
        </mxCell>
        <mxCell id="9boe2PsTS-l3skZUsSW5-50" value="" style="shape=singleArrow;whiteSpace=wrap;html=1;fillColor=#dae8fc;strokeColor=#6c8ebf;rotation=90;" vertex="1" parent="1">
          <mxGeometry x="-71.25" y="5" width="47.5" height="35" as="geometry" />
        </mxCell>
        <mxCell id="9boe2PsTS-l3skZUsSW5-44" value="" style="group" vertex="1" connectable="0" parent="1">
          <mxGeometry x="171.25" y="210" width="236" height="140" as="geometry" />
        </mxCell>
        <mxCell id="9boe2PsTS-l3skZUsSW5-43" value="" style="rounded=0;whiteSpace=wrap;html=1;" vertex="1" parent="9boe2PsTS-l3skZUsSW5-44">
          <mxGeometry x="-3" width="220" height="30" as="geometry" />
        </mxCell>
        <mxCell id="9boe2PsTS-l3skZUsSW5-42" value="&lt;div align=&quot;left&quot;&gt;identify intersected grids &lt;br&gt;&lt;/div&gt;&lt;div align=&quot;left&quot;&gt;&lt;br&gt;&lt;/div&gt;&lt;br&gt;&lt;div align=&quot;left&quot;&gt;&lt;span style=&quot;white-space: pre;&quot;&gt;&#x9;&lt;/span&gt;&lt;br&gt;&lt;/div&gt;" style="text;html=1;align=left;verticalAlign=middle;resizable=0;points=[];autosize=1;strokeColor=none;fillColor=none;" vertex="1" parent="9boe2PsTS-l3skZUsSW5-44">
          <mxGeometry x="6" y="6.3310344827586205" width="150" height="70" as="geometry" />
        </mxCell>
        <mxCell id="9boe2PsTS-l3skZUsSW5-55" value="" style="rounded=0;whiteSpace=wrap;html=1;" vertex="1" parent="9boe2PsTS-l3skZUsSW5-44">
          <mxGeometry y="50" width="220" height="90" as="geometry" />
        </mxCell>
        <mxCell id="9boe2PsTS-l3skZUsSW5-51" value="&lt;div align=&quot;left&quot;&gt;for each intersected grid: &lt;br&gt;&lt;/div&gt;&lt;div align=&quot;left&quot;&gt;&lt;span style=&quot;white-space: pre;&quot;&gt;&lt;span style=&quot;white-space: pre;&quot;&gt;&amp;nbsp;&amp;nbsp;&amp;nbsp;&amp;nbsp;&lt;/span&gt;&lt;/span&gt;&lt;/div&gt;" style="text;whiteSpace=wrap;html=1;" vertex="1" parent="9boe2PsTS-l3skZUsSW5-44">
          <mxGeometry x="6" y="50" width="230" height="70" as="geometry" />
        </mxCell>
        <mxCell id="9boe2PsTS-l3skZUsSW5-58" value="&lt;div align=&quot;left&quot;&gt;get field values at grid cells&lt;br&gt;&lt;/div&gt;" style="rounded=0;whiteSpace=wrap;html=1;fillColor=#f8cecc;strokeColor=#b85450;" vertex="1" parent="9boe2PsTS-l3skZUsSW5-44">
          <mxGeometry x="20" y="80" width="160" height="40" as="geometry" />
        </mxCell>
        <mxCell id="9boe2PsTS-l3skZUsSW5-59" value="" style="endArrow=classic;startArrow=classic;html=1;rounded=0;exitX=0;exitY=0.5;exitDx=0;exitDy=0;entryX=0;entryY=0.25;entryDx=0;entryDy=0;fillColor=#f8cecc;strokeColor=#b85450;dashed=1;dashPattern=1 1;strokeWidth=3;" edge="1" parent="1" source="9boe2PsTS-l3skZUsSW5-58" target="9boe2PsTS-l3skZUsSW5-16">
          <mxGeometry width="50" height="50" relative="1" as="geometry">
            <mxPoint x="290" y="300" as="sourcePoint" />
            <mxPoint x="340" y="250" as="targetPoint" />
            <Array as="points">
              <mxPoint x="160" y="310" />
              <mxPoint x="150" y="310" />
              <mxPoint x="150" y="220" />
              <mxPoint x="120" y="220" />
              <mxPoint x="120" y="180" />
              <mxPoint x="250" y="180" />
              <mxPoint x="250" y="120" />
              <mxPoint x="330" y="120" />
              <mxPoint x="330" y="13" />
              <mxPoint x="300" y="13" />
              <mxPoint x="300" y="-10" />
              <mxPoint x="360" y="-10" />
              <mxPoint x="380" y="40" />
              <mxPoint x="460" y="40" />
              <mxPoint x="460" y="-27" />
            </Array>
          </mxGeometry>
        </mxCell>
        <mxCell id="9boe2PsTS-l3skZUsSW5-61" value="" style="shape=singleArrow;whiteSpace=wrap;html=1;fillColor=#dae8fc;strokeColor=#6c8ebf;rotation=90;" vertex="1" parent="1">
          <mxGeometry x="-72.5" y="150" width="47.5" height="35" as="geometry" />
        </mxCell>
      </root>
    </mxGraphModel>
  </diagram>
</mxfile>
